<?xml version="1.0" encoding="UTF-8"?>
<svg width="191px" height="82px" viewBox="0 0 191 82" version="1.1" xmlns="http://www.w3.org/2000/svg" xmlns:xlink="http://www.w3.org/1999/xlink">
    <title>background</title>
    <g id="V0.6.1.2" stroke="none" stroke-width="1" fill="none" fill-rule="evenodd">
        <g id="应用中心_应用推荐1" transform="translate(-229.000000, -164.000000)" fill="#E5F1FF">
            <g id="编组-19" transform="translate(204.000000, 105.804369)">
                <g id="编组-3" transform="translate(0.000000, 49.000000)">
                    <g id="background" transform="translate(25.619341, 9.322507)">
                        <path d="M155.168273,2 C155.968356,2 156.641363,4.04070431 156.837498,6.8100928 C159.606001,7.01382902 161.645824,7.71075068 161.645824,8.53922902 C161.645824,9.36860217 159.601593,10.0661343 156.828554,10.2685945 C156.621178,12.9750604 155.956374,14.955102 155.168273,14.955102 C154.380074,14.955102 153.715203,12.9745709 153.508102,10.2679284 C150.734843,10.0660969 148.690721,9.36857991 148.690721,8.53922902 C148.690721,7.7107697 150.73045,7.01386102 153.498828,6.81053455 C153.695182,4.04070431 154.368189,2 155.168273,2 Z" id="Oval-80-Copy-3" opacity="0.85" transform="translate(155.168273, 8.477551) rotate(-340.000000) translate(-155.168273, -8.477551) "></path>
                        <path d="M7,23.2575688 C7.61747903,23.2575688 8.13690168,24.8322593 8.28839393,26.9694 C10.4253095,27.1276725 12,27.665646 12,28.3051779 C12,28.9454012 10.4219024,29.4838464 8.28123449,29.6400935 C8.12148743,31.7291975 7.60832975,33.2575688 7,33.2575688 C6.39167025,33.2575688 5.87851257,31.7291975 5.71858158,29.6403629 C3.57809758,29.4838464 2,28.9454012 2,28.3051779 C2,27.665646 3.57469047,27.1276725 5.7118312,26.9707699 C5.86309832,24.8322593 6.38252097,23.2575688 7,23.2575688 Z" id="Oval-80-Copy-3备份" opacity="0.85" transform="translate(7.000000, 28.257569) rotate(-340.000000) translate(-7.000000, -28.257569) "></path>
                        <path d="M186.014191,79.8493118 L186.013758,79.8495395 C185.269143,80.2409247 184.348233,79.9545752 183.956847,79.2099599 C183.801008,78.9134739 183.747244,78.5738865 183.803877,78.2437615 L183.803877,78.2437615 L183.803877,78.2437615 C183.201516,77.6567285 183.189091,76.6925346 183.776124,76.0901741 C184.009933,75.8502606 184.316323,75.6941326 184.647843,75.64597 L184.648142,75.6459266 L184.648142,75.6459266 C185.020563,74.8914782 185.93407,74.5817836 186.688519,74.9542044 C186.988866,75.1024658 187.23198,75.3455793 187.380241,75.6459266 L187.380241,75.6459266 L187.380241,75.6459266 L187.38054,75.64597 C188.2129,75.7668937 188.789634,76.5396828 188.66871,77.3720429 C188.620548,77.7035627 188.46442,78.0099528 188.224506,78.2437615 L188.224506,78.2437615 L188.224506,78.2437615 C188.366738,79.0728601 187.809922,79.8602787 186.980823,80.0025101 C186.650698,80.0591429 186.311111,80.0053787 186.014625,79.8495395 L186.014191,79.8493118 L186.014191,79.8493118 Z" id="Star-1-Copy-21" transform="translate(186.014290, 77.410621) rotate(-12.000000) translate(-186.014290, -77.410621) "></path>
                    </g>
                </g>
            </g>
        </g>
    </g>
</svg>