<?xml version="1.0" encoding="UTF-8"?>
<svg width="60px" height="60px" viewBox="0 0 60 60" version="1.1" xmlns="http://www.w3.org/2000/svg" xmlns:xlink="http://www.w3.org/1999/xlink">
    <!-- Generator: Sketch 61 (89581) - https://sketch.com -->
    <title>default_rights</title>
    <desc>Created with Sketch.</desc>
    <g id="类型页" stroke="none" stroke-width="1" fill="none" fill-rule="evenodd">
        <g id="会员列表-会员权益" transform="translate(-316.000000, -339.000000)">
            <g id="Group-29" transform="translate(292.000000, 264.000000)">
                <g id="default_rights" transform="translate(24.000000, 75.000000)">
                    <rect id="矩形" stroke="#E8E8E8" fill="#E8E8E8" x="0.5" y="0.5" width="59" height="59"></rect>
                    <g id="会员权益" transform="translate(15.000000, 15.000000)" fill-rule="nonzero">
                        <rect id="矩形" fill="#000000" opacity="0" x="0" y="0" width="30" height="30"></rect>
                        <path d="M4.90012602,20.1038186 L2.05452225,24.6861575 C1.91224207,24.9725537 2.05452225,25.3305489 2.41022271,25.3305489 L6.25178779,25.5453461 C6.39406796,25.5453461 6.46520808,25.6169451 6.53634817,25.6885442 L8.88397127,28.8389021 C9.09739156,29.0536993 9.45309202,29.0536993 9.5953722,28.8389021 L12.2986958,24.3281623 C12.4409759,24.1133651 12.3698359,23.898568 12.1564156,23.7553699 L5.46924674,19.9606205 C5.25582645,19.8890215 5.04240619,19.9606205 4.90012602,20.1038186 L4.90012602,20.1038186 Z M26.099874,20.0322196 L28.9454778,24.6145585 C29.0877579,24.9009546 28.9454778,25.2589499 28.5897773,25.2589499 L24.7482122,25.473747 C24.605932,25.473747 24.5347919,25.5453461 24.4636518,25.6169451 L22.1160287,28.7673031 C21.9026084,28.9821002 21.546908,28.9821002 21.4046278,28.7673031 L18.7013042,24.2565632 C18.5590241,24.0417661 18.6301641,23.826969 18.8435844,23.6837709 L25.5307533,19.8890215 C25.7441735,19.7458234 25.9575938,19.8174225 26.099874,20.0322196 Z M24.5059635,6.14866442 L16.3909475,1.53731071 C15.8158676,1.21707781 15.0490945,1.21707781 14.4740146,1.53731071 L6.4228964,6.08461784 C5.84781653,6.40485073 5.46442996,7.04531652 5.46442996,7.68578233 L5.46442996,16.8444432 C5.46442996,17.484909 5.84781653,18.1253748 6.4228964,18.4456077 L14.5379124,23.0569614 C15.1129922,23.3771943 15.8797654,23.3771943 16.4548453,23.0569614 L24.5059635,18.5737008 C25.0810434,18.2534679 25.46443,17.6130021 25.46443,16.9725363 L25.46443,7.81387547 C25.46443,7.10936309 25.0810434,6.46889731 24.5059635,6.14866442 L24.5059635,6.14866442 Z M15.9615167,16.9920903 C15.8434621,17.1751178 15.6073529,17.297136 15.3712438,17.297136 C15.1351346,17.297136 14.8990255,17.1751178 14.7809709,16.9920903 L10.5900336,10.4641122 C10.3539244,10.1590665 10.4839131,9.60998426 10.7790496,9.42695683 C11.074186,9.2439294 11.5867439,9.21328062 11.8682505,9.60998424 L15.4662118,14.5098092 L19.0899628,9.60998424 C19.326072,9.30493853 19.739263,9.18292024 20.0343994,9.42695683 C20.5066177,9.73200253 20.565645,10.1590665 20.3295359,10.4641122 L15.9615167,16.9920903 Z" id="形状" fill="#C4C4C4"></path>
                    </g>
                </g>
            </g>
        </g>
    </g>
</svg>