<?xml version="1.0" encoding="UTF-8"?>
<svg width="21px" height="21px" viewBox="0 0 21 21" version="1.1" xmlns="http://www.w3.org/2000/svg" xmlns:xlink="http://www.w3.org/1999/xlink">
    <title>delete_1</title>
    <g id="V0.4.2" stroke="none" stroke-width="1" fill="none" fill-rule="evenodd">
        <g id="域管理_空间管理3" transform="translate(-1051.000000, -196.000000)">
            <g id="delete_1" transform="translate(1051.500000, 196.500000)">
                <rect id="Rectangle-48-Copy-13" x="0.344122024" y="0.37016369" width="19.047619" height="19.047619"></rect>
                <g id="delete" transform="translate(3.677455, 3.703497)" fill="#1A447F" fill-opacity="0.45" fill-rule="nonzero">
                    <path d="M1.5555359,11.5524841 C1.5223998,11.5247063 1.488672,11.4885953 1.4555359,11.4524841 C1.49222228,11.4885953 1.5223998,11.5247063 1.5555359,11.5524841 Z M1.42965089,11.4812764 C1.39542867,11.4491086 1.36165089,11.4169408 1.32965089,11.3812764 C1.36120643,11.4169408 1.39542867,11.4491086 1.42965089,11.4812764 Z M11.5545654,1.80257161 C11.4660645,1.71407064 11.337382,1.66473388 11.2125142,1.66473388 L8.8117981,1.66473388 L8.8117981,0.916798906 C8.8117981,0.410970052 8.40082805,0 7.89499919,0 L3.79699707,0 C3.29116822,0 2.88019816,0.410970052 2.88019816,0.916798906 L2.88019816,1.66473388 L0.467274987,1.66473389 C0.211181641,1.66473389 0.00162760417,1.87276206 0.00162760417,2.13038128 C0.00162760417,2.38800049 0.209655768,2.59602866 0.467274987,2.59602866 L0.878245039,2.59602866 L0.878245039,10.6997172 C0.878245039,11.2055461 1.28921509,11.6165161 1.79504395,11.6165161 L10.0276693,11.6165161 C10.5334981,11.6165161 10.9444682,11.2055461 10.9444682,10.6997172 L10.9444682,2.59602865 L11.2122599,2.59602865 C11.4683533,2.59602865 11.6908783,2.38800048 11.6908783,2.13038126 C11.6911316,2.00678508 11.6430664,1.89107259 11.5545654,1.80257161 Z M3.7954712,0.919596354 L7.89093018,0.919596354 L7.89093018,1.67261759 L3.7954712,1.67261759 L3.7954712,0.919596354 Z M10.0263977,10.6984456 L1.79504395,10.6984456 L1.79504395,2.59602865 L2.98116048,2.59602865 L10.0261434,2.59602865 L10.0261434,10.6984456 L10.0263977,10.6984456 Z M5.83989461,4.15649414 C5.58100382,4.15649414 5.3717041,4.36579387 5.3717041,4.62468465 L5.3717041,8.96860758 C5.3717041,9.22749837 5.58100383,9.43679809 5.83989461,9.43679809 C6.09878539,9.43679809 6.30808513,9.22749836 6.30808513,8.96860758 L6.30808513,4.62468465 C6.30808513,4.36604818 6.0987854,4.15649414 5.83989461,4.15649414 Z M3.30388387,4.15649414 C3.04499307,4.15649414 2.83569336,4.36579387 2.83569336,4.62468465 L2.83569336,8.96860758 C2.83569336,9.22749837 3.04499309,9.43679809 3.30388387,9.43679809 C3.56277465,9.43679809 3.77207439,9.22749836 3.77207439,8.96860758 L3.77207439,4.62468465 C3.77207439,4.36604818 3.56252035,4.15649414 3.30388387,4.15649414 Z M8.34996542,4.15649414 C8.09107462,4.15649414 7.88177491,4.36579387 7.88177491,4.62468465 L7.88177491,8.96860758 C7.88177491,9.22749837 8.09107464,9.43679809 8.34996542,9.43679809 C8.6088562,9.43679809 8.81815592,9.22749836 8.81815592,8.96860758 L8.81815592,4.62468465 C8.81815592,4.36604818 8.6088562,4.15649414 8.34996542,4.15649414 Z" id="Shape"></path>
                </g>
            </g>
        </g>
    </g>
</svg>