<?xml version="1.0" encoding="UTF-8"?>
<svg width="21px" height="21px" viewBox="0 0 21 21" version="1.1" xmlns="http://www.w3.org/2000/svg" xmlns:xlink="http://www.w3.org/1999/xlink">
    <title>edit_2</title>
    <g id="V0.4.2" stroke="none" stroke-width="1" fill="none" fill-rule="evenodd">
        <g id="域管理_空间管理3" transform="translate(-1101.000000, -241.000000)">
            <g id="edit_2" transform="translate(1101.500000, 241.900000)">
                <rect id="矩形备份-4" fill="#E5F1FF" x="0" y="0" width="20" height="20" rx="4"></rect>
                <path d="M15.5178571,14.9090909 L4.48214286,14.9090909 C4.215625,14.9090909 4,15.1530303 4,15.4545455 C4,15.7560606 4.215625,16 4.48214286,16 L15.5178571,16 C15.784375,16 16,15.7560606 16,15.4545455 C16,15.1530303 15.784375,14.9090909 15.5178571,14.9090909 Z M5.70904612,13.7819499 L8.97164398,12.4005129 C9.02428888,12.3783434 9.0713922,12.3464747 9.11295396,12.3062925 L14.6157305,6.80271368 C15.0050256,6.4133618 15.0077964,5.77875981 14.6185013,5.38940794 L13.5198855,4.29063201 C13.1305904,3.90128014 12.4960809,3.90405132 12.1067858,4.2934032 L6.60400927,9.796982 C6.56383291,9.83716422 6.53196889,9.88566001 6.50980262,9.93831258 L5.12718153,13.2000005 C5.04959959,13.3828989 5.10362987,13.5671829 5.22138818,13.686344 C5.33914649,13.805505 5.524789,13.8595432 5.70904612,13.7819499 Z M12.5930307,5.09399511 L13.8181818,6.31297415 L13.2624445,6.86778431 L12.0403794,5.64571925 L12.5930307,5.09399511 Z M7.0971124,10.5664235 L11.4817177,6.18181818 L12.7272727,7.4273732 L8.34266742,11.8119785 L6.18181818,12.7272727 L7.0971124,10.5664235 Z" id="Shape" fill="#5AA6FF" fill-rule="nonzero"></path>
            </g>
        </g>
    </g>
</svg>