<?xml version="1.0" encoding="UTF-8"?>
<svg width="683px" height="594px" viewBox="0 0 683 594" version="1.1" xmlns="http://www.w3.org/2000/svg" xmlns:xlink="http://www.w3.org/1999/xlink">
    <title>注册/登录页插画</title>
    <defs>
        <path d="M8.38984304,57.0206602 C3.97156505,57.0206602 0.389843044,53.4389382 0.389843044,49.0206602 L0.389843044,8.38594362 C0.389843044,3.96766562 3.97156505,0.385943616 8.38984304,0.385943616 L91.6248124,0.385943616 C96.0430904,0.385943616 99.6248124,3.96766562 99.6248124,8.38594362 L99.6248124,49.0206602 C99.6248124,53.4389382 96.0430904,57.0206602 91.6248124,57.0206602 L15.3074877,57.0206602 L11.6367131,62.6882749 L7.96593849,57.0206602 L8.38984304,57.0206602 Z" id="path-1"></path>
        <filter x="-13.1%" y="-17.7%" width="126.2%" height="141.7%" filterUnits="objectBoundingBox" id="filter-2">
            <feOffset dx="0" dy="2" in="SourceAlpha" result="shadowOffsetOuter1"></feOffset>
            <feGaussianBlur stdDeviation="4" in="shadowOffsetOuter1" result="shadowBlurOuter1"></feGaussianBlur>
            <feColorMatrix values="0 0 0 0 0.669855183   0 0 0 0 0.779903455   0 0 0 0 1  0 0 0 0.5839434 0" type="matrix" in="shadowBlurOuter1"></feColorMatrix>
        </filter>
        <path d="M0.334701435,9.83211402 L18.5428072,38.9110875 L58.4231479,17.2890543 C57.2308384,10.1756812 47.1598083,9.24308905 28.2100576,14.4912777 L14.8964806,0.0852194793 L0.334701435,9.83211402 Z" id="path-3"></path>
        <filter x="0.0%" y="0.0%" width="100.0%" height="100.0%" filterUnits="objectBoundingBox" id="filter-5">
            <feOffset dx="0" dy="0" in="SourceAlpha" result="shadowOffsetOuter1"></feOffset>
            <feColorMatrix values="0 0 0 0 0.949473505   0 0 0 0 0.703834454   0 0 0 0 0.584736732  0 0 0 1 0" type="matrix" in="shadowOffsetOuter1"></feColorMatrix>
        </filter>
        <path d="M20.1992207,4.23689565 L20.1992207,16.3102531 C40.4283892,23.9568089 49.0580314,29.9461588 46.0881475,34.2783026 C33.7793593,34.2783026 26.589095,34.2783026 0,34.2783026 L4.53825879,0.303009041 L20.1992207,4.23689565 Z" id="path-6"></path>
        <filter x="0.0%" y="0.0%" width="100.0%" height="100.0%" filterUnits="objectBoundingBox" id="filter-8">
            <feOffset dx="0" dy="0" in="SourceAlpha" result="shadowOffsetOuter1"></feOffset>
            <feColorMatrix values="0 0 0 0 0.949473505   0 0 0 0 0.703834454   0 0 0 0 0.584736732  0 0 0 1 0" type="matrix" in="shadowOffsetOuter1"></feColorMatrix>
        </filter>
        <path d="M39.0231602,0.136860762 L58.512829,6.78261338 L128.461399,98.0478828 C122.119378,105.481808 109.893147,111.746387 91.7827055,116.841619 L91.7827055,116.841619 L57.523,61.2118608 L47.6595495,122.638294 C32.8221798,124.918936 17.1848954,121.538118 0.747696317,112.495842 L7.73692867e-13,112.08093 L24.2606136,58.4892398 L21.0860996,11.6976074 L32.33,10.5358608 L39.0231602,0.136860762 Z" id="path-9"></path>
        <path d="M6.70931163,12.4225543 C11.7240653,9.84627048 15.3278944,5.70815809 17.5207987,0.00821714056 L0,0.729651845 L6.70931163,12.4225543 Z" id="path-11"></path>
        <filter x="0.0%" y="0.0%" width="100.0%" height="100.0%" filterUnits="objectBoundingBox" id="filter-13">
            <feOffset dx="0" dy="0" in="SourceAlpha" result="shadowOffsetOuter1"></feOffset>
            <feColorMatrix values="0 0 0 0 0.949473505   0 0 0 0 0.703834454   0 0 0 0 0.584736732  0 0 0 1 0" type="matrix" in="shadowOffsetOuter1"></feColorMatrix>
        </filter>
        <path d="M7.09000777,66.503282 C20.4718816,65.9992219 30.472429,64.7971171 37.0916498,62.8969675 C43.4268146,61.0783605 51.3348487,57.2796783 60.815752,51.500921 C63.6452845,49.7762751 64.540974,46.0843846 62.8163296,43.2548511 C62.5495982,42.8172389 62.2278983,42.4156038 61.8590868,42.0597551 C40.3635798,21.3197564 29.6158262,10.9497571 29.6158262,10.9497571 L14.2389089,0.376860789 L7.8408861,6.96137301 L0.915188688,59.7267024 C0.483946962,63.0122308 2.79780413,66.0252679 6.08333264,66.456509 C6.41698563,66.5003025 6.75373148,66.5159487 7.09000777,66.503282 Z" id="path-14"></path>
        <path d="M10.3465292,4.3601756 C10.7842462,6.42225396 11.4232561,7.78813536 12.2635591,8.45781978 C12.423172,12.4932784 10.0878067,14.5110077 5.25746344,14.5110077 C4.83869107,10.8599777 3.09114858,7.08882823 0.014835967,3.1975594 L7.58352909,0.320219906 L10.3465292,4.3601756 Z" id="path-16"></path>
        <filter x="0.0%" y="0.0%" width="100.0%" height="100.0%" filterUnits="objectBoundingBox" id="filter-18">
            <feOffset dx="0" dy="0" in="SourceAlpha" result="shadowOffsetOuter1"></feOffset>
            <feColorMatrix values="0 0 0 0 0.949473505   0 0 0 0 0.703834454   0 0 0 0 0.584736732  0 0 0 1 0" type="matrix" in="shadowOffsetOuter1"></feColorMatrix>
        </filter>
        <path d="M0.727496927,4.27863308 C6.53418165,7.00916153 10.6209243,6.99541773 12.9877248,4.23740169 C16.5379256,0.100377621 10.4187915,-9.43111829 6.53589993,-12.4582236 C4.21113976,-7.62611149 1.54961497,-4.52106455 -1.44867446,-3.14308279 C-6.59748904,-1.84579748 -10.4132344,-1.32753402 -9.71628386,3.52995557 C-9.25165018,6.76828196 -5.77038992,7.01784113 0.727496927,4.27863308 Z" id="path-19"></path>
        <filter x="-0.0%" y="0.0%" width="100.0%" height="100.0%" filterUnits="objectBoundingBox" id="filter-20">
            <feOffset dx="0" dy="0" in="SourceAlpha" result="shadowOffsetOuter1"></feOffset>
            <feColorMatrix values="0 0 0 0 0.949473505   0 0 0 0 0.703834454   0 0 0 0 0.584736732  0 0 0 1 0" type="matrix" in="shadowOffsetOuter1"></feColorMatrix>
        </filter>
        <path d="M19.1956154,42.1359927 C24.9280457,44.8251594 28.9559586,44.8251594 31.279354,42.1359927 C34.764447,38.1022426 28.7009772,28.761663 24.8636618,25.7888125 C22.5887422,30.5062904 19.9760397,33.5338351 17.0255545,34.8714466 C11.955203,36.1230762 8.19610195,36.6173163 8.89951523,41.3695469 C9.36845742,44.5377006 12.8004908,44.7931826 19.1956154,42.1359927 Z" id="path-21"></path>
        <filter x="0.0%" y="0.0%" width="100.0%" height="100.0%" filterUnits="objectBoundingBox" id="filter-22">
            <feOffset dx="0" dy="0" in="SourceAlpha" result="shadowOffsetOuter1"></feOffset>
            <feColorMatrix values="0 0 0 0 0.949473505   0 0 0 0 0.703834454   0 0 0 0 0.584736732  0 0 0 1 0" type="matrix" in="shadowOffsetOuter1"></feColorMatrix>
        </filter>
        <path d="M59.499539,59.3205959 C69.9821365,57.2091511 75.9704503,55.5849329 77.4644804,54.4479413 C89.8773397,50.6234223 95.269069,66.9242963 88.7433102,68.4009229 C84.3928044,69.3853406 76.2556397,71.3416724 64.3318162,74.2699184 L59.499539,59.3205959 Z" id="path-23"></path>
        <filter x="0.0%" y="-0.0%" width="100.0%" height="100.0%" filterUnits="objectBoundingBox" id="filter-24">
            <feOffset dx="0" dy="0" in="SourceAlpha" result="shadowOffsetOuter1"></feOffset>
            <feColorMatrix values="0 0 0 0 0.949473505   0 0 0 0 0.703834454   0 0 0 0 0.584736732  0 0 0 1 0" type="matrix" in="shadowOffsetOuter1"></feColorMatrix>
        </filter>
        <path d="M0.223248694,6.97868656 L27.9574008,0 C33.1148706,18.5347019 36.4199832,28.6130748 37.8727386,30.2351187 L4.19798416,34.182752 L0.223248694,6.97868656 Z" id="path-25"></path>
        <path d="M30.712118,47.7066694 C31.2323338,48.9258682 31.537312,54.0284642 24.2269574,54.3232365 C23.746313,55.0163249 23.5059907,55.3628691 23.5059907,55.3628691 L24.1673966,57.3749875 C32.3535249,56.9792812 35.316509,53.5513242 33.0563489,47.0911166 C32.8671742,47.0881561 31.2344514,47.6247042 30.712118,47.7066694 Z" id="path-27"></path>
        <filter x="-4.9%" y="-4.9%" width="119.4%" height="119.4%" filterUnits="objectBoundingBox" id="filter-28">
            <feOffset dx="1" dy="1" in="SourceAlpha" result="shadowOffsetOuter1"></feOffset>
            <feColorMatrix values="0 0 0 0 0.154294146   0 0 0 0 0.171783046   0 0 0 0 0.511067708  0 0 0 1 0" type="matrix" in="shadowOffsetOuter1"></feColorMatrix>
        </filter>
        <filter x="-7.8%" y="-11.2%" width="115.7%" height="122.4%" filterUnits="objectBoundingBox" id="filter-29">
            <feOffset dx="0" dy="2" in="SourceAlpha" result="shadowOffsetOuter1"></feOffset>
            <feGaussianBlur stdDeviation="2" in="shadowOffsetOuter1" result="shadowBlurOuter1"></feGaussianBlur>
            <feColorMatrix values="0 0 0 0 0.352941176   0 0 0 0 0.650980392   0 0 0 0 1  0 0 0 0.28715035 0" type="matrix" in="shadowBlurOuter1" result="shadowMatrixOuter1"></feColorMatrix>
            <feMerge>
                <feMergeNode in="shadowMatrixOuter1"></feMergeNode>
                <feMergeNode in="SourceGraphic"></feMergeNode>
            </feMerge>
        </filter>
        <filter x="-10.2%" y="-14.3%" width="120.3%" height="128.6%" filterUnits="objectBoundingBox" id="filter-30">
            <feOffset dx="0" dy="2" in="SourceAlpha" result="shadowOffsetOuter1"></feOffset>
            <feGaussianBlur stdDeviation="2" in="shadowOffsetOuter1" result="shadowBlurOuter1"></feGaussianBlur>
            <feColorMatrix values="0 0 0 0 0.352941176   0 0 0 0 0.650980392   0 0 0 0 1  0 0 0 0.28715035 0" type="matrix" in="shadowBlurOuter1" result="shadowMatrixOuter1"></feColorMatrix>
            <feMerge>
                <feMergeNode in="shadowMatrixOuter1"></feMergeNode>
                <feMergeNode in="SourceGraphic"></feMergeNode>
            </feMerge>
        </filter>
        <polygon id="path-31" points="0 0.270552834 62.9868784 0.270552834 62.9868784 37.9954017 0 37.9954017"></polygon>
        <polygon id="path-33" points="0.0668320899 0.0798418093 64.1415717 0.0798418093 64.1415717 31.845939 0.0668320899 31.845939"></polygon>
        <polygon id="path-35" points="0.0668320899 0.121842198 60.8587838 0.121842198 60.8587838 29.1124568 0.0668320899 29.1124568"></polygon>
        <polygon id="path-37" points="0 2.23005282 13.8612806 2.75865368 20.948314 10.3018339 16.6032899 18.3736149"></polygon>
        <filter x="-4.8%" y="-6.2%" width="109.5%" height="124.8%" filterUnits="objectBoundingBox" id="filter-38">
            <feOffset dx="0" dy="2" in="SourceAlpha" result="shadowOffsetOuter1"></feOffset>
            <feColorMatrix values="0 0 0 0 0.189070517   0 0 0 0 0.211083665   0 0 0 0 0.65868433  0 0 0 1 0" type="matrix" in="shadowOffsetOuter1"></feColorMatrix>
        </filter>
        <polygon id="path-39" points="27.9204788 1.78791687 20.948314 10.2317834 27.1342641 19.3052373 43.4749754 0.931622336"></polygon>
        <filter x="-4.4%" y="-5.4%" width="108.9%" height="121.8%" filterUnits="objectBoundingBox" id="filter-40">
            <feOffset dx="0" dy="2" in="SourceAlpha" result="shadowOffsetOuter1"></feOffset>
            <feColorMatrix values="0 0 0 0 0.189070517   0 0 0 0 0.211083665   0 0 0 0 0.65868433  0 0 0 1 0" type="matrix" in="shadowOffsetOuter1"></feColorMatrix>
        </filter>
        <path d="M16.2485856,31.6128376 L16.1380799,31.4914698 L16.1380799,31.4914698 C13.4127883,32.2490927 11.0629601,32.6299993 9.06610549,32.7020714 L8.57423245,32.7136947 C-5.47758569,32.8664601 -1.07473626,17.0834462 13.2124406,11.2328728 L13.2124406,11.2328728 L17.9321522,10.2171336 L26.4990514,12.0686904 L30.662234,21.9738344 L21.9117237,25.2930297 C25.704271,27.0078905 25.9862824,28.8158873 22.7577579,30.7170202 C20.3758745,32.1196043 18.5502396,32.627924 17.2808534,32.2419793 L17.2778464,32.2410631 L17.2389451,32.2288474 C17.2032516,32.2173273 17.1680065,32.2050863 17.1332099,32.1921243 L17.2778464,32.2410631 C17.2025078,32.2180573 17.1291312,32.1918972 17.0577168,32.1625827 C17.0214158,32.1476948 16.9849486,32.1316766 16.9490077,32.1148124 C16.9316726,32.1066745 16.91485,32.0985343 16.8981443,32.0902061 C16.846413,32.0644236 16.7955879,32.0367108 16.7458938,32.0071798 C16.7310921,31.9983824 16.7165304,31.9895108 16.7020671,31.980481 C16.6639572,31.9566939 16.6263231,31.9316612 16.5893801,31.9055175 C16.5747004,31.8951234 16.5606228,31.8849197 16.5466471,31.8745523 C16.5130347,31.8496272 16.4796926,31.8234915 16.4469512,31.7963904 C16.431386,31.7835094 16.4157665,31.7702445 16.400286,31.7567561 C16.362903,31.7241756 16.3265402,31.6904962 16.2909794,31.6555277 C16.285621,31.6502579 16.2804025,31.6450805 16.2752014,31.6398752 L16.2485856,31.6128376 L16.2485856,31.6128376 Z" id="path-41"></path>
        <filter x="-3.3%" y="-4.4%" width="113.0%" height="113.3%" filterUnits="objectBoundingBox" id="filter-42">
            <feOffset dx="2" dy="1" in="SourceAlpha" result="shadowOffsetOuter1"></feOffset>
            <feColorMatrix values="0 0 0 0 0.949473505   0 0 0 0 0.703834454   0 0 0 0 0.584736732  0 0 0 1 0" type="matrix" in="shadowOffsetOuter1"></feColorMatrix>
        </filter>
        <polygon id="path-43" points="9.20767605 1.452427e-14 1.61380778e-15 5.42491885 5.27156545 10.4401839 13.0190769 5.22009194 11.9135263 13.8917814 17.3101395 13.8917814 17.9642351 7.07508108"></polygon>
        <filter x="-5.6%" y="-7.2%" width="111.1%" height="128.8%" filterUnits="objectBoundingBox" id="filter-44">
            <feOffset dx="0" dy="2" in="SourceAlpha" result="shadowOffsetOuter1"></feOffset>
            <feColorMatrix values="0 0 0 0 0.189070517   0 0 0 0 0.211083665   0 0 0 0 0.65868433  0 0 0 1 0" type="matrix" in="shadowOffsetOuter1"></feColorMatrix>
        </filter>
        <path d="M75.3453295,4.05649163 C65.0022522,4.04205316 58.1737505,2.68988928 54.8598245,0 C30.1104265,3.39370018 13.1431623,10.2925598 3.95803181,20.6965787 C-9.81966389,36.3026071 16.5126479,90.8084559 29.5402452,111.744641 C48.6682728,112.141512 63.3748114,110.190419 73.659861,105.89136 C46.9980733,74.7671281 32.9510606,53.8108347 31.5188228,43.0224798 C30.086585,32.2341249 44.6954206,19.2454622 75.3453295,4.05649163 Z" id="path-45"></path>
        <polygon id="path-47" points="2.70449685 -2.42071167e-14 1.61380778e-15 10.9440641 5.31299154 10.9440641 7.33725514 2.88959435 13.3670878 10.9440641 21.3785994 10.4173596 19.3473092 -2.42071167e-14"></polygon>
        <filter x="-4.7%" y="-9.1%" width="109.4%" height="136.5%" filterUnits="objectBoundingBox" id="filter-48">
            <feOffset dx="0" dy="2" in="SourceAlpha" result="shadowOffsetOuter1"></feOffset>
            <feColorMatrix values="0 0 0 0 0.189070517   0 0 0 0 0.211083665   0 0 0 0 0.65868433  0 0 0 1 0" type="matrix" in="shadowOffsetOuter1"></feColorMatrix>
        </filter>
        <circle id="path-49" cx="14.5430446" cy="14.5430446" r="14.5430446"></circle>
        <filter x="-24.1%" y="-17.2%" width="148.1%" height="148.1%" filterUnits="objectBoundingBox" id="filter-50">
            <feOffset dx="0" dy="2" in="SourceAlpha" result="shadowOffsetOuter1"></feOffset>
            <feGaussianBlur stdDeviation="2" in="shadowOffsetOuter1" result="shadowBlurOuter1"></feGaussianBlur>
            <feColorMatrix values="0 0 0 0 0.22883003   0 0 0 0 0.569755915   0 0 0 0 1  0 0 0 0.166083916 0" type="matrix" in="shadowBlurOuter1"></feColorMatrix>
        </filter>
        <circle id="path-51" cx="16.589521" cy="16.589521" r="16.589521"></circle>
        <filter x="-21.1%" y="-15.1%" width="142.2%" height="142.2%" filterUnits="objectBoundingBox" id="filter-52">
            <feOffset dx="0" dy="2" in="SourceAlpha" result="shadowOffsetOuter1"></feOffset>
            <feGaussianBlur stdDeviation="2" in="shadowOffsetOuter1" result="shadowBlurOuter1"></feGaussianBlur>
            <feColorMatrix values="0 0 0 0 0.22883003   0 0 0 0 0.569755915   0 0 0 0 1  0 0 0 0.166083916 0" type="matrix" in="shadowBlurOuter1"></feColorMatrix>
        </filter>
    </defs>
    <g id="日文翻译" stroke="none" stroke-width="1" fill="none" fill-rule="evenodd">
        <g id="注册页插画" transform="translate(-82.000000, -119.000000)">
            <g id="注册/登录页插画" transform="translate(84.864594, 119.250000)">
                <g id="编组-18" transform="translate(0.000000, 107.750000)">
                    <path d="M206.716992,59.7785677 C146.571384,65.4427082 194.340131,140.585833 92.3558259,135.156772 C-9.62847902,129.727711 10.7790143,262.424606 111.308668,262.424606 C211.838322,262.424606 263.452575,235.376522 274.242411,166.744313 C281.969573,117.593229 266.8626,54.1144273 206.716992,59.7785677 Z" id="路径-28备份" fill="#FFFFFF" transform="translate(150.642281, 160.924606) scale(-1, 1) translate(-150.642281, -160.924606) "></path>
                    <g id="编组-32" transform="translate(55.915485, 5.294847)">
                        <rect id="矩形" stroke="#5AA6FF" fill="#FFFFFF" x="1.72714578e-14" y="3.45429157e-14" width="105.243928" height="175.028687" rx="15"></rect>
                        <rect id="矩形" fill="#E3EDFB" x="5.30287389" y="10.5307477" width="94.6381804" height="143.413754" rx="8"></rect>
                        <rect id="矩形" fill="#D2DBE8" x="37.7336718" y="3.88094786" width="29.7765846" height="2.4307416" rx="1.2153708"></rect>
                        <circle id="椭圆形" fill="#E3EDFB" cx="52.6219641" cy="163.684838" r="7.00575187"></circle>
                        <rect id="矩形" fill="#FFFFFF" x="10.4450059" y="85.0759559" width="85.0759559" height="64.1108096" rx="8"></rect>
                        <g id="编组-31" transform="translate(14.394961, 70.491506)" fill-rule="nonzero">
                            <ellipse id="椭圆形" fill="#FFE9B2" cx="14.1572842" cy="14.318139" rx="14.1572842" ry="14.318139"></ellipse>
                            <path d="M14.2043199,28.636278 C18.3566673,28.6385752 22.2974056,26.8118781 24.9689573,23.6464145 C22.8639405,19.6669971 18.7187746,17.1759014 14.2020688,17.1759014 C9.68536295,17.1759014 5.54019709,19.6669971 3.43518027,23.6464145 C6.10813082,26.8125772 10.0505355,28.6392827 14.2043199,28.636278 L14.2043199,28.636278 Z" id="路径" fill="#798AD0"></path>
                            <ellipse id="椭圆形" fill="#798AD0" cx="14.2020688" cy="12.2491324" rx="5.32446609" ry="5.38496258"></ellipse>
                        </g>
                        <g id="编组-5" transform="translate(21.991029, 14.384354)">
                            <g id="形状结合">
                                <use fill="black" fill-opacity="1" filter="url(#filter-2)" xlink:href="#path-1"></use>
                                <use fill="#FFFFFF" fill-rule="evenodd" xlink:href="#path-1"></use>
                            </g>
                            <rect id="矩形" fill="#BEDCFF" x="10.1315367" y="7.49771088" width="56.3225502" height="7.12514189" rx="3.56257094"></rect>
                            <rect id="矩形备份-49" fill="#BEDCFF" x="10.1074666" y="23.0604653" width="38.8893799" height="7.12514189" rx="3.56257094"></rect>
                            <rect id="矩形备份-50" fill="#BEDCFF" x="9.66303379" y="39.6143479" width="85.8248384" height="7.12514189" rx="3.56257094"></rect>
                        </g>
                        <rect id="矩形" fill="#E5F1FF" x="17.8301413" y="102.698832" width="29.1688992" height="6.07685399" rx="3.038427"></rect>
                        <rect id="矩形备份-43" fill="#E5F1FF" x="17.8301413" y="117.131361" width="72.0107198" height="6.07685399" rx="3.038427"></rect>
                        <rect id="矩形备份-44" fill="#E5F1FF" x="17.8301413" y="133.690788" width="72.0107198" height="6.07685399" rx="3.038427"></rect>
                    </g>
                    <g id="编组-39" transform="translate(161.294445, 69.191635)">
                        <path d="M11.715557,22.5894804 C6.14552897,25.0306153 2.32388519,31.2054493 4.72049746,37.9332467 C7.11710973,44.6610441 5.87188572,43.8767522 3.43414034,46.0161935 C0.996394973,48.1556349 0.212191252,54.4562516 4.72049746,55.4728141 C9.22880367,56.4893767 1.54754018,61.0218876 4.72049746,65.6939353 C7.89345474,70.3659829 51.8417877,60.5878532 51.4162851,55.4728141 C50.9907825,50.3577751 35.8081004,44.3441084 37.8531998,39.0023069 C40.4687361,32.4352855 32.1333715,32.4352855 31.7323693,30.3755424 C30.1003718,21.9928051 17.285585,20.1483456 11.715557,22.5894804 Z" id="路径-101" fill="#161944"></path>
                        <ellipse id="椭圆形" fill="#161944" cx="5.50921658" cy="23.5851259" rx="5.50921658" ry="5.14193547"></ellipse>
                        <g id="路径-130" transform="translate(112.388018, 194.003559)">
                            <mask id="mask-4" fill="white">
                                <use xlink:href="#path-3"></use>
                            </mask>
                            <g id="蒙版">
                                <use fill="black" fill-opacity="1" filter="url(#filter-5)" xlink:href="#path-3"></use>
                                <use fill="#FDDCCC" fill-rule="evenodd" xlink:href="#path-3"></use>
                            </g>
                            <path d="M24.3738435,4.71080681 C20.9538399,11.3941874 13.1892648,15.6837441 1.08011803,17.5794767 L-3.20536237,2.91637438 L14.7923669,-2.57096774 L24.3738435,4.71080681 Z" fill="#EAA583" mask="url(#mask-4)"></path>
                        </g>
                        <g id="路径-109" transform="translate(26.444240, 209.429365)">
                            <mask id="mask-7" fill="white">
                                <use xlink:href="#path-6"></use>
                            </mask>
                            <g id="蒙版">
                                <use fill="black" fill-opacity="1" filter="url(#filter-8)" xlink:href="#path-6"></use>
                                <use fill="#FDDCCC" fill-rule="evenodd" xlink:href="#path-6"></use>
                            </g>
                            <path d="M1.10476283,8.38903984 C7.68991933,11.4223287 15.0794158,12.9389731 23.2732523,12.9389731 C23.2702786,2.63570417 23.2687918,-2.51593029 23.2687918,-2.51593029 L3.18931274,-6.60334894 L1.10476283,8.38903984 Z" fill="#EAA583" mask="url(#mask-7)"></path>
                        </g>
                        <g id="路径-106" transform="translate(11.018433, 94.837660)">
                            <mask id="mask-10" fill="white">
                                <use xlink:href="#path-9"></use>
                            </mask>
                            <use id="蒙版" fill="#FFD97B" xlink:href="#path-9"></use>
                            <path d="M19.7127739,22.7337217 L33.2279038,20.028599 L35.0844942,22.7337217 C53.0720026,18.5080134 63.9355583,13.5374968 67.6751614,7.82217173 C59.5495909,-0.270894003 55.4868057,-4.31742687 55.4868057,-4.31742687 L18.15526,5.57648855 L19.7127739,22.7337217 Z" fill="#272C82" mask="url(#mask-10)"></path>
                        </g>
                        <g id="路径-123" transform="translate(66.845161, 67.658858)">
                            <mask id="mask-12" fill="white">
                                <use xlink:href="#path-11"></use>
                            </mask>
                            <g id="蒙版">
                                <use fill="black" fill-opacity="1" filter="url(#filter-13)" xlink:href="#path-11"></use>
                                <use fill="#FDDCCC" fill-rule="evenodd" xlink:href="#path-11"></use>
                            </g>
                            <path d="M20.2387933,-1.08869191 L1.55154495,-0.326838562 L3.52488144,7.97552022 C13.7409362,4.62242492 19.3122402,1.60102088 20.2387933,-1.08869191 Z" fill="#EAA583" mask="url(#mask-12)"></path>
                        </g>
                        <line x1="39.6663594" y1="106.590656" x2="91.8202763" y2="194.003559" id="路径-115" stroke="#4247B4"></line>
                        <g id="路径-124" transform="translate(16.160369, 47.825679)">
                            <mask id="mask-15" fill="white">
                                <use xlink:href="#path-14"></use>
                            </mask>
                            <use id="蒙版" fill="#7396FD" xlink:href="#path-14"></use>
                            <polygon fill="#5F86F3" style="mix-blend-mode: multiply;" mask="url(#mask-15)" points="21.5233278 41.2340194 66.5680011 43.457365 58.2904879 23.7808911"></polygon>
                            <path d="M-2.15818975,42.0609182 C-0.71816557,50.7721111 3.14734915,53.0748733 9.43835439,48.9692047 C18.8748623,42.8107018 26.1616124,36.6857833 28.3044464,47.8920736 C30.4472804,59.0983639 33.1457444,64.0393284 39.9716062,60.1297715 C46.7974679,56.2202147 47.217632,44.0867387 56.2103899,39.6306103 C62.2055619,36.659858 67.5971668,37.2664306 72.3852045,41.4503281" id="路径-103" stroke="#CFF4F0" mask="url(#mask-15)"></path>
                            <path d="M2.73695248,30.1577483 C2.9104915,41.5639475 6.06565821,43.919543 12.2024526,37.224535 C21.4076442,27.182023 17.7232268,17.7458717 33.6781084,28.6794215 C44.3146962,35.9684547 50.4440074,33.9838303 52.0660422,22.7255483" id="路径-125" stroke="#CFF4F0" mask="url(#mask-15)"></path>
                            <path d="M3.27399972,9.99833936 C2.84200797,21.7935288 6.82544904,25.3151555 15.224323,20.5632197 C27.8226338,13.4353159 25.3230776,7.28374297 36.9531556,15.2575761 C44.706541,20.5734649 49.2301807,19.7047252 50.5240747,12.6513572" id="路径-104" stroke="#CFF4F0" mask="url(#mask-15)"></path>
                        </g>
                        <g id="路径-100" transform="translate(18.364055, 39.745494)">
                            <mask id="mask-17" fill="white">
                                <use xlink:href="#path-16"></use>
                            </mask>
                            <g id="蒙版">
                                <use fill="black" fill-opacity="1" filter="url(#filter-18)" xlink:href="#path-16"></use>
                                <use fill="#FDDCCC" fill-rule="evenodd" xlink:href="#path-16"></use>
                            </g>
                            <g mask="url(#mask-17)" transform="translate(2.128418, -3.070975) rotate(8.000000) translate(-2.128418, 3.070975) ">
                                <use fill="black" fill-opacity="1" filter="url(#filter-20)" xlink:href="#path-19"></use>
                                <use fill="#EAA583" fill-rule="evenodd" xlink:href="#path-19"></use>
                            </g>
                        </g>
                        <g id="编组-14" transform="translate(75.180099, 47.426511) rotate(-20.000000) translate(-75.180099, -47.426511) translate(63.680099, 22.426511)">
                            <g id="编组-34" transform="translate(11.788754, 24.746295) scale(-1, 1) translate(-11.788754, -24.746295) translate(0.788754, 0.246295)">
                                <path d="M21.430551,2.03493844 C21.430551,2.03493844 16.232035,36.4178456 14.6897733,40.9394604 C10.0707525,54.4880707 -1.26787088,48.3910196 0.116282531,39.6145976 C1.83641607,28.7037137 14.8718802,2.24433272e-13 14.8718802,2.24433272e-13 L21.430551,2.03493844 Z" id="Fill-3" fill="#FDDCCC"></path>
                                <path d="M20.2223425,7.69594718 C20.3558602,7.7125666 20.4545004,7.82376773 20.4594315,7.95399112 L20.4575238,7.9979998 L17.0786648,35.1432175 C17.0601988,35.2915705 16.9249653,35.3968647 16.7766122,35.3783987 C16.6430945,35.3617793 16.5444544,35.2505782 16.5395233,35.1203548 L16.541431,35.0763461 L19.9202899,7.93112845 C19.9369093,7.79761071 20.0481104,7.69897061 20.1783338,7.69403949 L20.2223425,7.69594718 Z" id="Stroke-93" fill="#DD936F" fill-rule="nonzero"></path>
                            </g>
                        </g>
                        <g id="编组-14备份" transform="translate(62.741410, 51.969617) rotate(-20.000000) translate(-62.741410, -51.969617) translate(52.741410, 29.969617)">
                            <g id="编组-34" transform="translate(9.584339, 21.715146) scale(-1, 1) translate(-9.584339, -21.715146) translate(0.084339, 0.215146)">
                                <path d="M18.7202166,1.77757858 C18.7202166,1.77757858 14.17916,31.8120592 12.8319491,35.7618228 C8.79709848,47.5969323 -1.1075225,42.2709789 0.101576211,34.6045162 C1.60416345,25.0735381 12.9910248,1.96049064e-13 12.9910248,1.96049064e-13 L18.7202166,1.77757858 Z" id="Fill-3" fill="#FDDCCC"></path>
                                <path d="M17.664811,6.72263622 C17.7814426,6.73715376 17.8676077,6.83429122 17.8719151,6.94804519 L17.8702487,6.98648806 L14.9187161,30.6986341 C14.9025854,30.8282248 14.7844549,30.9202024 14.6548642,30.9040718 C14.5382325,30.8895543 14.4520675,30.7924168 14.44776,30.6786629 L14.4494265,30.64022 L17.4009591,6.92807397 C17.4154767,6.8114423 17.5126141,6.72527726 17.6263681,6.72096979 L17.664811,6.72263622 Z" id="Stroke-93" fill="#DD936F" fill-rule="nonzero"></path>
                            </g>
                        </g>
                        <g id="路径-100">
                            <use fill="black" fill-opacity="1" filter="url(#filter-22)" xlink:href="#path-21"></use>
                            <use fill="#FDDCCC" fill-rule="evenodd" xlink:href="#path-21"></use>
                        </g>
                        <path d="M70.8411642,63.2514852 C72.9892929,77.4073732 73.297032,84.2560967 71.7643817,83.7976557 C70.2317313,83.3392147 67.8574289,78.4260351 64.6414745,69.058117 L70.8411642,63.2514852 Z" id="路径-114" fill="#4247B4"></path>
                        <g id="路径-105">
                            <use fill="black" fill-opacity="1" filter="url(#filter-24)" xlink:href="#path-23"></use>
                            <use fill="#FDDCCC" fill-rule="evenodd" xlink:href="#path-23"></use>
                        </g>
                        <g id="路径-125" transform="translate(34.524424, 53.702176)">
                            <mask id="mask-26" fill="white">
                                <use xlink:href="#path-25"></use>
                            </mask>
                            <use id="蒙版" fill="#7396FD" xlink:href="#path-25"></use>
                            <path d="M-14.6912442,22.7039586 C-14.5146871,33.8737407 -11.3046479,36.1805116 -5.06112668,29.6242715 C4.30415519,19.7899114 0.555660974,10.5493439 16.7880188,21.2562732 C27.6095907,28.394226 33.8454987,26.4507371 35.4957427,15.4258064" stroke="#CFF4F0" mask="url(#mask-26)"></path>
                            <path d="M-14.3687236,3.59449627 C-14.8082282,15.1452059 -10.7555099,18.5938396 -2.21056864,13.9403975 C10.6068433,6.96023429 8.06381652,0.93616552 19.8961568,8.74472442 C27.7843836,13.9504304 32.3866953,13.0996972 33.7030918,6.19252483" id="路径-104" stroke="#CFF4F0" mask="url(#mask-26)"></path>
                        </g>
                        <path d="M34.5244239,61.4851804 L62.1209588,54.4367387 C65.6972869,67.9905009 68.9859995,78.124339 71.9870966,84.8382528 C68.1244062,85.3516157 56.9551862,86.7259189 38.4794367,88.9611626" id="路径-113" stroke="#272C82" stroke-linejoin="round"></path>
                        <g id="路径-112">
                            <use fill="black" fill-opacity="1" filter="url(#filter-28)" xlink:href="#path-27"></use>
                            <use fill="#CFF4F0" fill-rule="evenodd" xlink:href="#path-27"></use>
                        </g>
                        <path d="M18.5485171,42.6837433 C22.0074401,46.9202473 23.7369016,50.7417363 23.7369016,54.1482106 C23.7369016,59.257922 26.1599943,59.808134 26.4442396,63.8150711 C24.9207785,65.0280525 21.4928216,65.8196068 16.1603686,66.1897341 L16.5705936,45.2694524 L18.5485171,42.6837433 Z" id="路径-111" fill="#161944"></path>
                        <path d="M139.56682,186.657937 C132.220402,195.728533 121.691676,202.094739 107.980645,205.756554" id="路径-116" stroke="#4247B4"></path>
                        <line x1="91.8202763" y1="127.158398" x2="118.264516" y2="161.682821" id="路径-117" stroke="#4247B4"></line>
                        <line x1="69.78341" y1="155.071762" x2="61.7032257" y2="202.083743" id="路径-118" stroke="#4247B4"></line>
                        <path d="M10.2838709,196.207245 C20.7505801,205.828414 34.2175539,211.460057 50.6847925,213.102176" id="路径-119" stroke="#4247B4"></path>
                        <polyline id="路径-120" stroke="#4247B4" points="33.0552995 143.318766 33.0552995 152.934318 22.7714285 173.435817"></polyline>
                        <path d="M10.2838709,40.4800567 C12.1226013,39.5006404 14.3262879,39.5006404 16.8949308,40.4800567" id="路径-121" stroke="#EAA583" stroke-linecap="round" stroke-linejoin="round"></path>
                        <path d="M13.2221198,41.9491811 C13.947638,40.4800567 14.6822002,39.7454945 15.4258064,39.7454945" id="路径-122" stroke="#EAA583" stroke-linecap="round" stroke-linejoin="round"></path>
                        <path d="M63.9069123,57.3749875 C70.8716347,55.6113794 74.9758928,54.4904158 76.2196868,54.0120967 C78.0853778,53.2946179 78.222805,53.7229369 78.5981565,50.0293654" id="路径-102" stroke="#EAA583" stroke-linecap="round"></path>
                        <line x1="73.456221" y1="109.528904" x2="80.0672809" y2="118.343651" id="路径-126" stroke="#4247B4" stroke-linecap="round"></line>
                        <line x1="114.591705" y1="165.355632" x2="121.202765" y2="174.170379" id="路径-126备份" stroke="#4247B4" stroke-linecap="round"></line>
                        <line x1="78.5981565" y1="161.682821" x2="85.2092164" y2="170.497568" id="路径-126备份-2" stroke="#4247B4" stroke-linecap="round"></line>
                        <line x1="60.9686634" y1="135.973144" x2="67.5797233" y2="144.787891" id="路径-126备份-3" stroke="#4247B4" stroke-linecap="round"></line>
                        <line x1="36.7281105" y1="126.423835" x2="37.4626727" y2="133.769457" id="路径-127" stroke="#4247B4" stroke-linecap="round"></line>
                        <line x1="61.7032257" y1="174.170379" x2="59.499539" y2="182.985125" id="路径-128" stroke="#4247B4" stroke-linecap="round"></line>
                        <line x1="27.913364" y1="181.516001" x2="22.7714285" y2="191.799872" id="路径-129" stroke="#4247B4" stroke-linecap="round"></line>
                        <g id="编组-37" transform="translate(48.219253, 24.769888) rotate(-44.000000) translate(-48.219253, -24.769888) translate(31.719253, 6.769888)">
                            <g id="编组-33" transform="translate(16.297741, 18.035607) scale(-1, 1) rotate(16.000000) translate(-16.297741, -18.035607) translate(3.797741, 3.535607)">
                                <path d="M4.41007767,24.9078551 L-0.425519165,16.5327656 C-0.82556787,15.8396503 -0.588261831,14.9526702 0.105501727,14.5526214 L18.1290899,4.14681416 C18.8222051,3.746117 19.7085367,3.98407146 20.1092338,4.67718679 L24.9448306,13.0522763 C25.3448793,13.7453916 25.1075733,14.6323718 24.4138097,15.0324206 L6.39022151,25.4382278 C5.69710633,25.8389249 4.81012638,25.6009705 4.41007767,24.9078551" id="Fill-17" fill="#597EF7" transform="translate(12.259656, 14.792521) rotate(84.000000) translate(-12.259656, -14.792521) "></path>
                                <path d="M4.62539775,24.3346558 L-0.210199087,15.9595681 C-0.610247793,15.2664529 -0.372941753,14.3794729 0.320173427,13.9794242 L18.34441,3.57361925 C19.0375252,3.17292216 19.9238568,3.41087658 20.3245538,4.10399176 L25.1595023,12.4790795 C25.5601994,13.1728431 25.322245,14.0591746 24.6291298,14.4592233 L6.60554159,24.8650283 C5.91177803,25.2657254 5.02544645,25.027771 4.62539775,24.3346558" id="Fill-19" fill="#E4EBF7" transform="translate(12.474796, 14.219324) rotate(84.000000) translate(-12.474796, -14.219324) "></path>
                                <polygon id="Fill-21" fill="#253368" transform="translate(12.541574, 14.273472) rotate(84.000000) translate(-12.541574, -14.273472) " points="7.18662756 23.7663622 1.68060874 14.1431485 17.8965214 4.78058234 23.4025403 14.4037961"></polygon>
                            </g>
                            <g id="编组-38" transform="translate(23.606330, 23.717348) rotate(-9.000000) translate(-23.606330, -23.717348) translate(16.606330, 13.717348)">
                                <g id="编组-35" transform="translate(6.744667, 10.000000) scale(-1, 1) translate(-6.744667, -10.000000) translate(0.244667, 0.000000)" fill="#FDDCCC">
                                    <path d="M9.21136335,10.9848864 C11.190962,9.50327377 8.86120356,6.5082426 8.88763007,6.46825141 C8.93921187,6.38999214 11.6573013,2.34752837 11.4627324,1.25861843 C11.2681635,0.169708487 10.8117794,-0.13053122 10.1930412,0.0741152793 C9.99146112,0.140787533 6.49523478,5.10588058 6.33351426,5.19588058 C5.72152568,5.5364618 5.02931287,2.8039154 3.92615327,1.13749493 C3.08135548,1.43342478 3.74796612,1.2333573 1.7088811,3.59166884 C-1.2113238,6.96849753 2.70790025,15.1782713 3.92615327,18.0575451 C5.12909778,20.9006382 9.4822417,18.1287348 12.4735377,18.5682694 C12.4735377,18.5682694 9.51334554,11.7767579 9.21136335,10.9848864 Z" id="Fill-5"></path>
                                </g>
                                <g id="编组-36" transform="translate(0.563231, 6.114886)" stroke="#EAA583" stroke-linecap="round" stroke-linejoin="round">
                                    <path d="M1.87080728,0.541663867 C1.47777587,3.86836168 2.4305894,5.48820762 4.72924788,5.4012017 C4.24872352,6.61038945 4.0354761,7.81914059 4.08950561,9.02745512" id="路径-2" transform="translate(3.256986, 4.784559) rotate(25.000000) translate(-3.256986, -4.784559) "></path>
                                </g>
                            </g>
                        </g>
                    </g>
                    <path d="M463.13185,182.386423 C389.053007,169.312686 439.702473,332.817 332.702453,297.432356 C225.702432,262.047713 193.973886,438.569623 292.717128,464.702004 C391.460371,490.834386 509.341267,475.931518 537.868936,393.439927 C558.299078,334.363421 537.210694,195.460161 463.13185,182.386423 Z" id="路径-28" fill="#FFFFFF"></path>
                    <g id="编组-17" filter="url(#filter-29)" transform="translate(327.191641, 127.987469)">
                        <g id="编组-11">
                            <g id="编组-27">
                                <g id="分组-2-copy-2" transform="translate(0.000000, 0.000000)">
                                    <path d="M152.76639,14.7116801 L0.153328455,14.7116801 L0.153328455,4.16224975 C0.153328455,1.87383486 2.01189242,0.0184473204 4.30422507,0.0184473204 L148.615493,0.0184473204 C150.907999,0.0184473204 152.76639,1.87383486 152.76639,4.16224975 L152.76639,14.7116801 Z" id="Fill-1" fill="#7485C8"></path>
                                    <path d="M10.8546626,6.9170422 C10.8546626,8.35321506 9.69550816,9.51762354 8.2656437,9.51762354 C6.83595112,9.51762354 5.67696854,8.35321506 5.67696854,6.9170422 C5.67696854,5.48086934 6.83595112,4.31646086 8.2656437,4.31646086 C9.69550816,4.31646086 10.8546626,5.48086934 10.8546626,6.9170422" id="Fill-5" fill="#FF7946"></path>
                                    <path d="M20.5206804,6.9170422 C20.5206804,8.35321506 19.3616978,9.51762354 17.9318334,9.51762354 C16.5021408,9.51762354 15.3431582,8.35321506 15.3431582,6.9170422 C15.3431582,5.48086934 16.5021408,4.31646086 17.9318334,4.31646086 C19.3616978,4.31646086 20.5206804,5.48086934 20.5206804,6.9170422" id="Fill-7" fill="#FFC53D"></path>
                                    <path d="M30.1868701,6.9170422 C30.1868701,8.35321506 29.0278875,9.51762354 27.598023,9.51762354 C26.1683305,9.51762354 25.0093479,8.35321506 25.0093479,6.9170422 C25.0093479,5.48086934 26.1683305,4.31646086 27.598023,4.31646086 C29.0278875,4.31646086 30.1868701,5.48086934 30.1868701,6.9170422" id="Fill-9" fill="#BAE637"></path>
                                </g>
                                <path d="M4.7760088,106.626694 C2.22319053,106.626694 0.153431582,104.94463 0.153431582,102.869641 L0.153431582,13.4118605 L152.774425,13.4118605 L152.774425,102.869641 C152.774425,104.94463 150.704859,106.626694 148.151848,106.626694 L4.7760088,106.626694 Z" id="Fill-3-Copy-2" fill="#DAE8FF"></path>
                            </g>
                            <rect id="矩形" fill="#FFFFFF" x="13.9134277" y="22.3051653" width="125.585451" height="77.7388111" rx="7"></rect>
                        </g>
                        <rect id="矩形" fill="#ADD2FF" x="69.6234716" y="26.2111893" width="13.9246943" height="13.9246943" rx="3"></rect>
                        <rect id="矩形备份-4" fill="#ADD2FF" x="54.3811033" y="50.3746295" width="13.9246943" height="13.9246943" rx="3"></rect>
                        <rect id="矩形备份-39" fill="#ADD2FF" x="54.3811033" y="72.7777632" width="13.9246943" height="13.9246943" rx="3"></rect>
                        <rect id="矩形备份-46" fill="#ADD2FF" x="26.5990791" y="72.7777632" width="13.9246943" height="13.9246943" rx="3"></rect>
                        <rect id="矩形备份-11" fill="#ADD2FF" x="85.841645" y="50.3746295" width="13.9246943" height="13.9246943" rx="3"></rect>
                        <rect id="矩形备份-45" fill="#ADD2FF" x="85.841645" y="72.7777632" width="13.9246943" height="13.9246943" rx="3"></rect>
                        <line x1="76.384534" y1="41.4759089" x2="76.384534" y2="47.7952234" id="路径-30" stroke="#ADD2FF" stroke-linecap="round"></line>
                        <polyline id="路径-32" stroke="#ADD2FF" stroke-linecap="round" stroke-linejoin="round" points="91.2974054 49.6556359 91.2974054 47.7952234 61.4716627 47.7952234 61.4716627 49.6556359"></polyline>
                        <polyline id="路径-32备份" stroke="#ADD2FF" stroke-linecap="round" stroke-linejoin="round" points="115.547315 71.9586635 115.547315 68.2780807 33.5614263 68.2780807 33.5614263 71.9586635"></polyline>
                        <line x1="60.9229065" y1="65.1184234" x2="60.9229065" y2="71.437738" id="路径-30备份" stroke="#ADD2FF" stroke-linecap="round"></line>
                        <line x1="92.8039922" y1="65.1184234" x2="92.8039922" y2="71.437738" id="路径-30备份-2" stroke="#ADD2FF" stroke-linecap="round"></line>
                    </g>
                    <g id="编组-15" filter="url(#filter-30)" transform="translate(465.964824, 192.900617)">
                        <g id="编组-13" transform="translate(0.022621, 8.037818)">
                            <path d="M0.294304092,0 L116.840591,0 L116.840591,67.9633798 C116.840591,71.8293731 113.706585,74.9633798 109.840591,74.9633798 L7.29430409,74.9633798 C3.42831084,74.9633798 0.294304092,71.8293731 0.294304092,67.9633798 L0.294304092,0 L0.294304092,0 Z" id="矩形" fill="#E5F1FF"></path>
                            <path d="M16.9741842,10.3349551 L9.09980637,10.3349551 C8.49045939,10.3349551 7.99657711,9.85341989 7.99657711,9.25930658 C7.99657711,8.66541314 8.49045939,8.18387792 9.09980637,8.18387792 L16.9741842,8.18387792 C17.5835312,8.18387792 18.0774134,8.66541314 18.0774134,9.25930658 C18.0774134,9.85341989 17.5835312,10.3349551 16.9741842,10.3349551" id="Fill-34" fill="#FFFFFF"></path>
                            <path d="M17.1016464,15.4965289 L9.22704308,15.4965289 C8.61792161,15.4965289 8.12403933,15.0149937 8.12403933,14.4208804 C8.12403933,13.8269869 8.61792161,13.3454517 9.22704308,13.3454517 L17.1016464,13.3454517 C17.7109934,13.3454517 18.2048757,13.8269869 18.2048757,14.4208804 C18.2048757,15.0149937 17.7109934,15.4965289 17.1016464,15.4965289" id="Fill-36" fill="#FFFFFF"></path>
                            <path d="M2.23489593,51.0015843 C7.39943555,51.0015843 9.68819691,48.1941161 12.1463182,45.0497516 L12.4828523,44.6191184 C15.5262545,40.7288026 19.0332274,36.5001985 28.6327579,36.5001985 C37.8142381,36.5001985 42.0066794,39.9583176 45.8245719,43.3024328 L46.3102834,43.7284466 C49.7009986,46.7023544 52.949422,49.4638402 59.3484496,49.4638402 C66.388755,49.4638402 69.6760402,40.1553676 72.8894658,30.846895 L73.2749578,29.7304741 C76.3598251,20.8086382 79.5122519,12.2299499 85.9873242,12.2299499 C100.226488,12.2299499 97.0123535,45.9691452 114.74893,45.9691452 L114.74893,64.488042 L114.747896,64.5119499 L114.748885,65.8308234 C114.748885,70.2491014 111.167163,73.8308234 106.748885,73.8308234 L10.2348959,73.8308234 C5.81661794,73.8308234 2.23489593,70.2491014 2.23489593,65.8308234 L2.23489593,51.0015843 Z" id="形状结合" fill-opacity="0.399311626" fill="#5AA6FF"></path>
                            <path d="M28.7931707,19.8574753 C30.8827129,19.8574753 32.5685676,21.1238853 34.0213497,23.5277523 C35.1363025,25.3726251 36.0914525,27.7769264 37.295662,31.5340578 L37.4581377,32.0469863 C37.7407694,32.9612799 39.429593,38.4460733 40.0605023,40.3617722 L40.1005415,40.4828236 C42.1322055,46.5960414 44.1201182,50.877833 46.7219891,54.1306357 C49.8991613,58.1026676 53.8216016,60.1794272 58.8528123,60.1794272 C61.9415409,60.1794272 64.6852132,59.3348479 67.3248398,57.7095604 L67.5570674,57.5646129 C69.5225265,56.3210843 71.283328,54.7767782 73.7162013,52.3073954 L74.7641511,51.2336588 L75.4833628,50.4936454 C76.0917277,49.8692867 76.5579098,49.3984304 77.0077934,48.9573299 L77.0919863,48.874942 C80.688644,45.3623056 83.4309584,43.7427368 86.7729139,43.7427368 C90.2764511,43.7427368 93.3375446,45.5150745 97.5305323,49.3486557 L97.8221044,49.6166215 C98.052051,49.8290123 98.2908344,50.0519898 98.5485618,50.2947657 L100.777291,52.4162341 C103.543014,55.0408316 105.237355,56.4779589 107.171971,57.7156897 C109.663821,59.3099285 112.068559,60.1456327 114.594149,60.1784232 L114.74893,60.1794272 L114.74893,61.5475637 C111.892264,61.5475637 109.202,60.6292722 106.459756,58.8748355 L106.254724,58.7424022 C104.281102,57.4553469 102.53491,55.9580422 99.7235508,53.2844499 L98.0974738,51.7336511 C97.5777566,51.2401651 97.1434542,50.8331997 96.7307209,50.4545249 L96.6358286,50.3676142 C92.6701066,46.7418184 89.8532196,45.1108734 86.7729139,45.1108734 C83.899119,45.1108734 81.4487588,46.5373207 78.1419082,49.7437602 L78.0190383,49.8633318 C77.6345572,50.238831 77.2419948,50.632625 76.7583863,51.1263343 L74.8074164,53.1292347 L74.5133369,53.427711 C71.9912972,55.9772955 70.1496808,57.5681407 68.0175256,58.8809648 C65.1766921,60.6301406 62.1963815,61.5475637 58.8528123,61.5475637 C53.4001998,61.5475637 49.104953,59.2734196 45.6833018,54.9957453 C42.9930459,51.6324455 40.9636799,47.2933576 38.9128568,41.1681771 L38.7241394,40.5977182 C37.9900385,38.3449318 36.1934335,32.4998374 36.1434389,32.3422794 L35.9930276,31.8717369 C33.5475991,24.2790539 31.6452043,21.2256119 28.7931707,21.2256119 C26.9289792,21.2256119 25.3686276,22.4950788 23.9227078,25.0985174 L23.8560536,25.2196236 C22.6703014,27.3935184 21.6768279,30.1461161 20.2949417,34.8015543 L18.7002269,40.2641052 C18.6253244,40.5189237 18.5608693,40.7371597 18.5117943,40.9016965 L18.3069769,41.583665 C16.4514152,47.7180806 14.8748177,51.708002 12.7996649,54.9382236 C10.0569123,59.2076437 6.67158716,61.500967 2.36695776,61.5468611 L2.23489593,61.5475637 L2.23489593,60.1794272 C6.10105529,60.1794272 9.13618512,58.145355 11.6783604,54.1881574 L11.8230903,53.9601871 C13.7664007,50.862769 15.2885292,46.9521654 17.0947998,40.9516656 L17.2947868,40.2822178 L18.8383112,34.992249 C20.3385357,29.8874756 21.3878542,26.9315188 22.6845348,24.5542539 C24.3612202,21.4803084 26.3198004,19.8574753 28.7931707,19.8574753 Z" id="Stroke-40" fill="#FFFFFF" fill-rule="nonzero"></path>
                        </g>
                        <g id="分组-2-copy-2">
                            <path d="M116.899428,8.9162584 L0.410336512,8.9162584 L0.410336512,2.52260069 C0.410336512,1.13566878 1.54042838,0.0111803054 2.93296564,0.0111803054 L114.379006,0.0111803054 C115.771648,0.0111803054 116.899428,1.13566878 116.899428,2.52260069 L116.899428,8.9162584 Z" id="Fill-1" fill="#7485C8"></path>
                            <path d="M7.49909851,4.19218847 C7.49909851,5.06260492 6.79493991,5.76831404 5.92633145,5.76831404 C5.0578274,5.76831404 4.35377321,5.06260492 4.35377321,4.19218847 C4.35377321,3.32177202 5.0578274,2.6160629 5.92633145,2.6160629 C6.79493991,2.6160629 7.49909851,3.32177202 7.49909851,4.19218847" id="Fill-5" fill="#FF7946"></path>
                            <path d="M13.3709731,4.19218847 C13.3709731,5.06260492 12.6669189,5.76831404 11.7983105,5.76831404 C10.9298064,5.76831404 10.2257522,5.06260492 10.2257522,4.19218847 C10.2257522,3.32177202 10.9298064,2.6160629 11.7983105,2.6160629 C12.6669189,2.6160629 13.3709731,3.32177202 13.3709731,4.19218847" id="Fill-7" fill="#FFC53D"></path>
                            <path d="M19.2429522,4.19218847 C19.2429522,5.06260492 18.538898,5.76831404 17.6702895,5.76831404 C16.8017855,5.76831404 16.0977313,5.06260492 16.0977313,4.19218847 C16.0977313,3.32177202 16.8017855,2.6160629 17.6702895,2.6160629 C18.538898,2.6160629 19.2429522,3.32177202 19.2429522,4.19218847" id="Fill-9" fill="#BAE637"></path>
                        </g>
                    </g>
                    <g id="编组-11" transform="translate(327.191641, 229.992668)">
                        <g id="编组" transform="translate(223.058609, 89.671640) scale(-1, 1) translate(-223.058609, -89.671640) translate(155.058609, 0.671640)">
                            <g transform="translate(0.000000, 104.435145)">
                                <mask id="mask-32" fill="white">
                                    <use xlink:href="#path-31"></use>
                                </mask>
                                <g id="Clip-2"></g>
                                <path d="M0.0667773768,37.9954017 C0.0667773768,37.9954017 -2.66887919,16.1275446 26.8762117,6.28700892 C56.4213026,-3.55352678 62.9868784,1.64008928 62.9868784,1.64008928 L60.2512218,10.3872321 C60.2512218,10.3872321 55.6006057,32.2550893 34.2624844,35.2619196 C12.9243632,38.26875 4.71739354,33.8951785 0.0667773768,37.9954017" id="Fill-1" fill="#58B284" mask="url(#mask-32)"></path>
                            </g>
                            <path d="M59.8191203,107.106622 L60.6833233,107.777329 L60.6117799,107.866928 C60.5805613,107.905354 60.5419622,107.952242 60.4959532,108.007299 L60.3593043,108.168797 C60.263283,108.28096 60.1574105,108.402047 60.0416429,108.53162 L59.9529611,108.630385 C59.3525857,109.295773 58.6280794,110.035674 57.7775604,110.831364 C55.353426,113.099225 52.4029764,115.365026 48.9113047,117.478558 C41.8993123,121.722964 33.6197093,124.808169 24.0278755,126.244875 L23.6720223,126.297332 C17.2158046,127.23378 12.0709956,129.376767 8.08574302,132.358646 C6.17394287,133.789109 4.65671242,135.319318 3.49377902,136.846404 C3.08898508,137.377952 2.75780175,137.869992 2.49527005,138.309548 L2.40955435,138.455505 C2.36922244,138.525427 2.33266224,138.590719 2.29979622,138.651177 L2.20811948,138.82636 L2.20263459,138.837705 L1.21370805,138.369639 L1.24388852,138.307881 C1.30650321,138.182948 1.40936882,137.994087 1.5556197,137.749219 C1.83877388,137.275135 2.19282756,136.749117 2.6229597,136.184296 C3.84552941,134.5789 5.43421417,132.976625 7.42984513,131.483438 C11.5019618,128.436565 16.7254786,126.241497 23.2311628,125.257307 L23.5148269,125.21528 C33.1088098,123.82374 41.368009,120.766193 48.344333,116.543378 C51.7688809,114.470476 54.6592545,112.250811 57.0296686,110.033207 C57.80207,109.310599 58.4659001,108.637077 59.0225887,108.027806 L59.1402397,107.898237 C59.3132936,107.706443 59.4642703,107.53356 59.5933084,107.381056 L59.7377584,107.207783 L59.8191203,107.106622 Z" id="Stroke-3" fill="#359061" fill-rule="nonzero"></path>
                            <path d="M59.4305249,157.191351 L62.9868784,157.191351 L62.9868784,106.075235 L59.4305249,106.075235 L60.3888253,121.781276 C60.6615703,126.250246 60.691389,130.73097 60.4785549,135.20322 L59.4305249,157.191351 Z" id="Fill-5" fill="#58B284"></path>
                            <g id="编组-2" transform="translate(4.656881, 58.045791)">
                                <path d="M1.86604886e-13,9.54179664 C1.86604886e-13,9.54179664 10.889281,-7.0036974 36.8320593,3.48002665 C62.7745641,13.9634774 64.0748216,22.3347664 64.0748216,22.3347664 L57.2589333,25.7261977 C57.2589333,25.7261977 41.3196303,37.9689175 24.9754502,27.593986 C8.6315436,17.2190546 5.57225886,9.44749151 1.86604886e-13,9.54179664" id="Fill-7" fill="#58B284"></path>
                                <path d="M60.5185228,113.359667 L63.2541794,113.359667 L64.3260096,23.1263282 C64.3391408,22.0135276 63.6054377,21.0292007 62.5344281,20.723324 L60.5185228,20.147926 C60.5185228,20.147926 61.2054462,28.5320624 61.0656541,39.0086794 C60.9318805,49.0309917 59.9713915,60.9566276 59.9713915,69.7893284 C59.9713915,94.7719884 60.5185228,113.359667 60.5185228,113.359667" id="Fill-9" fill="#58B284"></path>
                                <path d="M36.9918216,8.94070392 C48.797274,18.0956823 60.7920338,23.9748557 60.7920338,23.9748557 L57.2589333,25.7261977 C57.2589333,25.7261977 41.3196303,37.9689175 24.9754502,27.593986 C8.6315436,17.2190546 5.57225886,9.44749151 1.86604886e-13,9.54179664 C1.86604886e-13,9.54179664 18.6629227,-5.27340321 36.9918216,8.94070392 Z" id="Fill-11" fill="#7EC6A1"></path>
                            </g>
                            <g id="编组-2备份" transform="translate(110.679343, 138.818795) scale(-1, 1) translate(-110.679343, -138.818795) translate(88.679343, 100.318795)" fill="#58B284">
                                <path d="M0,6.4043807 C0,6.4043807 7.34565386,-4.70082796 24.8460444,2.33576719 C42.3462504,9.37217886 43.2233737,14.9909238 43.2233737,14.9909238 L38.6255351,17.2672265 C38.6255351,17.2672265 27.8732547,25.4844461 16.8478536,18.5208717 C5.82263712,11.5572973 3.7589153,6.34108381 0,6.4043807" id="Fill-7"></path>
                                <path d="M40.8657926,76.5374999 L42.7561698,76.5374999 L43.4968195,15.6763036 C43.5058934,14.9257343 42.9988942,14.2618188 42.2588115,14.0555091 L40.8657926,13.6674107 C40.8657926,13.6674107 41.3404663,19.3224001 41.243868,26.38874 C41.1514286,33.1486573 40.4877172,41.1923414 40.4877172,47.1498815 C40.4877172,64.000356 40.8657926,76.5374999 40.8657926,76.5374999" id="Fill-9"></path>
                            </g>
                            <g transform="translate(70.579939, 36.918136)">
                                <mask id="mask-34" fill="white">
                                    <use xlink:href="#path-33"></use>
                                </mask>
                                <g id="Clip-14"></g>
                                <path d="M64.1416537,9.62163845 C64.1416537,9.62163845 53.2523728,-6.92385559 27.3095944,3.55986846 C1.36708966,14.0433192 0.0668320899,22.4146082 0.0668320899,22.4146082 L6.88272042,25.8060395 C6.88272042,25.8060395 22.8220234,38.0487593 39.1662036,27.6738279 C55.5101101,17.2988964 58.5693949,9.52733332 64.1416537,9.62163845" id="Fill-13" fill="#58B284" mask="url(#mask-34)"></path>
                            </g>
                            <path d="M74.2030703,153.911172 L71.4674137,153.911172 L70.3955835,60.1243064 C70.3824523,59.0115058 71.1161554,58.0271789 72.187165,57.7213023 L74.2030703,57.1459043 C74.2030703,57.1459043 73.5161469,65.5300407 73.655939,76.0066577 C73.7897126,86.02897 74.7502016,97.9546058 74.7502016,106.787307 C74.7502016,131.769967 74.2030703,153.911172 74.2030703,153.911172" id="Fill-15" fill="#58B284"></path>
                            <g transform="translate(73.862727, 39.651619)">
                                <mask id="mask-36" fill="white">
                                    <use xlink:href="#path-35"></use>
                                </mask>
                                <g id="Clip-18"></g>
                                <path d="M60.8588659,6.88815631 C60.8588659,6.88815631 42.1959432,-7.92704354 23.8670442,6.28706359 C12.0615919,15.442042 0.0668320899,21.3212154 0.0668320899,21.3212154 L3.59993254,23.0725574 C3.59993254,23.0725574 19.5392355,35.3152772 35.8834157,24.9403457 C52.2273223,14.5654143 55.286607,6.79385118 60.8588659,6.88815631" id="Fill-17" fill="#7EC6A1" mask="url(#mask-36)"></path>
                            </g>
                            <path d="M79.1272521,153.091127 L83.7778683,153.091127 L85.6173238,94.9991649 L82.114042,40.1698868 C82.1271731,39.0570862 81.39347,38.0727593 80.3224605,37.7668826 L78.3065552,37.1914846 C78.3065552,37.1914846 82.6836057,80.7336684 82.6836057,89.5663692 C82.6836057,114.549029 79.1272521,153.091127 79.1272521,153.091127" id="Fill-19" fill="#58B284"></path>
                            <path d="M26.7923365,6.51388794 C26.7923365,6.51388794 36.7246848,-8.18431888 60.2513312,6.57648468 C83.9505976,21.4455341 82.3051002,40.9513893 82.3051002,40.9513893 L74.7317086,41.7389055 C74.7317086,41.7389055 55.5074292,47.6169855 43.8439574,32.1728114 C32.1804857,16.7286373 32.0434293,8.37866946 26.7923365,6.51388794" id="Fill-21" fill="#58B284"></path>
                            <path d="M26.7923365,6.51388794 C26.7923365,6.51388794 37.4843766,-1.36154745 46.5730484,9.85666325 C51.2236646,15.5969757 59.4514253,19.924898 62.9869878,23.2507257 C72.1714076,31.8912628 78.6551872,41.3368103 78.6551872,41.3368103 L74.7317086,41.7389055 C74.7317086,41.7389055 55.5074292,47.6169855 43.8439574,32.1728114 C32.1804857,16.7286373 32.0434293,8.37866946 26.7923365,6.51388794" id="Fill-23" fill="#7EC6A1"></path>
                        </g>
                        <path d="M233.917293,146.213973 L233.917293,246.143047 L114.315604,246.143047 L114.315604,212.929801 L154.175484,212.929801 L154.175484,179.571887 L194.035365,179.571887 L194.035365,146.213973 L233.917293,146.213973 Z" id="路径" stroke="#4247B4" fill="#7A9CFA"></path>
                        <rect id="矩形备份-40" stroke="#4247B4" fill="#A9C0FF" x="0.556562765" y="212.929801" width="113.614372" height="33.2132454"></rect>
                        <rect id="矩形备份-41" stroke="#4247B4" fill="#A9C0FF" x="40.7571261" y="179.571887" width="113.614372" height="33.2132454"></rect>
                        <rect id="矩形备份-42" stroke="#4247B4" fill="#A9C0FF" x="80.1023582" y="146.213973" width="113.614372" height="33.2132454"></rect>
                    </g>
                    <g id="编组-12" transform="translate(130.933638, 253.438610)">
                        <rect id="矩形" fill="#BBF2F2" x="0" y="0" width="60.4492849" height="60.4492849"></rect>
                        <rect id="矩形" stroke="#4247B4" stroke-width="2" fill="#B2EFEE" x="7.63569915" y="7.63569915" width="45.1778866" height="45.1778866"></rect>
                        <text id="知-蓝" font-family="lianmengqiyilushuaizhengruiheiti-Regular, lianmengqiyilushuaizhengruiheiti" font-size="15" font-weight="normal" line-spacing="23" fill="#4247B4">
                            <tspan x="22.2998378" y="19.2246425">知        </tspan>
                            <tspan x="22.2339198" y="42.2246425">蓝</tspan>
                        </text>
                    </g>
                    <g id="编组-28" transform="translate(295.189181, 223.056778)">
                        <path d="M152.148135,53.249464 C162.919718,51.4996748 169.534051,51.6875914 171.991135,53.8132137 C177.68065,58.735211 184.876187,88.4743365 186.003232,97.3154072 C186.255428,99.2937556 170.334482,100.830784 168.005982,99.5176394 C167.016752,98.9597683 168.005982,76.524204 164.377757,77.2472598 C162.030535,77.2472598 161.34402,86.2466446 162.318215,104.245414 C144.711936,108.267785 131.410028,107.769882 122.412489,102.751705 C124.491043,92.2341365 125.125635,85.1432139 124.316265,81.478937 C123.689415,77.6542974 116.512417,77.1213528 102.785271,79.8801033 C72.8149104,82.8860331 77.7362471,57.8072011 88.8315833,44.7901327 C96.2284741,36.1120871 99.9269195,31.7730643 99.9269195,31.7730643 L108.683478,38.8481454 C99.7957558,50.9615733 96.1143986,58.6274422 97.639407,61.8457521 C99.9269195,66.6732171 110.683062,53.6508855 125.316091,54.8768019 C135.071444,55.6940796 144.015459,55.1516336 152.148135,53.249464 Z" id="路径-8" fill="#7396FD"></path>
                        <g id="编组-3" transform="translate(146.371879, 61.563623) rotate(-1.000000) translate(-146.371879, -61.563623) translate(124.371879, 51.563623)">
                            <g id="路径-6">
                                <use fill="black" fill-opacity="1" filter="url(#filter-38)" xlink:href="#path-37"></use>
                                <use fill="#7396FD" fill-rule="evenodd" xlink:href="#path-37"></use>
                            </g>
                            <g id="路径-7">
                                <use fill="black" fill-opacity="1" filter="url(#filter-40)" xlink:href="#path-39"></use>
                                <use fill="#7396FD" fill-rule="evenodd" xlink:href="#path-39"></use>
                            </g>
                            <polyline id="路径-17" stroke="#1F346D" stroke-linecap="round" stroke-linejoin="round" points="21.3495858 10.3018339 27.1049875 19.3052373 42.9772537 0.455373326 37.333831 0.931622336"></polyline>
                            <polyline id="路径-18" stroke="#1F346D" stroke-linecap="round" stroke-linejoin="round" points="20.948314 10.4476697 16.6032899 18.3736149 0 2.23005282 11.1624616 2.72698962"></polyline>
                        </g>
                        <path d="M107.738288,38.8481454 C110.983206,34.6390746 113.981258,31.2972396 116.732445,28.8226403 C119.483632,26.3480411 122.892796,22.2189435 126.959937,16.4353475 C125.69876,14.0467269 122.945838,15.1986186 118.701171,19.8910224 C115.47296,23.5997122 114.665907,21.8718249 116.280012,14.7073604 C118.701171,3.96066363 119.252414,2.90967855 117.992429,2.43329186 C116.732445,1.95690517 113.959162,8.76255758 112.956684,12.8524166 C111.954206,16.9422757 113.959162,1.44937819 112.956684,0.143881049 C111.954206,-1.16161609 110.390402,6.70336112 109.53694,12.1385852 C108.683478,17.5738092 109.598023,1.48830356 108.294622,1.48830356 C106.991221,1.48830356 106.151031,9.34070488 106.151031,13.457257 C106.151031,17.5738092 105.464448,3.82741908 103.816707,3.82741908 C102.168966,3.82741908 103.226239,9.97832604 103.226239,14.169292 C103.226239,18.3602579 101.052335,27.3546569 99.7013609,31.7730643 C98.8007113,34.7186692 101.479687,37.0770296 107.738288,38.8481454 Z" id="路径-15" fill="#FCD1BD"></path>
                        <path d="M133.068354,38.8481454 C136.358828,47.4405992 137.835445,52.6189815 137.498206,54.3832923 C137.160968,56.1476031 139.757228,58.6265235 145.286987,61.8200533 C150.060489,57.3906219 152.371037,54.7103822 152.218633,53.7793342 C152.066229,52.8482861 149.501926,47.3211691 144.525723,37.1979831 L133.068354,38.8481454 Z" id="路径-5" fill="#FDDCCC"></path>
                        <g id="编组-25" transform="translate(132.550797, 25.281891) rotate(-64.000000) translate(-132.550797, -25.281891) translate(115.050797, 7.781891)">
                            <g id="形状结合">
                                <use fill="black" fill-opacity="1" filter="url(#filter-42)" xlink:href="#path-41"></use>
                                <use fill="#FDDCCC" fill-rule="evenodd" xlink:href="#path-41"></use>
                            </g>
                            <path d="M23.4867439,6.37002741 C20.2118812,0.707780824 17.1346004,-1.17963471 14.2549016,0.707780824 C9.93535344,3.53890412 12.7362537,9.90986868 18.1114988,16.3576794 C23.4867439,22.80549 21.6820175,24.0931842 20.1431115,26.8527715 C22.681561,24.677131 26.2633157,27.4755439 24.4851126,29.3040006 C22.7069094,31.1324574 19.3898627,32.366993 18.468187,32.366993 C17.8537366,32.366993 17.5152348,32.33848 17.4526818,32.281454 L18.5550481,34.8565726 C23.6529567,32.4705507 26.9452982,30.7103311 28.4320725,29.5759138 C30.662234,27.8742878 35.6900474,21.3158937 33.9296154,14.4245779 C32.755994,9.83036732 29.2750369,7.14551716 23.4867439,6.37002741 Z" id="路径-4" fill="#1F346D"></path>
                            <path d="M23.2180586,28.9791296 C21.8607257,28.3556943 20.5189605,28.1478825 19.192763,28.3556943 C20.0862272,29.0488971 20.5329593,29.6399276 20.5329593,30.1287859" id="路径-45" stroke="#EAA583" stroke-linecap="round" stroke-linejoin="round"></path>
                        </g>
                        <g id="编组-23" transform="translate(89.940808, 33.313082)">
                            <g id="路径-10">
                                <use fill="black" fill-opacity="1" filter="url(#filter-44)" xlink:href="#path-43"></use>
                                <use fill="#7396FD" fill-rule="evenodd" xlink:href="#path-43"></use>
                            </g>
                            <polyline id="路径-20" stroke="#1F346D" stroke-linecap="round" stroke-linejoin="round" points="12.2494419 2.62966093 9.20767605 6.6166119e-14 -2.23040019e-15 5.42491885 5.5187967 10.4343376 13.0190769 5.22009194 11.9135263 13.8917814 17.3101395 13.8917814 17.9642351 7.07508108 15.593896 5.22009194"></polyline>
                        </g>
                        <g id="编组-21" transform="translate(39.657999, 229.633616) rotate(-96.000000) translate(-39.657999, -229.633616) translate(12.657999, 193.133616)">
                            <g id="编组-4" transform="translate(36.603789, 26.465411)" stroke="#866921">
                                <path d="M-3.75210309e-13,12.2179425 C4.23817734,2.15456255 7.34584378,-1.69224599 9.32299934,0.677516874 C11.3001549,3.04727974 8.19248844,6.89408827 -3.75210309e-13,12.2179425 Z" id="路径-16"></path>
                                <path d="M3.30367153,16.0406078 C7.58202063,5.56460943 10.7191432,1.56007416 12.7150394,4.02700197 C14.7109355,6.49392978 11.5738129,10.498465 3.30367153,16.0406078 Z" id="路径-16备份" transform="translate(8.300383, 9.681157) rotate(35.000000) translate(-8.300383, -9.681157) "></path>
                            </g>
                            <path d="M44.6062709,47.115453 L25.8142737,72.2156515 C10.9731312,72.2176936 2.36837329,70.7638157 1.54925547e-13,67.8540178 C17.2468326,22.6180059 25.8702489,-1.29104622e-14 25.8702489,-1.29104622e-14 C32.05439,7.51560473 35.1464606,13.6935264 35.1464606,18.5337649 C35.1464606,25.7941227 34.1941357,40.5897229 40.4335057,44.4518959 C44.5930857,47.0266778 45.9840074,47.9145302 44.6062709,47.115453 Z" id="路径-12" fill="#1F346D"></path>
                        </g>
                        <g id="编组-20" transform="translate(112.447385, 228.061058) rotate(-90.000000) translate(-112.447385, -228.061058) translate(87.947385, 195.561058)">
                            <g id="编组-4备份" transform="translate(36.899432, 14.384141) rotate(-40.000000) translate(-36.899432, -14.384141) translate(28.899432, 5.384141)" stroke="#866921">
                                <path d="M-3.61809941e-13,11.8832043 C4.08681386,2.09553344 7.08349222,-1.64588309 8.99003507,0.658954768 C10.8965779,2.96379262 7.89989957,6.70520914 -3.61809941e-13,11.8832043 Z" id="路径-16"></path>
                                <path d="M3.19811472,15.5674709 C7.29443483,5.42386937 10.3124526,1.55226369 12.252168,3.9526538 C14.1918833,6.3530439 11.1738656,10.2246496 3.19811472,15.5674709 Z" id="路径-16备份" transform="translate(8.009734, 9.415562) rotate(35.000000) translate(-8.009734, -9.415562) "></path>
                            </g>
                            <path d="M35.2817373,21.5451633 C31.0711542,19.9839973 12.5048932,-2.31806154 0.153087262,0.742261545 L25.4850624,64.9572505 C34.2240197,62.850406 41.2244092,58.0307315 46.486231,50.4982271 L44.1212216,19.9839973 C41.0352875,22.065552 38.0887928,22.5859407 35.2817373,21.5451633 Z" id="路径-13" fill="#1F346D"></path>
                        </g>
                        <path d="M144.763892,68.0105682 C139.142968,81.7891347 154.265186,88.4282457 144.062689,100.764929" id="路径-21" stroke="#5357AE" stroke-linecap="round" stroke-linejoin="round"></path>
                        <g id="编组-5" transform="translate(167.025103, 74.375915) rotate(2.000000) translate(-167.025103, -74.375915) translate(162.525103, 63.375915)" stroke="#5357AE" stroke-linecap="round" stroke-linejoin="round">
                            <path d="M5.94936582,0 C1.98312194,7.679741 4.13134792e-13,14.9305103 4.13134792e-13,21.752308" id="路径-22"></path>
                            <path d="M8.84144664,4.1305165 C4.64507877,6.52712662 2.05787723,9.48295174 1.07984203,12.9979919" id="路径-23"></path>
                        </g>
                        <path d="M118.012343,73.3708799 C122.516892,75.1626708 124.769166,78.1204043 124.769166,82.2440805" id="路径-31" stroke="#5357AE" stroke-linecap="round" stroke-linejoin="round"></path>
                        <path d="M122.983232,137.063332 C126.054414,138.015206 128.157936,138.740815 129.293798,139.240159" id="路径-36" stroke="#866921" stroke-linecap="round"></path>
                        <path d="M106.841082,19.0933706 C108.186007,21.6579629 108.634316,24.3357425 108.186007,27.1267095" id="路径-43" stroke="#EAA583" stroke-linecap="round"></path>
                        <path d="M110.320738,27.1267095 C110.663903,24.9743285 111.63888,23.6354387 113.245671,23.11004" id="路径-44" stroke="#EAA583" stroke-linecap="round"></path>
                        <g id="路径-63" transform="translate(68.123407, 102.873406)">
                            <mask id="mask-46" fill="white">
                                <use xlink:href="#path-45"></use>
                            </mask>
                            <use id="蒙版" fill="#FCE2A4" xlink:href="#path-45"></use>
                            <path d="M31.4115273,18.0096168 C23.153828,20.3999116 17.5976884,23.6942035 14.7431083,27.8924923 C11.8885283,32.0907812 19.9889332,46.2174446 39.0443229,70.2724824 L50.8842962,80.9353815 L31.4115273,18.0096168 Z" fill="#DE8729" mask="url(#mask-46)"></path>
                        </g>
                        <path d="M143.468737,106.929898 C149.020762,106.929898 155.344004,106.022687 162.438464,104.208265 C163.840649,125.685098 161.024279,138.223473 153.989353,141.82339 C143.436965,147.223266 135.374844,146.833403 126.138515,145.997095 C116.902186,145.160787 90.9963701,196.205113 79.7057675,242.083512 C71.4134299,239.970809 59.9846946,230.705901 45.4195616,214.288788 C60.2391232,177.598711 74.3382325,145.381402 92.1814551,127.309971 C110.024678,109.238541 135.1407,106.929898 143.468737,106.929898 Z" id="路径-56" fill="#FCE2A4"></path>
                        <g id="编组-22" transform="translate(51.784102, 102.873406)" stroke="#866921" stroke-linecap="round">
                            <path d="M55.4180739,106.45186 C73.4432568,105.063732 85.3440734,102.819958 91.1205237,99.720536" id="路径-46"></path>
                            <path d="M1.02940454,111.415382 C14.7724078,125.670976 25.2745873,134.514969 32.5359431,137.947359" id="路径-58"></path>
                            <path d="M63.6305178,9.66493892 C45.801271,15.7707401 30.7161997,31.3068445 18.3753039,56.2732519" id="路径-59"></path>
                            <path d="M37.7682342,8.59475291 C18.7340553,16.7724827 12.0869928,29.4536804 17.8270467,46.638346" id="路径-60"></path>
                            <path d="M63.6305178,71.8382334 C69.1742194,80.0626594 74.3150681,87.2708227 79.0530636,93.4627231" id="路径-61"></path>
                            <path d="M82.9677359,43.6692941 C103.253429,43.6692941 112.59882,33.1514263 111.003911,12.1156905" id="路径-62"></path>
                            <path d="M9.38781066,70.3476003 C7.01206174,74.711916 3.88279151,81.5025895 -2.06567396e-13,90.7196211" id="路径-64"></path>
                            <path d="M54.0417657,2.87319998 L71.1991301,-1.89622414e-14 C76.1487872,3.49318885 82.7033866,4.84535273 90.8629284,4.05649163" id="路径-65" stroke-linejoin="round"></path>
                            <path d="M54.0119704,49.4724991 C50.5760809,54.6636212 47.548932,60.4101658 44.9305235,66.7121328" id="路径-66"></path>
                            <line x1="19.9721375" y1="36.3667526" x2="22.1105549" y2="43.6692941" id="路径-67"></line>
                            <path d="M93.1765914,37.3332954 C98.7102125,36.6889335 102.595637,33.7613686 104.832866,28.5506006" id="路径-68"></path>
                        </g>
                        <g id="编组-24" transform="translate(72.679441, 60.567873)">
                            <polygon id="Fill-99" fill="#253368" points="34.7667731 55.4180739 69.0454691 53.6528999 36.708084 39.9736926 8.17643713 44.2307932"></polygon>
                            <polygon id="Fill-101" fill="#4E5C93" points="34.8909888 53.6010879 59.960539 52.2490494 36.8967248 41.7906787 15.4443812 45.0346686"></polygon>
                            <polygon id="Fill-103" fill="#597EF7" points="69.7403732 55.8810904 69.9539621 54.5095809 34.5227346 55.7192704 34.9145548 57.2350599"></polygon>
                            <path d="M30.9031899,42.7854914 C30.9324923,42.7198883 30.9984452,42.6873475 31.060471,42.7030898 L31.0909689,42.7150549 L48.9802154,52.3995468 C49.0497367,52.4371828 49.0783816,52.5297382 49.0441954,52.6062751 C49.014893,52.6718782 48.9489401,52.704419 48.8869142,52.6886768 L48.8564164,52.6767116 L30.9671699,42.9922197 C30.8976486,42.9545838 30.8690037,42.8620284 30.9031899,42.7854914 Z" id="Stroke-105" fill="#BAC9E5" fill-rule="nonzero"></path>
                            <path d="M34.5359232,41.8809583 C34.563755,41.8136084 34.6281179,41.7792369 34.689341,41.7941033 L34.7195072,41.8057149 L54.4303941,52.3930139 C54.4993143,52.4300329 54.5288627,52.5237403 54.4963922,52.6023152 C54.4685604,52.6696651 54.4041975,52.7040366 54.3429745,52.6891703 L54.3128083,52.6775587 L34.6019213,42.0902596 C34.5330011,42.0532406 34.5034528,41.9595332 34.5359232,41.8809583 Z" id="Stroke-107" fill="#BAC9E5" fill-rule="nonzero"></path>
                            <path d="M30.9042277,45.5038436 C30.9346849,45.4427143 31.0017689,45.4131302 31.0642674,45.4287896 L31.0949438,45.440453 L46.2556402,53.327022 C46.3254364,53.3633298 46.3532119,53.4505775 46.3176785,53.521895 C46.2872214,53.5830243 46.2201374,53.6126084 46.1576388,53.596949 L46.1269624,53.5852856 L30.9662661,45.6987166 C30.8964698,45.6624088 30.8686943,45.5751611 30.9042277,45.5038436 Z" id="Stroke-109" fill="#BAC9E5" fill-rule="nonzero"></path>
                            <path d="M26.361765,45.503832 C26.3922243,45.4427091 26.4593094,45.4131302 26.5218074,45.4287905 L26.5524833,45.440454 L41.7131797,53.3270482 C41.7829746,53.3633555 41.8107471,53.4505966 41.7752111,53.5219066 C41.7447518,53.5830294 41.6776667,53.6126084 41.6151687,53.5969481 L41.5844928,53.5852846 L26.4237964,45.6986904 C26.3540015,45.6623831 26.326229,45.575142 26.361765,45.503832 Z" id="Stroke-111" fill="#BAC9E5" fill-rule="nonzero"></path>
                            <path d="M21.8192976,45.5038436 C21.8497547,45.4427143 21.9168387,45.4131302 21.9793373,45.4287896 L22.0100137,45.440453 L37.17071,53.327022 C37.2405063,53.3633298 37.2682818,53.4505775 37.2327484,53.521895 C37.2022912,53.5830243 37.1352072,53.6126084 37.0727087,53.596949 L37.0420323,53.5852856 L21.8813359,45.6987166 C21.8115397,45.6624088 21.7837642,45.5751611 21.8192976,45.5038436 Z" id="Stroke-113" fill="#BAC9E5" fill-rule="nonzero"></path>
                            <path d="M55.2746158,50.875653 C55.3524907,50.8728596 55.4167006,51.0029918 55.4180536,51.1663114 C55.4191742,51.3062996 55.3737493,51.4252327 55.3117067,51.4581158 L55.2794393,51.4670856 L34.6661926,52.2064845 C34.5883177,52.2092779 34.5241078,52.0791456 34.5227548,51.915826 C34.5216342,51.7758378 34.5670591,51.6569047 34.6291017,51.6240217 L34.6613692,51.6150519 L55.2746158,50.875653 Z" id="Stroke-115" fill="#BAC9E5" fill-rule="nonzero"></path>
                            <path d="M49.8236481,49.0586671 C49.9015256,49.0558712 49.9657396,49.1858572 49.9670954,49.348999 C49.9682183,49.4888348 49.9227938,49.6076417 49.8607497,49.6404934 L49.8284813,49.6494558 L29.2152442,50.3894983 C29.1373667,50.3922942 29.0731526,50.2623082 29.0717968,50.0991664 C29.070674,49.9593306 29.1160984,49.8405237 29.1781426,49.807672 L29.210411,49.7987096 L49.8236481,49.0586671 Z" id="Stroke-117" fill="#BAC9E5" fill-rule="nonzero"></path>
                            <path d="M43.4642066,46.3331879 C43.5420816,46.3303945 43.6062914,46.4605267 43.6076444,46.6238463 C43.608765,46.7638346 43.5633401,46.8827676 43.5012975,46.9156507 L43.4690301,46.9246205 L22.8557834,47.6640194 C22.7779085,47.6668128 22.7136987,47.5366806 22.7123457,47.373361 C22.711225,47.2333727 22.7566499,47.1144397 22.8186925,47.0815566 L22.85096,47.0725868 L43.4642066,46.3331879 Z" id="Stroke-119" fill="#BAC9E5" fill-rule="nonzero"></path>
                            <path d="M40.7387228,43.607709 C40.8165977,43.6049132 40.8808096,43.7348993 40.8821653,43.8980411 C40.8832881,44.0378769 40.8378651,44.1566837 40.775823,44.1895354 L40.7435557,44.1984977 L20.1303092,44.9385402 C20.0524343,44.941336 19.9882224,44.8113499 19.9868667,44.6482081 C19.9857439,44.5083723 20.0311669,44.3895655 20.093209,44.3567138 L20.1254763,44.3477515 L40.7387228,43.607709 Z" id="Stroke-121" fill="#BAC9E5" fill-rule="nonzero"></path>
                            <polygon id="Fill-123" fill="#597EF7" points="35.4312276 57.2350599 33.8505329 57.2052326 7.86367692 46.0439812 1.81698603 0 30.159055 8.74523547"></polygon>
                            <path d="M33.6142415,57.2350599 L6.3049793,45.5282309 C6.05627978,45.4217525 5.88094294,45.1928602 5.84572885,44.926302 L0.00679216162,0.86452684 C-0.0665705308,0.310404565 0.466776243,-0.131444569 1.00672566,0.0358786277 L27.7914446,8.3332259 C28.0848954,8.42449309 28.29618,8.67801309 28.3291932,8.98006405 L33.6142415,57.2350599 Z" id="Fill-125" fill="#253368"></path>
                        </g>
                        <path d="M114.224078,157.876409 C102.065892,179.378124 92.8600042,199.513707 86.6064158,218.28316" id="路径-57" stroke="#866921" stroke-linecap="round"></path>
                        <g id="编组-26" transform="translate(110.836148, 99.633072)">
                            <path d="M31.7026302,10.2335077 C27.8393584,13.0578974 15.3278242,11.9353836 15.3278242,11.9353836 L7.26399555,16.1620104 C6.00983758,16.7024465 5.66092191,15.9203078 5.02802767,15.9510864 C3.32124854,16.0343697 3.22820437,14.3605567 3.22820437,14.3605567 C2.62535564,14.1279066 1.70072913,14.594112 1.36053635,13.0922971 C1.36053635,13.0922971 0.161623363,13.070571 0.000734473793,11.7199333 C-0.0835868117,11.0065939 7.12055244,0.295638895 7.12055244,0.295638895 L18.7433209,0.0285892231 C18.7433209,0.0285892231 35.7141911,-0.497362842 37.8135004,2.9625146 C39.9118404,6.42239204 31.7026302,10.2335077 31.7026302,10.2335077" id="Fill-135" fill="#FDDCCC"></path>
                            <path d="M7.9891381,0 L27.8122307,0.544463118 C28.0112384,0.549929084 28.1682976,0.721836486 28.163161,0.928429048 C28.1582936,1.11436235 28.023687,1.26502239 27.8517364,1.28931038 L27.7931634,1.29260096 L8.17559677,0.753738674 L7.23719093,2.3177148 L6.29748777,3.89741191 C6.14199247,4.15999416 5.98733821,4.42178129 5.83394509,4.68210609 L4.50208424,6.96210677 C2.82976262,9.85601937 1.65994497,12.0354994 1.62709129,12.2891471 L1.62659239,12.3031905 C1.64865937,12.5085818 1.50615865,12.693655 1.30830812,12.716563 C1.11045758,12.7394711 0.932179217,12.5915391 0.910112237,12.3861478 C0.867173139,11.9864866 1.67823153,10.4178774 3.34420998,7.51302038 L4.31516745,5.83392737 C4.90308812,4.82455771 5.52450651,3.77067578 6.15261419,2.71484092 L7.67438249,0.175000086 C7.73246555,0.0790265152 7.8286751,0.0164380769 7.93516523,0.00271673638 L7.9891381,0 Z" id="Stroke-137" fill="#EAA583" fill-rule="nonzero"></path>
                            <path d="M13.0871579,1.85026585 C13.2785772,1.76628297 13.5048828,1.84672803 13.5926255,2.02994492 C13.6715939,2.19484012 13.6114131,2.3867823 13.4590426,2.4847453 L13.4049024,2.51375291 L9.14871192,4.3803134 L3.42350436,12.5571102 C3.3179908,12.7077888 3.11560153,12.7591075 2.94866516,12.6860607 L2.89451429,12.6570713 C2.73709002,12.5560791 2.68347385,12.3623623 2.75979085,12.2025793 L2.79007802,12.1507488 L8.57536869,3.88907012 C8.60477006,3.84708352 8.64285107,3.81155648 8.68705686,3.78456994 L8.73320964,3.76050731 L13.0871579,1.85026585 Z" id="Stroke-139" fill="#EAA583" fill-rule="nonzero"></path>
                            <path d="M14.0882547,7.29908352 C14.2446846,7.22278285 14.431559,7.29152163 14.5056505,7.45261586 C14.5723327,7.59760067 14.5249347,7.76798089 14.4007509,7.85623027 L14.3565635,7.88245735 L10.4072705,8.27303249 L5.10129695,14.8872587 C5.00592752,15.0115925 4.83960979,15.0442296 4.70843308,14.9723468 L4.66109626,14.9404663 C4.54036245,14.8422532 4.50867035,14.6709763 4.57847182,14.5358882 L4.6094292,14.4871399 L9.96127076,7.81381816 C9.98121266,7.78781977 10.0048616,7.76521712 10.0313341,7.74673435 L10.0730502,7.72219062 L14.0882547,7.29908352 Z" id="Stroke-141" fill="#EAA583" fill-rule="nonzero"></path>
                            <path d="M15.8152454,8.21582227 C15.9925633,8.12969438 16.2137179,8.1895253 16.3092079,8.34945836 C16.395149,8.49339811 16.3500121,8.66936425 16.2108605,8.76590531 L16.1610455,8.79499111 L11.7016024,10.9605418 L6.07886985,16.2515639 C5.95499324,16.3681293 5.75883944,16.3845644 5.61466652,16.298496 L5.56328097,16.2614109 C5.4340448,16.1496796 5.4158232,15.9727574 5.51124727,15.8427197 L5.55236358,15.7963721 L11.214039,10.4688486 L11.3043921,10.4068601 L15.8152454,8.21582227 Z" id="Stroke-143" fill="#EAA583" fill-rule="nonzero"></path>
                        </g>
                        <path d="M186.006196,97.3154072 C187.028348,104.710087 184.691282,108.941467 178.994999,110.009547 C173.298715,111.077627 159.127968,112.259948 136.482756,113.556509 L131.430316,99.3856358 C148.096317,96.3258828 159.976533,94.3571559 167.070966,93.4794552 L167.508336,91.1717065 L186.006196,97.3154072 Z" id="路径-11" fill="#7396FD"></path>
                        <g id="编组-19" transform="translate(139.974104, 105.419000) rotate(-105.000000) translate(-139.974104, -105.419000) translate(128.974104, 99.419000)">
                            <g id="路径-9">
                                <use fill="black" fill-opacity="1" filter="url(#filter-48)" xlink:href="#path-47"></use>
                                <use fill="#7396FD" fill-rule="evenodd" xlink:href="#path-47"></use>
                            </g>
                            <polyline id="路径-19" stroke="#1F346D" stroke-linecap="round" stroke-linejoin="round" points="5.2532056 1.61380778e-14 19.3473092 1.61380778e-14 21.3785994 10.4173596 13.3159025 10.9440641 7.25642283 3.25480963 5.2532056 11.294943 2.20718311e-15 10.9440641 1.40479712 4.94771474"></polyline>
                        </g>
                        <path d="M144.450389,96.9198649 C158.811053,95.3366054 166.351245,94.1898021 167.070966,93.4794552 C167.790687,92.7691082 167.790687,89.294577 167.070966,83.0558617" id="路径-24" stroke="#5357AE" stroke-linecap="round" stroke-linejoin="round"></path>
                        <path d="M173.522166,112.005955 C184.224505,111.547061 188.74914,106.514273 187.096071,96.9075933" id="路径-25" stroke="#5357AE" stroke-linecap="round" stroke-linejoin="round"></path>
                    </g>
                    <g id="编组-10" transform="translate(193.933638, 45.500000)">
                        <text id="叮～" transform="translate(23.229319, 23.208116) rotate(32.000000) translate(-23.229319, -23.208116) " font-family="PingFangSC-Regular, PingFang SC" font-size="12" font-weight="normal" fill="#FE6A71">
                            <tspan x="7.7293195" y="27.7081159">叮～</tspan>
                        </text>
                        <line x1="4.44065135" y1="0.650996644" x2="10.7714603" y2="18.4280852" id="路径-27" stroke="#FE6A71" stroke-linecap="round" transform="translate(7.606056, 9.539541) rotate(32.000000) translate(-7.606056, -9.539541) "></line>
                        <line x1="41.2970407" y1="15.4574022" x2="34.620979" y2="35.5765808" id="路径-27备份" stroke="#FE6A71" stroke-linecap="round" transform="translate(37.959010, 25.516991) rotate(32.000000) translate(-37.959010, -25.516991) "></line>
                        <line x1="36.3089297" y1="30.8642405" x2="30.6126485" y2="38.2722428" id="路径-27备份-2" stroke="#FE6A71" stroke-linecap="round" transform="translate(33.460789, 34.568242) rotate(32.000000) translate(-33.460789, -34.568242) "></line>
                    </g>
                    <g id="编组-7备份" transform="translate(491.828461, 38.375042) scale(-1, 1) translate(-491.828461, -38.375042) translate(465.328461, 12.875042)" fill="#D3D9EF">
                        <path d="M6.82696302,13.6457568 C10.5188464,13.6457568 13.5262608,16.5762569 13.6499674,20.2380184 L13.653926,20.4727198 C14.1256345,32.9393011 26.1630816,36.1868154 30.2627695,36.9326195 L30.1117833,36.9305771 C33.8822174,36.9305771 36.9387463,39.987106 36.9387463,43.7575401 C36.9387463,47.5279742 33.8822174,50.5845031 30.1117833,50.5845031 C27.0534685,50.5845031 24.4648555,48.573512 23.5961314,45.8017168 L23.5692771,45.830011 C20.1211867,28.9414049 9.60544914,27.4066528 6.84579426,27.2988343 L6.82696302,27.2996828 L6.82696302,27.2996828 C6.72312774,27.2996828 6.6198339,27.2973647 6.51713043,27.2927774 C6.29654951,27.290972 6.17677606,27.2996828 6.17677606,27.2996828 L6.17677606,27.2996828 L6.20756277,27.2719629 C2.72738977,26.958982 3.3696048e-14,24.0343655 3.3696048e-14,20.4727198 C3.3696048e-14,16.7022857 3.05652887,13.6457568 6.82696302,13.6457568 Z" id="形状结合"></path>
                        <path d="M51.4071129,1.37056404 C52.6087719,2.87364221 52.366752,5.06812171 50.8666666,6.27209684 C50.2038578,6.80403421 49.4063518,7.05360869 48.6189296,7.03683547 C40.5644184,8.06338866 39.2625506,13.0323103 39.0561548,14.3961652 C39.0557328,14.4016617 39.0551207,14.407339 39.0544947,14.413018 L39.0317005,14.5817566 C39.0201766,14.6860764 39.0180456,14.7430804 39.0180456,14.7430804 L39.0180456,14.7430804 L39.0058389,14.7255857 C38.6525614,16.4750108 37.0180201,17.6957613 35.2133412,17.4959425 C33.3029095,17.2845048 31.9254573,15.5612875 32.136474,13.6471256 C32.3405353,11.7968477 33.9543062,10.4452993 35.7872767,10.5483163 L35.9776194,10.5641767 C42.3237424,11.0242737 44.6421109,5.0888477 45.2480042,3.05240154 C45.3681165,2.20764075 45.7978048,1.40500131 46.5154208,0.829039527 C48.0155061,-0.374935605 50.2056162,-0.132432812 51.4071129,1.37056404 Z" id="形状结合"></path>
                        <path d="M49.1272436,0.0214225728 C51.0433284,0.233154125 52.4249966,1.95802143 52.2132651,3.8741065 C52.001615,5.79011017 50.2766665,7.17186002 48.3606631,6.96012847 C46.4444969,6.74847832 45.0628287,5.02352961 45.2745602,3.10744454 C45.4862103,1.19135947 47.2111588,-0.190308979 49.1272436,0.0214225728" id="Fill-9"></path>
                    </g>
                    <path d="M383.350366,118.009834 C383.350366,118.009834 353.79072,-42.9058446 191.933638,28.5503733" id="路径-29" stroke-opacity="0.5" stroke="#5AA6FF" stroke-width="4" stroke-dasharray="10"></path>
                    <g id="编组-16" transform="translate(286.642002, 0.875042)">
                        <g id="椭圆形">
                            <use fill="black" fill-opacity="1" filter="url(#filter-50)" xlink:href="#path-49"></use>
                            <use fill="#FFFFFF" fill-rule="evenodd" xlink:href="#path-49"></use>
                        </g>
                        <g id="bag-购物袋" transform="translate(14.945755, 14.803857) rotate(-12.000000) translate(-14.945755, -14.803857) translate(6.945755, 6.303857)" fill-rule="nonzero">
                            <rect id="矩形" fill="#000000" opacity="0" x="-1.43769805e-13" y="0.632306289" width="15.8076572" height="15.8076572"></rect>
                            <path d="M14.1238336,16.0649871 L1.1967986,16.0649871 C0.959235073,16.0649871 0.733703267,15.9627391 0.580178403,15.7853873 C0.426653539,15.6080355 0.360696418,15.3735727 0.399846888,15.1443492 L2.01572627,5.65975485 C2.08079765,5.27876592 2.41782733,4.99962708 2.81267797,4.99962708 L12.5079542,4.99962708 C12.9028049,4.99962708 13.2398346,5.27876592 13.3049059,5.65975485 L14.9207853,15.1443492 C14.9599358,15.3735727 14.8939787,15.6080355 14.7404538,15.7853873 C14.5869289,15.9627391 14.3613971,16.0649871 14.1238336,16.0649871 Z M10.8920749,4.20924422 L9.27619548,4.20924422 L9.27619548,3.41886136 C9.27619547,2.54582857 8.55274163,1.83809567 7.66031611,1.83809567 C6.76789058,1.83809567 6.04443675,2.54582857 6.04443673,3.41886136 L6.04443673,4.20924422 L4.42855735,4.20924422 L4.42855735,3.41886136 C4.42855735,1.67279576 5.87546503,0.257329914 7.66031611,0.257329914 C9.44516718,0.257329914 10.8920749,1.67279576 10.8920749,3.41886136 L10.8920749,4.20924422 Z" id="形状" fill="#FFD97B"></path>
                        </g>
                    </g>
                    <path d="M319.825299,381.532705 C319.826216,381.532705 352.152462,207.694574 228.483951,270.923316 C104.815439,334.152058 104.168692,215.240069 11.0042402,280.323369" id="路径-29备份" stroke-opacity="0.5" stroke="#5AA6FF" stroke-width="4" stroke-dasharray="10" transform="translate(167.320113, 319.305218) rotate(-150.000000) translate(-167.320113, -319.305218) "></path>
                    <g id="编组-16备份" transform="translate(83.733667, 314.766657)">
                        <g id="椭圆形">
                            <use fill="black" fill-opacity="1" filter="url(#filter-52)" xlink:href="#path-51"></use>
                            <use fill="#FFFFFF" fill-rule="evenodd" xlink:href="#path-51"></use>
                        </g>
                        <g id="vip" transform="translate(16.643411, 16.755378) rotate(27.000000) translate(-16.643411, -16.755378) translate(7.143411, 7.255378)" fill-rule="nonzero">
                            <rect id="矩形" fill="#000000" opacity="0" x="0" y="0" width="18.7533716" height="18.7533716"></rect>
                            <path d="M18.6172031,8.1175667 L14.3925271,1.96925762 C14.2470676,1.75727441 14.0055058,1.6305302 13.7473245,1.63072819 L5.00604706,1.63072819 C4.74789583,1.63072819 4.5063875,1.75736735 4.36084446,1.96925762 L0.136168411,8.1175667 C-0.0751752752,8.42515506 -0.0370821324,8.83830629 0.226639625,9.10257747 L8.82195438,17.7086813 C8.96883275,17.8553773 9.16845547,17.9380076 9.37668578,17.9380076 C9.58491608,17.9380076 9.7845388,17.8553773 9.93141717,17.7086813 L18.5267319,9.10257747 C18.7904537,8.83830629 18.8285468,8.42515506 18.6172031,8.1175667 Z" id="形状" fill="#5AA6FF"></path>
                            <path d="M12.6738896,5.82888268 C12.3059124,5.59228192 11.8247959,5.71249037 11.5994327,6.09563096 L9.3767405,9.86254403 L7.15386518,6.09563096 C6.92813587,5.71249037 6.44720246,5.59228192 6.07940832,5.82888268 C5.71216339,6.06414779 5.59737647,6.56539795 5.82347192,6.94872934 L8.71145233,11.8429306 C8.8533341,12.0837291 9.10542595,12.2304597 9.37655743,12.2304597 C9.6476889,12.2304597 9.89978076,12.0837291 10.0416625,11.8429306 L12.9296429,6.94872934 C13.1561045,6.56558876 13.0413176,6.0643386 12.6738896,5.82888268 L12.6738896,5.82888268 Z" id="路径" fill="#FFFFFF"></path>
                        </g>
                    </g>
                </g>
                <text id="企業に会員をもっと理解させ、成長が簡単に" font-family="PingFangSC-Semibold, PingFang SC" font-size="22" font-weight="500" line-spacing="34" fill="#88BFFF">
                    <tspan x="0.247738468" y="79">企業に会員をもっと理解させ、成長が簡単になりようにします</tspan>
                </text>
                <text id="知藍に通じて自分業務に属するポリシーのマ" font-family="PingFangSC-Regular, PingFang SC" font-size="18" font-weight="normal" line-spacing="28" fill="#1A447F" fill-opacity="0.65">
                    <tspan x="4.54747351e-13" y="19">知藍に通じて自分業務に属するポリシーのマーケティングシステムを構築し</tspan>
                    <tspan x="4.54747351e-13" y="47">会員運営の転換効果を高める。</tspan>
                </text>
            </g>
        </g>
    </g>
</svg>