<?xml version="1.0" encoding="UTF-8"?>
<svg width="161px" height="76px" viewBox="0 0 161 76" version="1.1" xmlns="http://www.w3.org/2000/svg" xmlns:xlink="http://www.w3.org/1999/xlink">
    <title>编组 46</title>
    <defs>
        <linearGradient x1="50%" y1="0%" x2="50%" y2="113.266603%" id="linearGradient-1">
            <stop stop-color="#5AA6FF" offset="0%"></stop>
            <stop stop-color="#277BF6" offset="24.2248701%"></stop>
            <stop stop-color="#0037A5" offset="100%"></stop>
        </linearGradient>
        <path d="M66.1273813,18.2250741 C70.8312859,23.7010207 71.6261679,33.5362752 70.2575182,36.1583302 C68.8888686,38.7803853 63.972906,42.4052546 50.1265823,44.8465823 C45.7903752,45.6111247 40.7778643,45.4120642 35.7671692,44.4187692 C34.104527,45.6414516 32.3304087,47.1653163 31.0453259,48.3387645 C29.1234926,50.093649 28.1676836,51.2365974 26.5919703,53.5513479 C25.1651509,51.3852527 26.0040381,47.7432375 29.1086321,42.6253022 C21.8273442,40.1310893 15.2267593,36.032773 11.5684823,30.8954295 C9.79645217,30.6338759 7.31730776,30.0505694 4.85689746,28.2704947 C0.768486461,25.3125829 0.0960908139,21.9008236 0.129524553,21.9588796 C2.45785137,26.0018994 5.77641815,25.5381422 7.67345517,24.9684282 C8.49366723,24.7221039 9.24922094,24.1578592 9.73291832,23.6783484 C11.5542529,21.8727781 11.614964,19.7556485 11.6581873,19.2659395 L11.6626678,19.2211647 C11.6907357,18.9823312 11.5938267,20.6149732 11.543673,22.3520417 L11.532208,22.7874617 C11.5236312,23.1504204 11.5177049,23.5115203 11.5159818,23.8547832 L11.5160311,24.2571144 C11.5182968,24.6488387 11.5275096,25.0056744 11.5463529,25.3000115 C11.6784692,27.3636976 11.9612268,29.5784299 12.3948033,30.5513248 C14.7046338,32.925529 17.1037999,33.693964 19.5919012,32.8563463 C24.3575066,31.2520082 61.4234766,12.7491275 66.1273813,18.2250741 Z M51.6455696,29.3670886 C50.2473804,29.3670886 49.1139241,30.5005449 49.1139241,31.8987342 C49.1139241,33.2969234 50.2473804,34.4303797 51.6455696,34.4303797 C53.0437589,34.4303797 54.1772152,33.2969234 54.1772152,31.8987342 C54.1772152,30.5005449 53.0437589,29.3670886 51.6455696,29.3670886 Z M52.6582278,30.3797468 C53.4971414,30.3797468 54.1772152,31.0598206 54.1772152,31.8987342 C54.1772152,32.7376477 53.4971414,33.4177215 52.6582278,33.4177215 C51.8193143,33.4177215 51.1392405,32.7376477 51.1392405,31.8987342 C51.1392405,31.0598206 51.8193143,30.3797468 52.6582278,30.3797468 Z" id="path-2"></path>
        <path d="M35.3722731,44.7125533 L35.7671692,44.4187692 C34.6754146,45.2216293 33.5355944,46.1543514 32.5177287,47.0324513 C33.3414333,46.2253858 34.2926668,45.4523991 35.3722731,44.7125533 Z M70.2575182,36.1583302 C68.8888686,38.7803853 63.972906,42.4052546 50.1265823,44.8465823 C45.8001765,45.6093966 40.8005208,45.4129592 35.8011468,44.4254925 C42.6160962,39.9475521 54.2462719,36.7124797 70.6906836,34.7202608 C70.5892223,35.3135659 70.4433031,35.8024041 70.2575182,36.1583302 Z" id="path-4"></path>
    </defs>
    <g id="SCRM_组件" stroke="none" stroke-width="1" fill="none" fill-rule="evenodd">
        <g id="编组-46" transform="translate(0.000000, 0.865404)">
            <path d="M96.1528129,51.5 L98.7972574,45.5111111 L100.197257,51.5 L106.847257,51.5 L104.086146,39.7555556 L101.325035,39.7555556 L101.986146,38.2777778 L107.975035,38.2777778 L108.51948,34.5833333 L103.61948,34.5833333 L105.875035,29.4111111 L108.480591,29.4111111 L109.025035,25.7166667 L100.080591,25.7166667 L101.208368,23.5 L93.8194796,23.5 L94.7528129,24.5888889 L91.1750352,31.6277778 L97.0861463,31.6277778 L98.2139241,29.4111111 L98.8750352,29.4111111 L96.5805907,34.5833333 L90.7861463,34.5833333 L90.2417018,38.2777778 L94.9472574,38.2777778 L89.1139241,51.5 L96.1528129,51.5 Z M120.886146,51.5 L124.61948,24.9777778 L109.841702,24.9777778 L111.125035,26.4555556 L107.586146,51.5 L120.886146,51.5 Z M115.51948,47.8833333 L114.041702,47.8833333 L116.725035,28.6722222 L118.202813,28.6722222 L115.51948,47.8833333 Z M141.186146,29.6833333 L141.341702,28.3611111 L147.291702,28.3611111 L147.097257,29.6833333 L153.747257,29.6833333 L153.902813,28.3611111 L159.852813,28.3611111 L160.31948,24.9388889 L154.408368,24.9388889 L154.602813,23.5 L146.475035,23.5 L147.71948,24.9388889 L141.847257,24.9388889 L142.041702,23.5 L133.913924,23.5 L135.158368,24.9388889 L129.286146,24.9388889 L128.81948,28.3611111 L134.730591,28.3611111 L134.536146,29.6833333 L141.186146,29.6833333 Z M156.702813,39.5222222 L154.758368,35.0111111 L158.063924,35.0111111 L158.491702,31.9777778 L150.752813,31.9777778 L151.336146,30.5 L145.463924,30.5 L142.002813,39.4833333 L147.913924,39.4833333 L149.236146,35.9833333 L150.791702,39.5222222 L156.702813,39.5222222 Z M139.660712,39.8659466 L139.838861,38.5503837 L136.166248,38.5503837 L136.371804,37.1388943 L139.784046,37.1388943 L140.359604,33.0551678 L136.947363,33.0551678 L137.139216,31.7807162 L140.770718,31.7807162 L140.948867,30.4925608 L128.816397,30.4925608 L129.172695,30.8762667 L127.911947,39.8659466 L139.660712,39.8659466 Z M134.355594,33.0551678 L131.561231,33.0551678 L131.765314,31.7807162 L134.575375,31.7807162 L134.355594,33.0551678 Z M136.600144,35.9329616 L131.036409,35.9329616 L131.25567,34.3844345 L136.819405,34.3844345 L136.600144,35.9329616 Z M133.476469,38.5503837 L130.666407,38.5503837 L130.901887,37.1388943 L133.711949,37.1388943 L133.476469,38.5503837 Z M157.402813,50.7611111 L157.830591,47.6111111 L156.236146,47.6111111 L157.247257,40.5722222 L127.808368,40.5722222 L126.797257,47.6111111 L125.397257,47.6111111 L124.96948,50.7611111 L157.402813,50.7611111 Z M135.313924,47.6111111 L132.708368,47.6111111 L133.213924,44.0722222 L135.780591,44.0722222 L135.313924,47.6111111 Z M142.81948,47.6111111 L140.330591,47.6111111 L140.797257,44.0722222 L143.286146,44.0722222 L142.81948,47.6111111 Z M150.402813,47.6111111 L147.991702,47.6111111 L148.458368,44.0722222 L150.908368,44.0722222 L150.402813,47.6111111 Z" id="知蓝平台备份" fill="#5AA6FF" fill-rule="nonzero"></path>
            <g id="logo-shape备份">
                <g id="logo-shape" transform="translate(1.687764, 1.687764)">
                    <mask id="mask-3" fill="white">
                        <use xlink:href="#path-2"></use>
                    </mask>
                    <use id="形状结合" fill="url(#linearGradient-1)" xlink:href="#path-2"></use>
                    <mask id="mask-5" fill="white">
                        <use xlink:href="#path-4"></use>
                    </mask>
                    <use id="形状结合" fill="#A7CBFF" xlink:href="#path-4"></use>
                    <rect id="矩形" x="0" y="0" width="70.8860759" height="70.8860759"></rect>
                </g>
                <rect id="矩形" x="0" y="0" width="74.2616034" height="74.2616034"></rect>
            </g>
        </g>
    </g>
</svg>