<?xml version="1.0" encoding="UTF-8"?>
<svg width="328px" height="326px" viewBox="0 0 328 326" version="1.1" xmlns="http://www.w3.org/2000/svg" xmlns:xlink="http://www.w3.org/1999/xlink">
    <title>编组 4</title>
    <defs>
        <linearGradient x1="50%" y1="0%" x2="50%" y2="113.266603%" id="linearGradient-1">
            <stop stop-color="#2980FF" offset="0%"></stop>
            <stop stop-color="#277BF6" offset="24.2248701%"></stop>
            <stop stop-color="#0037A5" offset="100%"></stop>
        </linearGradient>
        <path d="M304.760366,5.35064097 C326.43377,29.7545817 330.096216,73.5860841 323.790116,85.2714565 C317.484015,96.956829 294.833547,113.111314 231.03613,123.991262 C211.056175,127.398624 187.959898,126.511307 164.872103,122.084197 C157.211141,127.53599 149.038623,134.325763 143.118578,139.554418 C134.263665,147.375183 129.859742,152.468813 122.599588,162.784661 C116.025368,153.13116 119.890788,136.899917 134.195846,114.090934 C100.646808,102.976478 70.2346595,84.7123143 53.3788999,61.8177222 C45.2149786,60.6516388 33.7915681,58.0522507 22.4544857,50.1187635 C3.61699012,36.9366216 0.518903839,21.7318768 0.672950953,21.9906073 C11.4007976,40.008609 26.6912092,37.9418425 35.4318731,35.4028719 C39.2110286,34.3051104 42.6922686,31.7905143 44.920921,29.6535407 C53.6021578,21.3294191 53.6021578,11.5194033 53.8123087,9.78978874 C54.0224597,8.06017416 52.7120456,28.3543273 53.276384,36.8805962 C53.8852076,46.0789688 55.188329,55.9506952 57.1865673,60.2854368 C67.8305192,70.8649468 78.8836789,74.288456 90.346527,70.555933 C112.304219,63.4060877 283.086962,-19.0532997 304.760366,5.35064097 Z M238.034917,55.0058112 C231.592711,55.0058112 226.370272,60.0571389 226.370272,66.2882675 C226.370272,72.5193961 231.592711,77.5707238 238.034917,77.5707238 C244.477122,77.5707238 249.699561,72.5193961 249.699561,66.2882675 C249.699561,60.0571389 244.477122,55.0058112 238.034917,55.0058112 Z M242.700775,59.5187937 C246.566098,59.5187937 249.699561,62.5495904 249.699561,66.2882675 C249.699561,70.0269446 246.566098,73.0577413 242.700775,73.0577413 C238.835451,73.0577413 235.701988,70.0269446 235.701988,66.2882675 C235.701988,62.5495904 238.835451,59.5187937 242.700775,59.5187937 Z" id="path-2"></path>
    </defs>
    <g id="Symbols" stroke="none" stroke-width="1" fill="none" fill-rule="evenodd">
        <g id="logo-shape备份" transform="translate(-6.000000, -7.000000)">
            <g id="编组-4" transform="translate(6.000000, 7.000000)">
                <g id="logo-word" transform="translate(2.000000, 0.000000)">
                    <rect id="矩形" x="0" y="0" width="325.866459" height="325.866459"></rect>
                    <g id="编组-3" transform="translate(10.183327, 244.399844)">
                        <g id="知">
                            <path d="M13.6912027,0.814345204 C14.3902423,1.02943431 15.1564857,1.27140593 15.989956,1.54026732 C16.8234263,1.80912871 17.4014696,2.02421459 17.7241033,2.18553143 C18.5306875,2.56193737 19.0280736,3.005552 19.2162766,3.51638864 C19.4044795,4.02722528 19.3372652,4.766583 19.0146315,5.734484 C18.3693642,7.56274144 17.5896779,9.52540013 16.6755491,11.622519 L34.6920245,11.5641131 C37.0289603,11.5565373 38.9295626,13.4448566 38.9371385,15.7817925 L38.9371608,15.7955098 L26.201685,15.7955098 L26.3545107,24.124511 C26.3545107,25.7914516 26.327625,27.37771 26.2738527,28.8833338 C26.2200804,30.3889575 26.3092296,31.378065 26.201685,32.7761442 L35.7532918,32.7761442 C38.0267816,32.7761442 39.8828535,34.5633225 39.9932551,36.8094265 L39.9984504,37.0213028 L25.7092466,36.9491351 C25.4941575,38.5085311 25.2656287,40.0141323 25.0236535,41.4659838 C24.7816782,42.9178353 24.4724923,44.3427793 24.0960863,45.7408585 C24.0960863,45.7927823 24.0832475,45.8737068 24.0604111,45.976578 C32.4092889,51.0059038 36.9595053,54.826838 37.710952,57.4407354 C38.204544,59.1576887 37.7326498,60.6145201 36.2952694,61.8112296 L36.1023138,61.9658524 C34.7906467,62.978131 32.9067165,62.7354287 31.8944379,61.4237616 C31.7784542,61.2734748 31.6769972,61.1125183 31.5914319,60.9430576 C30.2987117,58.3828444 29.2096558,56.4229008 28.3242643,55.0632267 C27.3301425,53.5365783 25.6489948,51.3173386 23.2808211,48.4055077 C23.1446422,48.7850251 23.0475322,49.047837 23.0475322,49.047837 C21.4343638,53.6722529 19.0280905,57.8395419 15.82864,61.5498291 C12.6291895,65.2601162 8.42157188,68.8628048 3.20566096,72.3580028 C3.04434413,72.4655474 2.82925824,72.4521045 2.56039685,72.3176738 C2.29153547,72.1832431 2.04956385,71.995043 1.83447474,71.7530677 C1.61938563,71.5110925 1.48495695,71.2422351 1.43118467,70.9464876 C1.37741239,70.65074 1.4580696,70.3684398 1.67315871,70.0995784 C4.30800031,67.1421032 6.53951636,64.3056581 8.36777379,61.5901581 C10.1960312,58.874658 11.7150753,56.1995274 12.9249515,53.5646858 C14.1348278,50.9298442 15.0892714,48.2547135 15.788311,45.5392135 C16.4873506,42.8237134 16.9981796,39.9603826 17.3208132,36.9491351 L2.8533128,37.0213028 L2.8533128,32.7761442 L17.7113678,32.7761442 C17.8726847,29.9799857 17.8854193,27.4583914 17.8854193,24.285827 L17.7113678,15.7955098 L14.5274989,15.7955098 C13.0756474,18.5916683 11.8495201,20.7637481 10.1019211,23.2372728 C8.35432205,25.7107976 6.62019211,27.6734563 4.89947923,29.1253078 C4.63061784,29.3403969 4.36176049,29.4076112 4.0928991,29.3269528 C3.82403771,29.2462944 3.56862323,29.0984229 3.32664798,28.8833338 C3.08467273,28.6682446 2.90991545,28.4128302 2.80237089,28.1170826 C2.69482634,27.8213351 2.69482634,27.5390349 2.80237089,27.2701735 C5.00703427,22.6995299 6.70083561,18.4650266 7.88382572,14.5665364 C9.06681582,10.6680463 10.0347023,6.70240032 10.7875142,2.6694795 C11.0563756,1.05631118 12.0242621,0.437939261 13.6912027,0.814345204 Z M69.3375902,9.06268833 C70.5098584,9.06268833 71.4601695,10.0129994 71.4601695,11.1852676 L71.4601695,60.0045913 C71.4601695,61.1768595 70.5098584,62.1271706 69.3375902,62.1271706 L43.8666387,62.1271706 C42.6943705,62.1271706 41.7440594,61.1768595 41.7440594,60.0045913 L41.7440594,11.1852676 C41.7440594,10.0129994 42.6943705,9.06268833 43.8666387,9.06268833 L69.3375902,9.06268833 Z M63.0539067,12.187125 L49.7453345,12.187125 L49.7453345,58.2428505 L63.0539067,58.2428505 L63.0539067,12.187125 Z" id="形状结合" fill="#2980FF" fill-rule="nonzero"></path>
                            <rect id="矩形" x="0" y="0" width="73.5827488" height="73.5827488"></rect>
                        </g>
                        <g id="蓝" transform="translate(84.094570, 0.000000)">
                            <path d="M61.2010362,45.6467752 C62.3733044,45.6467752 63.3236155,46.5970863 63.3236155,47.7693545 L63.3236155,64.7499888 L68.6300638,64.7499888 C70.9213152,64.7499888 72.7886011,66.5652009 72.8722943,68.8359976 L72.8752223,68.9951474 L0.707526431,68.9951474 L0.707526431,64.7499888 L10.2591332,64.7499888 L10.2591332,47.7693545 C10.2591332,46.5970863 11.2094444,45.6467752 12.3817125,45.6467752 L61.2010362,45.6467752 Z M25.3379365,49.1829923 L17.9980573,49.1829923 L17.9980573,64.9919629 L25.3379365,64.9919629 L25.3379365,49.1829923 Z M40.0983529,49.1829923 L32.7584737,49.1829923 L32.7584737,64.9919629 L40.0983529,64.9919629 L40.0983529,49.1829923 Z M54.8587693,49.1829923 L47.5995481,49.1829923 L47.5995481,64.9919629 L54.8587693,64.9919629 L54.8587693,49.1829923 Z M51.2222577,29.0584035 C57.7400385,33.0957258 61.3555367,36.1848213 62.0687523,38.3256901 L62.1111516,38.4639676 L62.1111516,38.4639676 C62.5355443,39.9819028 61.6490529,41.5564707 60.1311177,41.9808634 C58.816035,42.3485415 57.4247667,41.7331267 56.8121469,40.5127469 C55.9576023,38.8104712 55.224646,37.4766303 54.6132643,36.5112312 C53.7386776,35.1302197 52.1983991,33.0591718 49.9924289,30.2980875 C49.7280531,29.9672029 49.7553731,29.4903024 50.0557975,29.1917653 C50.3668656,28.8826513 50.8494449,28.8274804 51.2222577,29.0584035 Z M30.4236365,18.0532444 L30.4236365,41.4016166 L24.0558986,41.4016166 L24.0558986,22.298403 L24.0558986,22.298403 C24.0558986,19.6775858 26.2502749,18.0532444 28.3010572,18.0532444 L30.4236365,18.0532444 L30.4236365,18.0532444 Z M43.9699376,16.9197871 L47.9221802,17.9683412 C48.5136752,18.0758858 48.943847,18.3850717 49.2127084,18.8959084 C49.4815698,19.406745 49.5353413,19.9041311 49.3740244,20.3880816 C49.1589353,20.8720321 48.9707352,21.3559754 48.8094183,21.8399259 C48.6481015,22.3238764 48.4599014,22.7809339 48.2448122,23.2111121 L65.7221301,23.2111121 C67.6620449,23.2111121 69.246505,24.7329943 69.3467096,26.6479578 L69.3517407,26.8407227 L46.550994,26.8407227 C44.9915979,29.9057425 43.257468,32.6077589 41.3485521,34.946853 C39.4396363,37.2859471 37.3828775,39.3158201 35.1782141,41.036533 C34.963125,41.1978492 34.7077105,41.2381784 34.411963,41.15752 C34.1162155,41.0768616 33.8473581,40.92899 33.6053829,40.7139009 C33.3634076,40.4988118 33.1886503,40.2433973 33.0811058,39.9476498 C32.9735612,39.6519023 33.000447,39.369602 33.1617638,39.1007407 C35.6890608,34.6914139 37.5576195,30.8467537 38.7674957,27.5666448 C39.977372,24.2865359 40.9049298,21.3022192 41.5501972,18.6136053 C41.8728308,17.2155261 42.6794029,16.6509257 43.9699376,16.9197871 Z M17.6881608,18.0532444 L17.6881608,40.1535402 L11.3204229,40.1535402 L11.3204229,22.298403 L11.3204229,22.298403 C11.3204229,20.0489594 13.6214662,18.0532444 15.5655815,18.0532444 L17.6881608,18.0532444 L17.6881608,18.0532444 Z M28.5642571,0.707526431 L28.5642571,9.52472081 L44.0505956,9.52472081 L44.0505956,5.03334303 C44.0505956,2.68880668 45.9512178,0.788184444 48.2957541,0.788184444 L52.0357389,0.788184444 L52.0357389,9.52472081 L68.4390316,9.52472081 C70.783568,9.52472081 72.6841902,11.425343 72.6841902,13.7698794 L72.6841902,13.794605 L0.817900554,13.794605 L0.817900554,9.52472081 L20.4984557,9.52472081 L20.4984557,4.95268501 C20.4984557,2.60814867 22.399078,0.707526431 24.7436143,0.707526431 L28.5642571,0.707526431 Z" id="形状结合" fill="#2980FF" fill-rule="nonzero"></path>
                            <rect id="矩形备份-2" x="0" y="0" width="73.5827488" height="73.5827488"></rect>
                        </g>
                        <g id="平" transform="translate(168.189140, 0.000000)">
                            <g id="编组-8" transform="translate(2.143919, 7.861037)" fill="#2980FF" fill-rule="nonzero">
                                <path d="M62.1736576,0 C64.5417654,0 66.4614961,1.91973067 66.4614961,4.28783846 L38.934,4.287 L38.934,35.017 L66.4614961,35.0173474 C68.8296039,35.0173474 70.7493345,36.9370781 70.7493345,39.3051859 L38.934,39.305 L38.9342462,64.3175768 L38.9342462,64.3175768 L36.8359934,64.3175768 L30.0749566,64.2488819 L30.0749566,64.2488819 L30.074,39.305 L0,39.3051859 L0,35.0173474 L30.074,35.017 L30.074,4.287 L3.57319871,4.28783846 L3.57319871,0 L62.1736576,0 Z M52.3293487,10.1069993 C52.8730788,9.91992068 53.4995505,9.99007515 54.2087637,10.3174627 L54.2087637,10.3174627 L58.2512789,12.4922512 C58.9604921,13.0067173 59.3150986,13.5211834 59.3150986,14.0356496 C59.3150986,14.5501157 59.1259751,15.1347362 58.7477281,15.7895113 C58.2749193,16.6313649 57.5775263,17.7304516 56.6555492,19.0867714 C55.733572,20.4430911 54.6815725,21.8578729 53.4995505,23.3311168 C52.3175285,24.8043606 51.0409448,26.2425273 49.6697992,27.6456167 C48.2986537,29.048706 46.9511487,30.241332 45.6272841,31.2234946 C45.1904607,31.5418454 44.15963,31.5418454 43.7833298,31.0507641 C43.4070295,30.5596828 43.688768,29.7034811 43.7833298,29.4696329 C44.6343856,27.7859256 45.4145201,26.20745 46.1237333,24.7342062 C46.8329465,23.2609623 47.4830586,21.8111033 48.0740696,20.3846291 C48.6650806,18.9581548 49.2088107,17.5316806 49.7052599,16.1052064 C50.2017091,14.6787322 50.6863382,13.1704111 51.159147,11.5802431 C51.3955513,10.7851591 51.7856186,10.2940778 52.3293487,10.1069993 Z M9.69487576,10.3463318 C10.2942992,9.8153541 11.0871723,10.0265916 11.2752267,10.1687305 C12.9677164,11.353221 14.4251381,12.4429523 15.6474918,13.4379243 C16.8698455,14.4328964 17.9276516,15.356799 18.82091,16.2096321 C19.7141685,17.0624653 20.4663862,17.8797638 21.077563,18.6615275 C21.6887398,19.4432913 22.2293963,20.2132101 22.6995323,20.971284 C23.2636956,21.7767376 23.5575306,22.5821912 23.5810374,23.3876447 C23.6045442,24.1930983 23.4282432,25.0459314 23.0521343,25.9461442 C22.7700527,26.6094589 22.4762177,27.1661695 22.1706293,27.6162759 C21.8650409,28.0663823 21.430165,28.5757132 20.8660018,29.1442687 C20.2548249,29.8075834 19.5378675,30.0918611 18.7151294,29.9971018 C17.8923914,29.9023426 17.2929679,29.2627177 16.9168591,28.0782272 C15.976587,25.2354499 14.8952742,22.5111217 13.6729205,19.9052426 C12.4505668,17.2993634 11.0401587,14.6461047 9.44169619,11.9454663 C9.30065538,11.7085682 9.09545232,10.8773096 9.69487576,10.3463318 Z" id="形状结合"></path>
                            </g>
                            <rect id="矩形备份-2" x="0" y="0" width="74.3225332" height="74.3225332"></rect>
                        </g>
                        <g id="台" transform="translate(241.771889, 0.000000)">
                            <rect id="矩形备份-3" x="0" y="0" width="71.3186642" height="77.6257569"></rect>
                            <g id="编组-7" transform="translate(4.114538, 3.732008)" fill="#2980FF">
                                <path d="M54.9056508,26.0768581 C52.9111879,24.6581882 51.0390853,24.6581882 49.795052,24.9685914 L10.1944664,26.8560732 C12.1889293,25.4941501 15.5349032,23.2520007 17.5556091,21.6914638 C19.5763149,20.1309268 21.5314134,18.4994564 23.4209045,16.7970524 C25.3103957,15.0946484 27.1211581,13.3496844 28.8531916,11.5621602 C30.5852252,9.77463607 32.1598012,8.00129861 33.5769195,6.24214785 C34.1542641,5.61793307 34.3904505,5.02209168 34.2854787,4.45462369 C34.180507,3.88715571 33.8393489,3.40480792 33.2620044,3.00758033 C32.999575,2.83733993 32.632174,2.62453944 32.1598012,2.36917884 C31.6874284,2.11381825 31.2019341,1.85845766 30.7033184,1.60309706 C30.2047027,1.34773647 29.7192084,1.10656257 29.2468356,0.879575379 C28.7744628,0.652588185 28.4070618,0.482347789 28.1446324,0.368854191 C26.4650847,-0.368854191 25.2316669,0 24.4443789,1.47541677 C23.3946616,3.40480792 22.082515,5.46187937 20.507939,7.64663112 C18.933363,9.83138287 17.2275724,12.0303213 15.3905671,14.2434465 C13.5535618,16.4565716 11.6378277,18.5987633 9.6433648,20.6700214 C7.64890191,22.7412796 4.3685353,25.3249463 2.16412894,26.5989283 C-0.040277414,27.8729103 -0.0733969004,28.6855067 0.031574831,29.4799619 L0.983196967,33.5657314 C1.24562629,34.3034398 1.59990589,34.7574142 2.04603575,34.9276546 C2.4921656,35.097895 3.24008919,35.1262684 4.2898065,35.0127748 C5.75941074,34.8425344 7.7276307,34.6155472 10.1944664,34.3318132 C12.6613021,34.0480792 15.3905671,33.7075984 18.3822614,33.3103708 C21.3739558,32.9131432 24.4968648,32.5017289 27.7509885,32.0761279 C31.0051121,31.6505269 34.1673855,31.2107393 37.2378087,30.7567649 C40.3082318,30.3027905 43.181833,29.8771895 45.8586121,29.4799619 C48.5353913,29.0827343 50.7660406,28.7138801 52.55056,28.3733993 C53.705249,29.8488161 56.9001137,27.4955281 54.9056508,26.0768581 Z" id="路径" fill-rule="nonzero"></path>
                                <path d="M54.9406643,43.2912875 C56.0325952,43.2912875 56.9177801,44.2461779 56.9177801,45.4240949 L56.9177801,45.4240949 L56.9177801,71.0177814 C56.9161133,72.1956971 56.0295802,73.1491308 54.9376505,73.1473429 L54.9376505,73.1473429 L8.14590956,73.0703935 C7.05515666,73.0686 6.17180748,72.1142362 6.17180748,70.9375886 L6.17180748,70.9375886 L6.17180748,45.4240949 C6.17180748,44.2461779 7.05699238,43.2912875 8.14892329,43.2912875 L8.14892329,43.2912875 Z M47.7553128,47.1189876 L15.3342748,47.1189876 L15.3342748,69.3196478 L47.7553128,69.3196478 L47.7553128,47.1189876 Z" id="形状结合" fill-rule="nonzero"></path>
                                <path d="M44.3428512,11.7075165 C56.1034301,20.7800482 62.4069896,26.7989715 63.2535297,29.7642864 C63.9436632,32.1817303 62.6197374,34.4318034 59.2817523,36.5145057 L59.2817561,36.5145119 C57.8760739,37.3915732 56.0255445,36.9630413 55.1484832,35.557359 C55.0748764,35.4393881 55.0095607,35.3164425 54.9530084,35.1894113 C53.0033183,30.8099036 51.3788606,27.5048535 50.0796354,25.2742609 C48.6058166,22.7439148 46.008785,18.949267 42.2885407,13.8903176 C41.8369622,13.2762645 41.8851358,12.4280308 42.403324,11.8690448 C42.910748,11.3216704 43.7518704,11.2516222 44.3428512,11.7075165 Z" id="路径-7备份-5" transform="translate(52.469908, 24.512078) rotate(-1.000000) translate(-52.469908, -24.512078) "></path>
                            </g>
                        </g>
                    </g>
                </g>
                <g id="编组-2" transform="translate(0.000000, 30.000000)">
                    <mask id="mask-3" fill="white">
                        <use xlink:href="#path-2"></use>
                    </mask>
                    <use id="形状结合" fill="url(#linearGradient-1)" xlink:href="#path-2"></use>
                    <path d="M323.790116,85.0550307 C320.368637,94.8880757 294.99838,114.597029 231.03613,123.991262 C207.01217,127.519698 187.630115,126.309567 164.929534,122.055114 C196.815281,105.984205 251.627828,89.9800645 323.664406,82.6666345 L324.949829,82.5533718 C324.612417,83.5111444 324.037715,84.3434503 323.790116,85.0550307 Z" id="路径" fill="#A7CBFF" mask="url(#mask-3)"></path>
                </g>
            </g>
        </g>
    </g>
</svg>