<?xml version="1.0" encoding="UTF-8"?>
<svg width="240px" height="76px" viewBox="0 0 240 76" version="1.1" xmlns="http://www.w3.org/2000/svg" xmlns:xlink="http://www.w3.org/1999/xlink">
    <title>编组 46</title>
    <defs>
        <linearGradient x1="50%" y1="0%" x2="50%" y2="113.266603%" id="linearGradient-1">
            <stop stop-color="#5AA6FF" offset="0%"></stop>
            <stop stop-color="#277BF6" offset="24.2248701%"></stop>
            <stop stop-color="#0037A5" offset="100%"></stop>
        </linearGradient>
        <path d="M66.1273813,18.2250741 C70.8312859,23.7010207 71.6261679,33.5362752 70.2575182,36.1583302 C68.8888686,38.7803853 63.972906,42.4052546 50.1265823,44.8465823 C45.7903752,45.6111247 40.7778643,45.4120642 35.7671692,44.4187692 C34.104527,45.6414516 32.3304087,47.1653163 31.0453259,48.3387645 C29.1234926,50.093649 28.1676836,51.2365974 26.5919703,53.5513479 C25.1651509,51.3852527 26.0040381,47.7432375 29.1086321,42.6253022 C21.8273442,40.1310893 15.2267593,36.032773 11.5684823,30.8954295 C9.79645217,30.6338759 7.31730776,30.0505694 4.85689746,28.2704947 C0.768486461,25.3125829 0.0960908139,21.9008236 0.129524553,21.9588796 C2.45785137,26.0018994 5.77641815,25.5381422 7.67345517,24.9684282 C8.49366723,24.7221039 9.24922094,24.1578592 9.73291832,23.6783484 C11.5542529,21.8727781 11.614964,19.7556485 11.6581873,19.2659395 L11.6626678,19.2211647 C11.6907357,18.9823312 11.5938267,20.6149732 11.543673,22.3520417 L11.532208,22.7874617 C11.5236312,23.1504204 11.5177049,23.5115203 11.5159818,23.8547832 L11.5160311,24.2571144 C11.5182968,24.6488387 11.5275096,25.0056744 11.5463529,25.3000115 C11.6784692,27.3636976 11.9612268,29.5784299 12.3948033,30.5513248 C14.7046338,32.925529 17.1037999,33.693964 19.5919012,32.8563463 C24.3575066,31.2520082 61.4234766,12.7491275 66.1273813,18.2250741 Z M51.6455696,29.3670886 C50.2473804,29.3670886 49.1139241,30.5005449 49.1139241,31.8987342 C49.1139241,33.2969234 50.2473804,34.4303797 51.6455696,34.4303797 C53.0437589,34.4303797 54.1772152,33.2969234 54.1772152,31.8987342 C54.1772152,30.5005449 53.0437589,29.3670886 51.6455696,29.3670886 Z M52.6582278,30.3797468 C53.4971414,30.3797468 54.1772152,31.0598206 54.1772152,31.8987342 C54.1772152,32.7376477 53.4971414,33.4177215 52.6582278,33.4177215 C51.8193143,33.4177215 51.1392405,32.7376477 51.1392405,31.8987342 C51.1392405,31.0598206 51.8193143,30.3797468 52.6582278,30.3797468 Z" id="path-2"></path>
        <path d="M35.3722731,44.7125533 L35.7671692,44.4187692 C34.6754146,45.2216293 33.5355944,46.1543514 32.5177287,47.0324513 C33.3414333,46.2253858 34.2926668,45.4523991 35.3722731,44.7125533 Z M70.2575182,36.1583302 C68.8888686,38.7803853 63.972906,42.4052546 50.1265823,44.8465823 C45.8001765,45.6093966 40.8005208,45.4129592 35.8011468,44.4254925 C42.6160962,39.9475521 54.2462719,36.7124797 70.6906836,34.7202608 C70.5892223,35.3135659 70.4433031,35.8024041 70.2575182,36.1583302 Z" id="path-4"></path>
    </defs>
    <g id="SCRM_组件" stroke="none" stroke-width="1" fill="none" fill-rule="evenodd">
        <g id="编组-46" transform="translate(0.000000, 0.365404)">
            <path d="M96.6661978,52.1518987 L99.5035162,45.7262072 L101.005626,52.1518987 L108.140647,52.1518987 L105.178153,39.5508673 L102.215659,39.5508673 L102.924988,37.9653071 L109.35068,37.9653071 L109.934834,34.0014065 L104.67745,34.0014065 L107.097515,28.4519456 L109.893108,28.4519456 L110.477262,24.488045 L100.88045,24.488045 L102.090483,22.1097046 L94.1626817,22.1097046 L95.1640881,23.2780122 L91.3253633,30.830286 L97.6676043,30.830286 L98.8776371,28.4519456 L99.5869667,28.4519456 L97.1251758,34.0014065 L90.9081106,34.0014065 L90.3239569,37.9653071 L95.3727145,37.9653071 L89.1139241,52.1518987 L96.6661978,52.1518987 Z M123.203469,52.1518987 L127.209095,23.6952649 L111.353493,23.6952649 L112.730427,25.2808251 L108.933427,52.1518987 L123.203469,52.1518987 Z M117.445382,48.2714487 L115.859822,48.2714487 L118.738865,27.6591655 L120.324426,27.6591655 L117.445382,48.2714487 Z M144.98406,28.7440225 L145.150961,27.3253633 L151.534927,27.3253633 L151.326301,28.7440225 L158.461322,28.7440225 L158.628223,27.3253633 L165.012189,27.3253633 L165.512893,23.6535396 L159.170652,23.6535396 L159.379278,22.1097046 L150.658697,22.1097046 L151.993905,23.6535396 L145.69339,23.6535396 L145.902016,22.1097046 L137.181435,22.1097046 L138.516643,23.6535396 L132.216128,23.6535396 L131.715424,27.3253633 L138.057665,27.3253633 L137.849039,28.7440225 L144.98406,28.7440225 Z M161.632443,39.3005157 L159.546179,34.4603844 L163.092827,34.4603844 L163.551805,31.2058134 L155.248476,31.2058134 L155.874355,29.6202532 L149.57384,29.6202532 L145.860291,39.2587904 L152.202532,39.2587904 L153.621191,35.5035162 L155.290202,39.3005157 L161.632443,39.3005157 Z M144.358181,39.7177684 L145.77684,29.6202532 L139.267698,29.6202532 L137.849039,39.7177684 L144.358181,39.7177684 Z M136.680731,38.883263 L137.849039,30.4964838 L132.049226,30.4964838 L130.880919,38.883263 L136.680731,38.883263 Z M162.383497,51.3591186 L162.842475,47.9793718 L161.131739,47.9793718 L162.216596,40.427098 L130.630567,40.427098 L129.54571,47.9793718 L128.043601,47.9793718 L127.584623,51.3591186 L162.383497,51.3591186 Z M138.683544,47.9793718 L135.887951,47.9793718 L136.43038,44.1823722 L139.184248,44.1823722 L138.683544,47.9793718 Z M146.736521,47.9793718 L144.066104,47.9793718 L144.566807,44.1823722 L147.237225,44.1823722 L146.736521,47.9793718 Z M154.872949,47.9793718 L152.285982,47.9793718 L152.786685,44.1823722 L155.415377,44.1823722 L154.872949,47.9793718 Z M186.876231,52.1518987 L188.420066,41.1364276 L201.897328,41.1364276 L202.439756,37.172527 L188.962494,37.172527 L190.381153,26.8663854 L202.31458,26.8663854 L202.857009,22.9024848 L171.145804,22.9024848 L170.603376,26.8663854 L182.453352,26.8663854 L181.034693,37.172527 L167.557431,37.172527 L167.015002,41.1364276 L180.492264,41.1364276 L178.948429,52.1518987 L186.876231,52.1518987 Z M197.933427,35.5869667 L200.520394,28.4519456 L193.385373,28.4519456 L190.798406,35.5869667 L197.933427,35.5869667 Z M179.699484,35.5869667 L179.115331,28.4519456 L171.980309,28.4519456 L172.564463,35.5869667 L179.699484,35.5869667 Z M239.992499,35.5869667 L237.030005,23.7369902 L230.270511,23.7369902 L232.106423,31.1223629 L218.378809,31.1223629 L224.6376,22.1514299 L214.331458,22.1514299 L215.332865,23.1111111 L209.324426,31.9568683 L208.907173,34.9610877 L233.066104,34.9610877 L233.233005,35.5869667 L239.992499,35.5869667 Z M237.363807,51.3173933 L239.36662,37.172527 L208.698547,37.172527 L206.695734,51.3173933 L237.363807,51.3173933 Z M230.061885,47.3534927 L215.040788,47.3534927 L215.917018,41.0947023 L230.938115,41.0947023 L230.061885,47.3534927 Z" id="知蓝平台" fill="#5AA6FF" fill-rule="nonzero"></path>
            <g id="logo-shape">
                <g transform="translate(1.687764, 1.687764)">
                    <mask id="mask-3" fill="white">
                        <use xlink:href="#path-2"></use>
                    </mask>
                    <use id="形状结合" fill="url(#linearGradient-1)" xlink:href="#path-2"></use>
                    <mask id="mask-5" fill="white">
                        <use xlink:href="#path-4"></use>
                    </mask>
                    <use id="形状结合" fill="#A7CBFF" xlink:href="#path-4"></use>
                    <rect id="矩形" x="0" y="0" width="70.8860759" height="70.8860759"></rect>
                </g>
                <rect id="矩形" x="0" y="0" width="74.2616034" height="74.2616034"></rect>
            </g>
        </g>
    </g>
</svg>