<?xml version="1.0" encoding="UTF-8"?>
<svg width="39px" height="20px" viewBox="0 0 39 20" version="1.1" xmlns="http://www.w3.org/2000/svg" xmlns:xlink="http://www.w3.org/1999/xlink">
    <!-- Generator: Sketch 61 (89581) - https://sketch.com -->
    <title>logo-shape</title>
    <desc>Created with Sketch.</desc>
    <defs>
        <linearGradient x1="50%" y1="0%" x2="50%" y2="113.266603%" id="linearGradient-1">
            <stop stop-color="#2980FF" offset="0%"></stop>
            <stop stop-color="#277BF6" offset="24.2248701%"></stop>
            <stop stop-color="#0037A5" offset="100%"></stop>
        </linearGradient>
        <path d="M35.6355734,11.8213623 C38.1704741,14.7723108 38.5988302,20.0724592 37.8612747,21.4854659 C37.1237192,22.8984726 34.4745421,24.8518888 27.0128571,26.1675029 C24.6764486,26.5794489 21.9756915,26.4722685 19.2758591,25.9371927 C18.3795643,26.5950979 17.4229444,27.4167616 16.7301044,28.0494149 C15.6944421,28.9951096 15.1793635,29.6110364 14.3302229,30.8584389 C13.5613119,29.6911333 14.0134,27.728448 15.6864872,24.9703831 C11.7636076,23.6268368 8.20667801,21.4185831 6.23496443,18.6504382 C5.28149039,18.5089064 3.94436252,18.1948458 2.61734735,17.2347677 C0.414131865,15.6407701 0.0517826533,13.8021974 0.0697998565,13.8334834 C1.32451855,16.0122378 3.11287048,15.7623224 4.13517018,15.4553076 C4.5771766,15.3225652 4.9843391,15.0184978 5.24500016,14.7600928 C6.26034932,13.7535318 6.26034932,12.5672951 6.28492837,12.3581484 C6.30950743,12.1490017 6.15624265,14.6029906 6.22224712,15.6339955 C6.29347791,16.7466365 6.44596637,17.9407536 6.67980839,18.4646473 C7.92469804,19.7434848 9.2173624,20.1573534 10.5579356,19.7060503 C13.1260863,18.841484 33.1006728,8.87041376 35.6355734,11.8213623 Z M27.8314286,17.8257143 C27.0779544,17.8257143 26.4671429,18.4365258 26.4671429,19.19 C26.4671429,19.9434742 27.0779544,20.5542857 27.8314286,20.5542857 C28.5849028,20.5542857 29.1957143,19.9434742 29.1957143,19.19 C29.1957143,18.4365258 28.5849028,17.8257143 27.8314286,17.8257143 Z M28.3771429,18.3714286 C28.8292274,18.3714286 29.1957143,18.7379155 29.1957143,19.19 C29.1957143,19.6420845 28.8292274,20.0085714 28.3771429,20.0085714 C27.9250583,20.0085714 27.5585714,19.6420845 27.5585714,19.19 C27.5585714,18.7379155 27.9250583,18.3714286 28.3771429,18.3714286 Z" id="path-2"></path>
        <path d="M37.8612747,21.4854659 C37.1237192,22.8984726 34.4745421,24.8518888 27.0128571,26.1675029 C24.6816406,26.5785335 21.9876931,26.4727423 19.293858,25.9407536 C22.9665529,23.5272422 29.2330811,21.7841904 38.0931401,20.7106901 C38.0396735,21.0314143 37.9611675,21.2940917 37.8612747,21.4854659 Z" id="path-4"></path>
    </defs>
    <g id="类型页" stroke="none" stroke-width="1" fill="none" fill-rule="evenodd">
        <g id="一级页面-1" transform="translate(-40.000000, -22.000000)">
            <g id="header">
                <g id="logo-shape" transform="translate(40.000000, 10.000000)">
                    <g>
                        <g transform="translate(0.800000, 0.800000)">
                            <mask id="mask-3" fill="white">
                                <use xlink:href="#path-2"></use>
                            </mask>
                            <use id="形状结合" fill="url(#linearGradient-1)" xlink:href="#path-2"></use>
                            <mask id="mask-5" fill="white">
                                <use xlink:href="#path-4"></use>
                            </mask>
                            <use id="形状结合" fill="#A7CBFF" xlink:href="#path-4"></use>
                            <rect id="矩形" x="0" y="0" width="38.2" height="38.2"></rect>
                        </g>
                        <rect id="矩形" x="0" y="0" width="40" height="40"></rect>
                    </g>
                </g>
            </g>
        </g>
    </g>
</svg>