<?xml version="1.0" encoding="UTF-8"?>
<svg width="56px" height="52px" viewBox="0 0 56 52" version="1.1" xmlns="http://www.w3.org/2000/svg" xmlns:xlink="http://www.w3.org/1999/xlink">
    <title>No search results</title>
    <defs>
        <circle id="path-1" cx="26" cy="26" r="26"></circle>
        <path d="M3.62884326e-14,11.272696 C3.62884326e-14,8.2406224 2.29913798,0 10.1463382,0 C17.9935384,0 21.6413126,8.20694995 22.966454,10.6542325 C24.2915954,13.101515 29.52928,12.5411491 31.7565999,9.51633757 C33.0496353,7.76033094 34.0043287,8.93397647 35.6210872,9.724826 C36.2011086,10.0085478 35.67382,10.5307 34.4461915,10.9630078 C33.8286756,11.1804653 32.5,10.5307 30.2510526,11.732201 C23.3146594,15.4379718 22.3890309,18.1071429 13.2181411,18.1071429 C4.04725128,18.1071429 3.62884326e-14,14.3047696 3.62884326e-14,11.272696 Z" id="path-3"></path>
    </defs>
    <g id="基础管理" stroke="none" stroke-width="1" fill="none" fill-rule="evenodd">
        <g id="域管理_绑定上级域_2备份" transform="translate(-614.000000, -410.000000)">
            <g id="No-search-results" transform="translate(614.000000, 410.000000)">
                <g id="路径-2">
                    <mask id="mask-2" fill="white">
                        <use xlink:href="#path-1"></use>
                    </mask>
                    <use id="蒙版" fill="#E8EFFF" xlink:href="#path-1"></use>
                    <path d="M1.39285714,34.1439252 C6.71905155,30.8738101 12.8985886,30.1000006 19.9314682,31.8224966 C30.4807875,34.4062406 48.9123106,35.6027307 51.0714286,29.5010681 C52.5108405,25.433293 51.9166515,31.8857622 49.2888615,48.8584756 L17.875,55.4077083 L1.39285714,42.7619281 L1.39285714,34.1439252 Z" fill="#C5D8FF" mask="url(#mask-2)"></path>
                    <g id="路径-4" mask="url(#mask-2)">
                        <g transform="translate(10.678571, 21.357143)">
                            <mask id="mask-4" fill="white">
                                <use xlink:href="#path-3"></use>
                            </mask>
                            <use id="蒙版" stroke="none" fill="#6D9DFF" fill-rule="evenodd" xlink:href="#path-3"></use>
                            <path d="M3.09021495e-13,12.7219199 C5.91012897,15.0862952 10.4476819,14.9755889 13.6126589,12.3898011 C15.1301343,13.8021227 18.8035714,16.4821429 24.5931907,14.9209309 C26.5393179,14.3961439 25.860597,16.0772622 22.5570281,19.9642857 L5.75877147,19.9642857 L1.29860798,16.4821429 L3.09021495e-13,12.7219199 Z" id="路径-4" stroke="none" fill="#FFFFFF" fill-rule="evenodd" mask="url(#mask-4)"></path>
                        </g>
                    </g>
                    <path d="M26,33 C26.274789,35.9905204 26.8520997,38.0480078 27.731932,39.1724623 C28.6117643,40.2969168 30.0344537,40.906096 32,41 C31.4089066,40.2565184 30.8123247,39.3564043 30.2102542,38.2996579 C29.3071486,36.7145382 31.2947983,33.8304649 31.2947983,33.8304649 C31.2947983,33.8304649 29.5298655,33.5536432 26,33 Z" id="路径-5" fill="#6D9DFF" mask="url(#mask-2)"></path>
                    <path d="M41.7480992,27 C41.7522167,27.2072076 41.5189511,27.6824119 41.0483023,28.4256128 C40.3423291,29.5404143 40.6001207,31.2769665 40.4712249,31.8679745 C40.3852943,32.2619798 40.2282194,32.6393217 40,33 C40.7766223,32.526991 41.359322,32.1496492 41.7480992,31.8679745 C42.1368764,31.5862998 42.4554461,31.2566548 42.7038081,30.8790396 C43.0987306,29.3239596 43.0987306,28.3543322 42.7038081,27.9701573 C42.3088856,27.5859824 41.990316,27.2625967 41.7480992,27 Z" id="路径-6" fill="#6D9DFF" mask="url(#mask-2)"></path>
                    <path d="M20,33 C20.0584918,32.3333333 20.4064481,32 21.0438689,32 C21.6812896,32 22,32.3333333 22,33" id="路径" stroke="#FFFFFF" stroke-linecap="round" mask="url(#mask-2)" transform="translate(21.000000, 32.500000) scale(-1, -1) translate(-21.000000, -32.500000) "></path>
                </g>
                <g id="编组-4" transform="translate(44.500000, 13.000000) scale(-1, 1) translate(-44.500000, -13.000000) translate(33.000000, 2.000000)">
                    <g id="编组-2" transform="translate(0.018688, 0.000000)">
                        <polygon id="Fill-1" fill="#DDDDEA" points="3.56211767 17.9483889 2.92863642 17.3142196 7.99732632 12.2399966 8.63080757 12.8741939"></polygon>
                        <g id="编组" transform="translate(5.599339, 0.000000)" fill="#99A7C7">
                            <path d="M7.62847265,13.3555566 C4.47416885,13.3555566 1.91714658,10.7957292 1.91714658,7.63802752 C1.91714658,4.48032588 4.47416885,1.92049841 7.62847265,1.92049841 C10.7827204,1.92049841 13.3397987,4.48032588 13.3397987,7.63802752 C13.3397987,10.7957292 10.7827204,13.3555566 7.62847265,13.3555566 M7.62847265,0.0146553724 C3.42275292,0.0146553724 0.0133712222,3.42773998 0.0133712222,7.63802752 C0.0133712222,11.848287 3.42275292,15.2613997 7.62847265,15.2613997 C11.8341644,15.2613997 15.2435741,11.848287 15.2435741,7.63802752 C15.2435741,3.42773998 11.8341644,0.0146553724 7.62847265,0.0146553724" id="Fill-2"></path>
                        </g>
                        <path d="M13.2278119,11.6798581 C10.997987,11.6798581 9.19035235,9.87026019 9.19035235,7.6380135 C9.19035235,5.40579485 10.997987,3.59619688 13.2278119,3.59619688 C15.4576368,3.59619688 17.2652435,5.40579485 17.2652435,7.6380135 C17.2652435,9.87026019 15.4576368,11.6798581 13.2278119,11.6798581" id="Fill-4" fill="#CED7EC"></path>
                        <path d="M13.2278119,9.88019579 C11.9908059,9.88019579 10.9880762,8.87634903 10.9880762,7.63802752 C10.9880762,6.399706 11.9908059,5.39585924 13.2278119,5.39585924 C14.46479,5.39585924 15.4675476,6.399706 15.4675476,7.63802752 C15.4675476,8.87634903 14.46479,9.88019579 13.2278119,9.88019579" id="Fill-6" fill="#FFFFFF"></path>
                        <polygon id="Fill-8" fill="#393D65" points="1.42378599 20.7232151 0.156823495 19.4548485 5.24088358 14.3652386 6.50787408 15.6336052"></polygon>
                        <g id="编组" transform="translate(0.000000, 18.694078)" fill="#CAD1EA">
                            <polygon id="Fill-10" points="1.58059829 2.18611687 -1.11986786e-05 0.603790693 0.578568529 0.0245825725 2.15920602 1.60690875"></polygon>
                        </g>
                    </g>
                </g>
            </g>
        </g>
    </g>
</svg>