<?xml version="1.0" encoding="UTF-8"?>
<svg width="395px" height="100px" viewBox="0 0 395 100" version="1.1" xmlns="http://www.w3.org/2000/svg" xmlns:xlink="http://www.w3.org/1999/xlink">
    <title>Subdomain</title>
    <defs>
        <polygon id="path-1" points="0.00907374872 0.0554150768 16.2020543 0.0554150768 16.2020543 8.2299619 0.00907374872 8.2299619"></polygon>
        <polygon id="path-3" points="0 69.5198599 49.9490255 69.5198599 49.9490255 0 0 0"></polygon>
        <path d="M12.9962916,0.00726629063 C5.82482202,0.00726629063 0.0110944764,5.99554225 0.0110944764,13.3823244 C0.0110944764,20.7693351 5.82482202,26.7573825 12.9962916,26.7573825 C20.1677611,26.7573825 25.9812668,20.7693351 25.9812668,13.3823244 C25.9812668,5.99554225 20.1677611,0.00726629063 12.9962916,0.00726629063 Z" id="path-5"></path>
        <polygon id="path-7" points="0.00907374872 0.0554150768 16.2020543 0.0554150768 16.2020543 8.2299619 0.00907374872 8.2299619"></polygon>
        <polygon id="path-9" points="0 69.5198599 49.9490255 69.5198599 49.9490255 0 0 0"></polygon>
        <path d="M12.9962916,0.018928329 C5.82482202,0.018928329 0.0110944764,5.79648865 0.0110944764,12.9233445 L0.0110944764,12.9233445 C0.0110944764,20.0504208 5.82482202,25.8277606 12.9962916,25.8277606 L12.9962916,25.8277606 C20.1677611,25.8277606 25.9812668,20.0504208 25.9812668,12.9233445 L25.9812668,12.9233445" id="path-11"></path>
        <path d="M12.9962916,0.00701060417 C5.82482202,0.00701060417 0.0110944764,5.78457092 0.0110944764,12.9114268 L0.0110944764,12.9114268 C0.0110944764,20.0385031 5.82482202,25.8158429 12.9962916,25.8158429 L12.9962916,25.8158429 C20.1677611,25.8158429 25.9812668,20.0385031 25.9812668,12.9114268 L25.9812668,12.9114268" id="path-13"></path>
        <path d="M12.9962916,0.00701060417 C5.82482202,0.00701060417 0.0110944764,5.78457092 0.0110944764,12.9114268 L0.0110944764,12.9114268 C0.0110944764,20.0385031 5.82482202,25.8158429 12.9962916,25.8158429 L12.9962916,25.8158429 C20.1677611,25.8158429 25.9812668,20.0385031 25.9812668,12.9114268 L25.9812668,12.9114268" id="path-15"></path>
        <path d="M12.9962916,0.018928329 C5.82482202,0.018928329 0.0110944764,5.79648865 0.0110944764,12.9233445 L0.0110944764,12.9233445 C0.0110944764,20.0504208 5.82482202,25.8277606 12.9962916,25.8277606 L12.9962916,25.8277606 C20.1677611,25.8277606 25.9812668,20.0504208 25.9812668,12.9233445 L25.9812668,12.9233445" id="path-17"></path>
        <path d="M12.9962916,0.00701060417 C5.82482202,0.00701060417 0.0110944764,5.78457092 0.0110944764,12.9114268 C0.0110944764,20.0385031 5.82482202,25.8158429 12.9962916,25.8158429 C20.1677611,25.8158429 25.9812668,20.0385031 25.9812668,12.9114268 C25.9812668,5.78457092 20.1677611,0.00701060417 12.9962916,0.00701060417 Z" id="path-19"></path>
        <polygon id="path-21" points="0.00907374872 0.0554150768 16.2020543 0.0554150768 16.2020543 8.2299619 0.00907374872 8.2299619"></polygon>
        <polygon id="path-23" points="0 69.5198599 49.9490255 69.5198599 49.9490255 0 0 0"></polygon>
        <polygon id="path-25" points="0 0 26 0 26 25.9999971 0 25.9999971"></polygon>
    </defs>
    <g id="基础管理" stroke="none" stroke-width="1" fill="none" fill-rule="evenodd">
        <g id="域管理_子域管理" transform="translate(-848.000000, -112.000000)">
            <g id="Subdomain" transform="translate(848.000000, 112.000000)">
                <g id="编组-14">
                    <text id="子域平台发起绑定申请" font-family="PingFangSC-Regular, PingFang SC" font-size="14" font-weight="normal" line-spacing="22" fill="#1A447F" fill-opacity="0.65">
                        <tspan x="5.5" y="93">子域平台发起绑定申请</tspan>
                    </text>
                    <g id="编组-13" transform="translate(44.000000, 0.000000)">
                        <g id="3.通用组件/灰色版/服务器" transform="translate(13.000000, 0.000000)">
                            <g id="分组">
                                <path d="M25.2076192,64.8301075 L24.4003955,64.8301075 C23.2906917,64.8301075 22.3823363,63.9229828 22.3823363,62.8137669 L22.3823363,46.683956 C22.3823363,45.57474 23.2906917,44.6676153 24.4003955,44.6676153 L25.2076192,44.6676153 C26.317323,44.6676153 27.2256784,45.57474 27.2256784,46.683956 L27.2256784,62.8137669 C27.2256784,63.9229828 26.317323,64.8301075 25.2076192,64.8301075" id="Fill-1" fill="#B6BDD6"></path>
                                <path d="M49.1901254,65.4324493 L49.1901254,65.4324493 C49.1901254,66.7689037 48.1060478,67.8520581 46.7684543,67.8520581 L3.18066272,67.8520581 C1.84306925,67.8520581 0.758991624,66.7689037 0.758991624,65.4324493 C0.758991624,64.0964521 1.84306925,63.0128405 3.18066272,63.0128405 L46.7684543,63.0128405 C48.1060478,63.0128405 49.1901254,64.0964521 49.1901254,65.4324493" id="Fill-3" fill="#B6BDD6"></path>
                                <g transform="translate(16.698672, 61.289898)">
                                    <mask id="mask-2" fill="white">
                                        <use xlink:href="#path-1"></use>
                                    </mask>
                                    <g id="Clip-6"></g>
                                    <path d="M1.21945169,8.23005335 C0.553629418,8.23005335 0.00907374872,7.6855042 0.00907374872,7.02024895 L0.00907374872,1.26476226 C0.00907374872,0.599507003 0.553629418,0.0554150768 1.21945169,0.0554150768 L14.9912188,0.0554150768 C15.6570411,0.0554150768 16.2020543,0.599507003 16.2020543,1.26476226 L16.2020543,7.02024895 C16.2020543,7.6855042 15.6570411,8.23005335 14.9912188,8.23005335 L1.21945169,8.23005335 Z" id="Fill-5" fill="#B6C5E0" mask="url(#mask-2)"></path>
                                </g>
                                <line x1="18.7186206" y1="62.5373316" x2="18.7186206" y2="68.3280242" id="Stroke-7" stroke="#8F9AC9" stroke-width="6" stroke-linecap="round" stroke-linejoin="round"></line>
                                <line x1="30.6882288" y1="62.5373316" x2="30.6882288" y2="68.3280242" id="Stroke-9" stroke="#8F9AC9" stroke-width="6" stroke-linecap="round" stroke-linejoin="round"></line>
                                <mask id="mask-4" fill="white">
                                    <use xlink:href="#path-3"></use>
                                </mask>
                                <g id="Clip-12"></g>
                                <polygon id="Fill-11" fill="#B6BDD6" mask="url(#mask-4)" points="2.27020225 54.0068389 47.6783657 54.0068389 47.6783657 1.00999921 2.27020225 1.00999921"></polygon>
                                <path d="M2.0664286,54.464059 C0.929725843,54.464059 -0.000137282942,53.5349878 -0.000137282942,52.3997102 L-0.000137282942,40.1955912 C-0.000137282942,39.0603136 0.929725843,38.1312424 2.0664286,38.1312424 L47.88278,38.1312424 C49.0190251,38.1312424 49.9493459,39.0603136 49.9493459,40.1955912 L49.9493459,52.3997102 C49.9493459,53.5349878 49.0190251,54.464059 47.88278,54.464059 L2.0664286,54.464059 Z" id="Fill-13" fill="#DDE4F2" mask="url(#mask-4)"></path>
                                <path d="M2.0664286,16.333091 C0.929725843,16.333091 -0.000137282942,15.4040197 -0.000137282942,14.268285 L-0.000137282942,2.06462311 C-0.000137282942,0.929345587 0.929725843,-0.000182888042 2.0664286,-0.000182888042 L47.88278,-0.000182888042 C49.0190251,-0.000182888042 49.9493459,0.929345587 49.9493459,2.06462311 L49.9493459,14.268285 C49.9493459,15.4040197 49.0190251,16.333091 47.88278,16.333091 L2.0664286,16.333091 Z" id="Fill-14" fill="#DDE4F2" mask="url(#mask-4)"></path>
                                <path d="M5.78958774,9.71501281 L5.78958774,9.71501281 C4.93385741,9.71501281 4.24012094,9.02140991 4.24012094,8.16640831 C4.24012094,7.31140671 4.93385741,6.61826103 5.78958774,6.61826103 C6.64577569,6.61826103 7.33951216,7.31140671 7.33951216,8.16640831 C7.33951216,9.02140991 6.64577569,9.71501281 5.78958774,9.71501281" id="Fill-15" fill="#FFFFFF" mask="url(#mask-4)"></path>
                                <path d="M9.01642329,8.16640831 C9.01642329,7.31140671 9.71015975,6.61826103 10.5663477,6.61826103 C11.422078,6.61826103 12.1162721,7.31140671 12.1162721,8.16640831 C12.1162721,9.02140991 11.422078,9.71501281 10.5663477,9.71501281 C9.71015975,9.71501281 9.01642329,9.02140991 9.01642329,8.16640831 Z" id="Fill-16" fill="#FFFFFF" mask="url(#mask-4)"></path>
                                <path d="M15.3431077,9.71501281 L15.3431077,9.71501281 C14.4869197,9.71501281 13.7931832,9.02140991 13.7931832,8.16640831 C13.7931832,7.31140671 14.4869197,6.61826103 15.3431077,6.61826103 C16.198838,6.61826103 16.8925745,7.31140671 16.8925745,8.16640831 C16.8925745,9.02140991 16.198838,9.71501281 15.3431077,9.71501281" id="Fill-17" fill="#FFFFFF" mask="url(#mask-4)"></path>
                                <path d="M31.7909312,9.71501281 C31.5548045,9.71501281 31.3635236,9.5238948 31.3635236,9.28796923 L31.3635236,7.04530461 C31.3635236,6.80937904 31.5548045,6.61826103 31.7909312,6.61826103 L46.4335297,6.61826103 C46.6696564,6.61826103 46.8609373,6.80937904 46.8609373,7.04530461 L46.8609373,9.28796923 C46.8609373,9.5238948 46.6696564,9.71501281 46.4335297,9.71501281 L31.7909312,9.71501281 Z" id="Fill-18" fill="#B6BDD6" mask="url(#mask-4)"></path>
                                <path d="M2.0664286,35.398575 C0.929725843,35.398575 -0.000137282942,34.4695037 -0.000137282942,33.333769 L-0.000137282942,21.1301071 C-0.000137282942,19.9948296 0.929725843,19.0653011 2.0664286,19.0653011 L47.88278,19.0653011 C49.0190251,19.0653011 49.9493459,19.9948296 49.9493459,21.1301071 L49.9493459,33.333769 C49.9493459,34.4695037 49.0190251,35.398575 47.88278,35.398575 L2.0664286,35.398575 Z" id="Fill-19" fill="#DDE4F2" mask="url(#mask-4)"></path>
                                <path d="M5.78958774,29.3337332 L5.78958774,29.3337332 C4.93385741,29.3337332 4.24012094,28.6405875 4.24012094,27.7851287 C4.24012094,26.9301271 4.93385741,26.2369814 5.78958774,26.2369814 C6.64577569,26.2369814 7.33951216,26.9301271 7.33951216,27.7851287 C7.33951216,28.6405875 6.64577569,29.3337332 5.78958774,29.3337332" id="Fill-20" fill="#FFFFFF" mask="url(#mask-4)"></path>
                                <path d="M10.5663477,29.3337332 L10.5663477,29.3337332 C9.71015975,29.3337332 9.01642329,28.6405875 9.01642329,27.7851287 C9.01642329,26.9301271 9.71015975,26.2369814 10.5663477,26.2369814 C11.422078,26.2369814 12.1162721,26.9301271 12.1162721,27.7851287 C12.1162721,28.6405875 11.422078,29.3337332 10.5663477,29.3337332" id="Fill-21" fill="#9CDD77" mask="url(#mask-4)"></path>
                                <path d="M15.3431077,29.3337332 L15.3431077,29.3337332 C14.4869197,29.3337332 13.7931832,28.6405875 13.7931832,27.7851287 C13.7931832,26.9301271 14.4869197,26.2369814 15.3431077,26.2369814 C16.198838,26.2369814 16.8925745,26.9301271 16.8925745,27.7851287 C16.8925745,28.6405875 16.198838,29.3337332 15.3431077,29.3337332" id="Fill-22" fill="#FAAD14" mask="url(#mask-4)"></path>
                                <path d="M46.3443873,29.3337332 L31.8802566,29.3337332 C31.5947081,29.3337332 31.3636151,29.102837 31.3636151,28.8175317 L31.3636151,26.7527257 C31.3636151,26.4678775 31.5947081,26.2369814 31.8802566,26.2369814 L46.3443873,26.2369814 C46.6299359,26.2369814 46.8610288,26.4678775 46.8610288,26.7527257 L46.8610288,28.8175317 C46.8610288,29.102837 46.6299359,29.3337332 46.3443873,29.3337332" id="Fill-23" fill="#FFFFFF" mask="url(#mask-4)"></path>
                                <path d="M4.24012094,46.4116814 C4.24012094,45.5566798 4.93385741,44.8635341 5.78958774,44.8635341 C6.64577569,44.8635341 7.33951216,45.5566798 7.33951216,46.4116814 C7.33951216,47.266683 6.64577569,47.9602859 5.78958774,47.9602859 C4.93385741,47.9602859 4.24012094,47.266683 4.24012094,46.4116814 Z" id="Fill-24" fill="#FFFFFF" mask="url(#mask-4)"></path>
                                <path d="M10.5663477,47.9602859 L10.5663477,47.9602859 C9.71015975,47.9602859 9.01642329,47.266683 9.01642329,46.4116814 C9.01642329,45.5566798 9.71015975,44.8635341 10.5663477,44.8635341 C11.422078,44.8635341 12.1162721,45.5566798 12.1162721,46.4116814 C12.1162721,47.266683 11.422078,47.9602859 10.5663477,47.9602859" id="Fill-25" fill="#FFFFFF" mask="url(#mask-4)"></path>
                                <path d="M15.3431077,47.9602859 L15.3431077,47.9602859 C14.4869197,47.9602859 13.7931832,47.266683 13.7931832,46.4116814 C13.7931832,45.5566798 14.4869197,44.8635341 15.3431077,44.8635341 C16.198838,44.8635341 16.8925745,45.5566798 16.8925745,46.4116814 C16.8925745,47.266683 16.198838,47.9602859 15.3431077,47.9602859" id="Fill-26" fill="#FFFFFF" mask="url(#mask-4)"></path>
                                <path d="M46.3443873,47.9602859 L31.8802566,47.9602859 C31.5947081,47.9602859 31.3636151,47.7289325 31.3636151,47.4440844 L31.3636151,45.3792784 C31.3636151,45.0944303 31.5947081,44.8635341 31.8802566,44.8635341 L46.3443873,44.8635341 C46.6299359,44.8635341 46.8610288,45.0944303 46.8610288,45.3792784 L46.8610288,47.4440844 C46.8610288,47.7289325 46.6299359,47.9602859 46.3443873,47.9602859" id="Fill-27" fill="#B6BDD6" mask="url(#mask-4)"></path>
                            </g>
                        </g>
                        <g id="3.通用组件/灰色版/团队" transform="translate(0.000000, 44.000000)">
                            <g id="分组">
                                <g fill="#9CA5CA" id="Fill-3">
                                    <path d="M12.9963138,0.0073577112 C5.82484421,0.0073577112 0.0111166654,5.99563367 0.0111166654,13.3824158 C0.0111166654,20.769198 5.82484421,26.7574739 12.9963138,26.7574739 C20.1675614,26.7574739 25.9815109,20.769198 25.9815109,13.3824158 C25.9815109,5.99563367 20.1675614,0.0073577112 12.9963138,0.0073577112"></path>
                                </g>
                                <g transform="translate(0.000000, 0.061762)">
                                    <g transform="translate(0.000000, 0.012352)">
                                        <mask id="mask-6" fill="white">
                                            <use xlink:href="#path-5"></use>
                                        </mask>
                                        <g id="Clip-14"></g>
                                        <path d="M13.0998918,27.2559903 C16.1380032,27.2559903 18.8976433,26.0574666 20.9825173,24.1074658 C20.4479854,20.1784382 17.180884,15.5402156 13.2190465,15.5402156 C9.19108587,15.5402156 5.87605631,20.2783152 5.42628623,24.3031058 C7.48519917,26.1381453 10.1634058,27.2559903 13.0998918,27.2559903 Z" id="Fill-13" fill="#CCD7EE" mask="url(#mask-6)"></path>
                                    </g>
                                    <g transform="translate(8.593103, 7.460838)" fill="#FFFFFF" id="Fill-15">
                                        <path d="M9.21111263,4.76639809 C9.21111263,7.38308339 7.15175591,9.50426919 4.61156459,9.50426919 C2.07092949,9.50426919 0.0115727716,7.38308339 0.0115727716,4.76639809 C0.0115727716,2.1497128 2.07092949,0.0287555472 4.61156459,0.0287555472 C7.15175591,0.0287555472 9.21111263,2.1497128 9.21111263,4.76639809"></path>
                                    </g>
                                </g>
                            </g>
                        </g>
                    </g>
                </g>
                <g id="编组-16" transform="translate(177.000000, 0.000000)">
                    <text id="确认关联的子域" font-family="PingFangSC-Regular, PingFang SC" font-size="14" font-weight="normal" line-spacing="22" fill="#1A447F" fill-opacity="0.65">
                        <tspan x="7.5" y="93">确认关联的子域</tspan>
                    </text>
                    <g id="编组-12" transform="translate(16.000000, 0.000000)">
                        <g id="3.通用组件/灰色版/服务器备份" transform="translate(13.000000, 0.000000)">
                            <g id="分组">
                                <path d="M25.2076192,64.8301075 L24.4003955,64.8301075 C23.2906917,64.8301075 22.3823363,63.9229828 22.3823363,62.8137669 L22.3823363,46.683956 C22.3823363,45.57474 23.2906917,44.6676153 24.4003955,44.6676153 L25.2076192,44.6676153 C26.317323,44.6676153 27.2256784,45.57474 27.2256784,46.683956 L27.2256784,62.8137669 C27.2256784,63.9229828 26.317323,64.8301075 25.2076192,64.8301075" id="Fill-1" fill="#B6BDD6"></path>
                                <path d="M49.1901254,65.4324493 L49.1901254,65.4324493 C49.1901254,66.7689037 48.1060478,67.8520581 46.7684543,67.8520581 L3.18066272,67.8520581 C1.84306925,67.8520581 0.758991624,66.7689037 0.758991624,65.4324493 C0.758991624,64.0964521 1.84306925,63.0128405 3.18066272,63.0128405 L46.7684543,63.0128405 C48.1060478,63.0128405 49.1901254,64.0964521 49.1901254,65.4324493" id="Fill-3" fill="#B6BDD6"></path>
                                <g transform="translate(16.698672, 61.289898)">
                                    <mask id="mask-8" fill="white">
                                        <use xlink:href="#path-7"></use>
                                    </mask>
                                    <g id="Clip-6"></g>
                                    <path d="M1.21945169,8.23005335 C0.553629418,8.23005335 0.00907374872,7.6855042 0.00907374872,7.02024895 L0.00907374872,1.26476226 C0.00907374872,0.599507003 0.553629418,0.0554150768 1.21945169,0.0554150768 L14.9912188,0.0554150768 C15.6570411,0.0554150768 16.2020543,0.599507003 16.2020543,1.26476226 L16.2020543,7.02024895 C16.2020543,7.6855042 15.6570411,8.23005335 14.9912188,8.23005335 L1.21945169,8.23005335 Z" id="Fill-5" fill="#B6C5E0" mask="url(#mask-8)"></path>
                                </g>
                                <line x1="18.7186206" y1="62.5373316" x2="18.7186206" y2="68.3280242" id="Stroke-7" stroke="#8F9AC9" stroke-width="6" stroke-linecap="round" stroke-linejoin="round"></line>
                                <line x1="30.6882288" y1="62.5373316" x2="30.6882288" y2="68.3280242" id="Stroke-9" stroke="#8F9AC9" stroke-width="6" stroke-linecap="round" stroke-linejoin="round"></line>
                                <mask id="mask-10" fill="white">
                                    <use xlink:href="#path-9"></use>
                                </mask>
                                <g id="Clip-12"></g>
                                <polygon id="Fill-11" fill="#B6BDD6" mask="url(#mask-10)" points="2.27020225 54.0068389 47.6783657 54.0068389 47.6783657 1.00999921 2.27020225 1.00999921"></polygon>
                                <path d="M2.0664286,54.464059 C0.929725843,54.464059 -0.000137282942,53.5349878 -0.000137282942,52.3997102 L-0.000137282942,40.1955912 C-0.000137282942,39.0603136 0.929725843,38.1312424 2.0664286,38.1312424 L47.88278,38.1312424 C49.0190251,38.1312424 49.9493459,39.0603136 49.9493459,40.1955912 L49.9493459,52.3997102 C49.9493459,53.5349878 49.0190251,54.464059 47.88278,54.464059 L2.0664286,54.464059 Z" id="Fill-13" fill="#DDE4F2" mask="url(#mask-10)"></path>
                                <path d="M2.0664286,16.333091 C0.929725843,16.333091 -0.000137282942,15.4040197 -0.000137282942,14.268285 L-0.000137282942,2.06462311 C-0.000137282942,0.929345587 0.929725843,-0.000182888042 2.0664286,-0.000182888042 L47.88278,-0.000182888042 C49.0190251,-0.000182888042 49.9493459,0.929345587 49.9493459,2.06462311 L49.9493459,14.268285 C49.9493459,15.4040197 49.0190251,16.333091 47.88278,16.333091 L2.0664286,16.333091 Z" id="Fill-14" fill="#DDE4F2" mask="url(#mask-10)"></path>
                                <path d="M5.78958774,9.71501281 L5.78958774,9.71501281 C4.93385741,9.71501281 4.24012094,9.02140991 4.24012094,8.16640831 C4.24012094,7.31140671 4.93385741,6.61826103 5.78958774,6.61826103 C6.64577569,6.61826103 7.33951216,7.31140671 7.33951216,8.16640831 C7.33951216,9.02140991 6.64577569,9.71501281 5.78958774,9.71501281" id="Fill-15" fill="#FFFFFF" mask="url(#mask-10)"></path>
                                <path d="M9.01642329,8.16640831 C9.01642329,7.31140671 9.71015975,6.61826103 10.5663477,6.61826103 C11.422078,6.61826103 12.1162721,7.31140671 12.1162721,8.16640831 C12.1162721,9.02140991 11.422078,9.71501281 10.5663477,9.71501281 C9.71015975,9.71501281 9.01642329,9.02140991 9.01642329,8.16640831 Z" id="Fill-16" fill="#FFFFFF" mask="url(#mask-10)"></path>
                                <path d="M15.3431077,9.71501281 L15.3431077,9.71501281 C14.4869197,9.71501281 13.7931832,9.02140991 13.7931832,8.16640831 C13.7931832,7.31140671 14.4869197,6.61826103 15.3431077,6.61826103 C16.198838,6.61826103 16.8925745,7.31140671 16.8925745,8.16640831 C16.8925745,9.02140991 16.198838,9.71501281 15.3431077,9.71501281" id="Fill-17" fill="#FFFFFF" mask="url(#mask-10)"></path>
                                <path d="M31.7909312,9.71501281 C31.5548045,9.71501281 31.3635236,9.5238948 31.3635236,9.28796923 L31.3635236,7.04530461 C31.3635236,6.80937904 31.5548045,6.61826103 31.7909312,6.61826103 L46.4335297,6.61826103 C46.6696564,6.61826103 46.8609373,6.80937904 46.8609373,7.04530461 L46.8609373,9.28796923 C46.8609373,9.5238948 46.6696564,9.71501281 46.4335297,9.71501281 L31.7909312,9.71501281 Z" id="Fill-18" fill="#B6BDD6" mask="url(#mask-10)"></path>
                                <path d="M2.0664286,35.398575 C0.929725843,35.398575 -0.000137282942,34.4695037 -0.000137282942,33.333769 L-0.000137282942,21.1301071 C-0.000137282942,19.9948296 0.929725843,19.0653011 2.0664286,19.0653011 L47.88278,19.0653011 C49.0190251,19.0653011 49.9493459,19.9948296 49.9493459,21.1301071 L49.9493459,33.333769 C49.9493459,34.4695037 49.0190251,35.398575 47.88278,35.398575 L2.0664286,35.398575 Z" id="Fill-19" fill="#DDE4F2" mask="url(#mask-10)"></path>
                                <path d="M5.78958774,29.3337332 L5.78958774,29.3337332 C4.93385741,29.3337332 4.24012094,28.6405875 4.24012094,27.7851287 C4.24012094,26.9301271 4.93385741,26.2369814 5.78958774,26.2369814 C6.64577569,26.2369814 7.33951216,26.9301271 7.33951216,27.7851287 C7.33951216,28.6405875 6.64577569,29.3337332 5.78958774,29.3337332" id="Fill-20" fill="#FFFFFF" mask="url(#mask-10)"></path>
                                <path d="M10.5663477,29.3337332 L10.5663477,29.3337332 C9.71015975,29.3337332 9.01642329,28.6405875 9.01642329,27.7851287 C9.01642329,26.9301271 9.71015975,26.2369814 10.5663477,26.2369814 C11.422078,26.2369814 12.1162721,26.9301271 12.1162721,27.7851287 C12.1162721,28.6405875 11.422078,29.3337332 10.5663477,29.3337332" id="Fill-21" fill="#9CDD77" mask="url(#mask-10)"></path>
                                <path d="M15.3431077,29.3337332 L15.3431077,29.3337332 C14.4869197,29.3337332 13.7931832,28.6405875 13.7931832,27.7851287 C13.7931832,26.9301271 14.4869197,26.2369814 15.3431077,26.2369814 C16.198838,26.2369814 16.8925745,26.9301271 16.8925745,27.7851287 C16.8925745,28.6405875 16.198838,29.3337332 15.3431077,29.3337332" id="Fill-22" fill="#FAAD14" mask="url(#mask-10)"></path>
                                <path d="M46.3443873,29.3337332 L31.8802566,29.3337332 C31.5947081,29.3337332 31.3636151,29.102837 31.3636151,28.8175317 L31.3636151,26.7527257 C31.3636151,26.4678775 31.5947081,26.2369814 31.8802566,26.2369814 L46.3443873,26.2369814 C46.6299359,26.2369814 46.8610288,26.4678775 46.8610288,26.7527257 L46.8610288,28.8175317 C46.8610288,29.102837 46.6299359,29.3337332 46.3443873,29.3337332" id="Fill-23" fill="#FFFFFF" mask="url(#mask-10)"></path>
                                <path d="M4.24012094,46.4116814 C4.24012094,45.5566798 4.93385741,44.8635341 5.78958774,44.8635341 C6.64577569,44.8635341 7.33951216,45.5566798 7.33951216,46.4116814 C7.33951216,47.266683 6.64577569,47.9602859 5.78958774,47.9602859 C4.93385741,47.9602859 4.24012094,47.266683 4.24012094,46.4116814 Z" id="Fill-24" fill="#FFFFFF" mask="url(#mask-10)"></path>
                                <path d="M10.5663477,47.9602859 L10.5663477,47.9602859 C9.71015975,47.9602859 9.01642329,47.266683 9.01642329,46.4116814 C9.01642329,45.5566798 9.71015975,44.8635341 10.5663477,44.8635341 C11.422078,44.8635341 12.1162721,45.5566798 12.1162721,46.4116814 C12.1162721,47.266683 11.422078,47.9602859 10.5663477,47.9602859" id="Fill-25" fill="#FFFFFF" mask="url(#mask-10)"></path>
                                <path d="M15.3431077,47.9602859 L15.3431077,47.9602859 C14.4869197,47.9602859 13.7931832,47.266683 13.7931832,46.4116814 C13.7931832,45.5566798 14.4869197,44.8635341 15.3431077,44.8635341 C16.198838,44.8635341 16.8925745,45.5566798 16.8925745,46.4116814 C16.8925745,47.266683 16.198838,47.9602859 15.3431077,47.9602859" id="Fill-26" fill="#FFFFFF" mask="url(#mask-10)"></path>
                                <path d="M46.3443873,47.9602859 L31.8802566,47.9602859 C31.5947081,47.9602859 31.3636151,47.7289325 31.3636151,47.4440844 L31.3636151,45.3792784 C31.3636151,45.0944303 31.5947081,44.8635341 31.8802566,44.8635341 L46.3443873,44.8635341 C46.6299359,44.8635341 46.8610288,45.0944303 46.8610288,45.3792784 L46.8610288,47.4440844 C46.8610288,47.7289325 46.6299359,47.9602859 46.3443873,47.9602859" id="Fill-27" fill="#B6BDD6" mask="url(#mask-10)"></path>
                            </g>
                        </g>
                        <g id="3.通用组件/灰色版/团队备份" transform="translate(0.000000, 45.000000)">
                            <g id="分组">
                                <g fill="#9CA5CA" id="Fill-3">
                                    <path d="M12.9963138,0.00709880783 C5.82484421,0.00709880783 0.0111166654,5.78465913 0.0111166654,12.911515 C0.0111166654,20.0383708 5.82484421,25.8159311 12.9963138,25.8159311 C20.1675614,25.8159311 25.9815109,20.0383708 25.9815109,12.911515 C25.9815109,5.78465913 20.1675614,0.00709880783 12.9963138,0.00709880783"></path>
                                </g>
                                <g transform="translate(0.000000, 0.059589)">
                                    <g>
                                        <mask id="mask-12" fill="white">
                                            <use xlink:href="#path-11"></use>
                                        </mask>
                                        <g id="Clip-6"></g>
                                        <path d="M21.2425718,24.4932613 C23.3101385,24.4932613 25.1877677,23.7062641 26.6063074,22.425988 C26.2424086,19.8466924 24.0195193,16.3399353 21.3235615,16.3399353 C18.5830039,16.3399353 16.3274969,19.9124041 16.0212893,22.5545448 C17.4222998,23.7594068 19.2444566,24.4932613 21.2425718,24.4932613 Z" id="Fill-5" fill="#A3B5D6" mask="url(#mask-12)"></path>
                                    </g>
                                    <g transform="translate(0.000000, 0.011918)">
                                        <mask id="mask-14" fill="white">
                                            <use xlink:href="#path-13"></use>
                                        </mask>
                                        <g id="Clip-8"></g>
                                        <path d="M24.4435724,13.6623045 C24.4435724,15.3800708 23.0425619,16.7725861 21.3140425,16.7725861 C19.5853011,16.7725861 18.1840688,15.3800708 18.1840688,13.6623045 C18.1840688,11.9445382 19.5853011,10.5520229 21.3140425,10.5520229 C23.0425619,10.5520229 24.4435724,11.9445382 24.4435724,13.6623045" id="Fill-7" fill="#F1F2F6" mask="url(#mask-14)"></path>
                                    </g>
                                    <g transform="translate(0.000000, 0.011918)">
                                        <mask id="mask-16" fill="white">
                                            <use xlink:href="#path-15"></use>
                                        </mask>
                                        <g id="Clip-10"></g>
                                        <path d="M4.33368001,24.1773937 C6.40124663,24.1773937 8.27887583,23.3903966 9.69741558,22.1101204 C9.33351675,19.5308249 7.11062746,16.3281499 4.41466968,16.3281499 C1.67411212,16.3281499 -0.581394943,19.5965366 -0.887602492,22.2386773 C0.513407991,23.4433188 2.3355648,24.1773937 4.33368001,24.1773937 Z" id="Fill-9" fill="#A3B5D6" mask="url(#mask-16)"></path>
                                    </g>
                                    <g>
                                        <mask id="mask-18" fill="white">
                                            <use xlink:href="#path-17"></use>
                                        </mask>
                                        <g id="Clip-12"></g>
                                        <path d="M7.53468053,13.6742222 C7.53468053,15.3919885 6.13367005,16.7845038 4.40515062,16.7845038 C2.67618742,16.7845038 1.27517693,15.3919885 1.27517693,13.6742222 C1.27517693,11.9564559 2.67618742,10.5639406 4.40515062,10.5639406 C6.13367005,10.5639406 7.53468053,11.9564559 7.53468053,13.6742222" id="Fill-11" fill="#F1F2F6" mask="url(#mask-18)"></path>
                                    </g>
                                    <g transform="translate(0.000000, 0.011918)">
                                        <mask id="mask-20" fill="white">
                                            <use xlink:href="#path-19"></use>
                                        </mask>
                                        <g id="Clip-14"></g>
                                        <path d="M13.0998918,26.2969057 C16.1380032,26.2969057 18.8976433,25.1405557 20.9825173,23.2591716 C20.4479854,19.4683987 17.180884,14.993386 13.2190465,14.993386 C9.19108587,14.993386 5.87605631,19.5647612 5.42628623,23.4479274 C7.48519917,25.2183954 10.1634058,26.2969057 13.0998918,26.2969057 Z" id="Fill-13" fill="#CCD7EE" mask="url(#mask-20)"></path>
                                    </g>
                                    <g transform="translate(8.593103, 7.198306)" fill="#FFFFFF" id="Fill-15">
                                        <path d="M9.21111263,4.59867793 C9.21111263,7.12328722 7.15175591,9.16983267 4.61156459,9.16983267 C2.07092949,9.16983267 0.0115727716,7.12328722 0.0115727716,4.59867793 C0.0115727716,2.07406864 2.07092949,0.0277436961 4.61156459,0.0277436961 C7.15175591,0.0277436961 9.21111263,2.07406864 9.21111263,4.59867793"></path>
                                    </g>
                                </g>
                            </g>
                        </g>
                    </g>
                </g>
                <g id="编组-17" transform="translate(332.000000, 0.000000)">
                    <g id="编组-19">
                        <text id="完成" font-family="PingFangSC-Regular, PingFang SC" font-size="14" font-weight="normal" line-spacing="22" fill="#1A447F" fill-opacity="0.65">
                            <tspan x="17.5" y="93">完成</tspan>
                        </text>
                        <g id="编组-12备份">
                            <g id="3.通用组件/灰色版/服务器备份" transform="translate(13.000000, 0.000000)">
                                <g id="分组">
                                    <path d="M25.2076192,64.8301075 L24.4003955,64.8301075 C23.2906917,64.8301075 22.3823363,63.9229828 22.3823363,62.8137669 L22.3823363,46.683956 C22.3823363,45.57474 23.2906917,44.6676153 24.4003955,44.6676153 L25.2076192,44.6676153 C26.317323,44.6676153 27.2256784,45.57474 27.2256784,46.683956 L27.2256784,62.8137669 C27.2256784,63.9229828 26.317323,64.8301075 25.2076192,64.8301075" id="Fill-1" fill="#B6BDD6"></path>
                                    <path d="M49.1901254,65.4324493 L49.1901254,65.4324493 C49.1901254,66.7689037 48.1060478,67.8520581 46.7684543,67.8520581 L3.18066272,67.8520581 C1.84306925,67.8520581 0.758991624,66.7689037 0.758991624,65.4324493 C0.758991624,64.0964521 1.84306925,63.0128405 3.18066272,63.0128405 L46.7684543,63.0128405 C48.1060478,63.0128405 49.1901254,64.0964521 49.1901254,65.4324493" id="Fill-3" fill="#B6BDD6"></path>
                                    <g transform="translate(16.698672, 61.289898)">
                                        <mask id="mask-22" fill="white">
                                            <use xlink:href="#path-21"></use>
                                        </mask>
                                        <g id="Clip-6"></g>
                                        <path d="M1.21945169,8.23005335 C0.553629418,8.23005335 0.00907374872,7.6855042 0.00907374872,7.02024895 L0.00907374872,1.26476226 C0.00907374872,0.599507003 0.553629418,0.0554150768 1.21945169,0.0554150768 L14.9912188,0.0554150768 C15.6570411,0.0554150768 16.2020543,0.599507003 16.2020543,1.26476226 L16.2020543,7.02024895 C16.2020543,7.6855042 15.6570411,8.23005335 14.9912188,8.23005335 L1.21945169,8.23005335 Z" id="Fill-5" fill="#B6C5E0" mask="url(#mask-22)"></path>
                                    </g>
                                    <line x1="18.7186206" y1="62.5373316" x2="18.7186206" y2="68.3280242" id="Stroke-7" stroke="#8F9AC9" stroke-width="6" stroke-linecap="round" stroke-linejoin="round"></line>
                                    <line x1="30.6882288" y1="62.5373316" x2="30.6882288" y2="68.3280242" id="Stroke-9" stroke="#8F9AC9" stroke-width="6" stroke-linecap="round" stroke-linejoin="round"></line>
                                    <mask id="mask-24" fill="white">
                                        <use xlink:href="#path-23"></use>
                                    </mask>
                                    <g id="Clip-12"></g>
                                    <polygon id="Fill-11" fill="#B6BDD6" mask="url(#mask-24)" points="2.27020225 54.0068389 47.6783657 54.0068389 47.6783657 1.00999921 2.27020225 1.00999921"></polygon>
                                    <path d="M2.0664286,54.464059 C0.929725843,54.464059 -0.000137282942,53.5349878 -0.000137282942,52.3997102 L-0.000137282942,40.1955912 C-0.000137282942,39.0603136 0.929725843,38.1312424 2.0664286,38.1312424 L47.88278,38.1312424 C49.0190251,38.1312424 49.9493459,39.0603136 49.9493459,40.1955912 L49.9493459,52.3997102 C49.9493459,53.5349878 49.0190251,54.464059 47.88278,54.464059 L2.0664286,54.464059 Z" id="Fill-13" fill="#DDE4F2" mask="url(#mask-24)"></path>
                                    <path d="M2.0664286,16.333091 C0.929725843,16.333091 -0.000137282942,15.4040197 -0.000137282942,14.268285 L-0.000137282942,2.06462311 C-0.000137282942,0.929345587 0.929725843,-0.000182888042 2.0664286,-0.000182888042 L47.88278,-0.000182888042 C49.0190251,-0.000182888042 49.9493459,0.929345587 49.9493459,2.06462311 L49.9493459,14.268285 C49.9493459,15.4040197 49.0190251,16.333091 47.88278,16.333091 L2.0664286,16.333091 Z" id="Fill-14" fill="#DDE4F2" mask="url(#mask-24)"></path>
                                    <path d="M5.78958774,9.71501281 L5.78958774,9.71501281 C4.93385741,9.71501281 4.24012094,9.02140991 4.24012094,8.16640831 C4.24012094,7.31140671 4.93385741,6.61826103 5.78958774,6.61826103 C6.64577569,6.61826103 7.33951216,7.31140671 7.33951216,8.16640831 C7.33951216,9.02140991 6.64577569,9.71501281 5.78958774,9.71501281" id="Fill-15" fill="#FFFFFF" mask="url(#mask-24)"></path>
                                    <path d="M9.01642329,8.16640831 C9.01642329,7.31140671 9.71015975,6.61826103 10.5663477,6.61826103 C11.422078,6.61826103 12.1162721,7.31140671 12.1162721,8.16640831 C12.1162721,9.02140991 11.422078,9.71501281 10.5663477,9.71501281 C9.71015975,9.71501281 9.01642329,9.02140991 9.01642329,8.16640831 Z" id="Fill-16" fill="#FFFFFF" mask="url(#mask-24)"></path>
                                    <path d="M15.3431077,9.71501281 L15.3431077,9.71501281 C14.4869197,9.71501281 13.7931832,9.02140991 13.7931832,8.16640831 C13.7931832,7.31140671 14.4869197,6.61826103 15.3431077,6.61826103 C16.198838,6.61826103 16.8925745,7.31140671 16.8925745,8.16640831 C16.8925745,9.02140991 16.198838,9.71501281 15.3431077,9.71501281" id="Fill-17" fill="#FFFFFF" mask="url(#mask-24)"></path>
                                    <path d="M31.7909312,9.71501281 C31.5548045,9.71501281 31.3635236,9.5238948 31.3635236,9.28796923 L31.3635236,7.04530461 C31.3635236,6.80937904 31.5548045,6.61826103 31.7909312,6.61826103 L46.4335297,6.61826103 C46.6696564,6.61826103 46.8609373,6.80937904 46.8609373,7.04530461 L46.8609373,9.28796923 C46.8609373,9.5238948 46.6696564,9.71501281 46.4335297,9.71501281 L31.7909312,9.71501281 Z" id="Fill-18" fill="#B6BDD6" mask="url(#mask-24)"></path>
                                    <path d="M2.0664286,35.398575 C0.929725843,35.398575 -0.000137282942,34.4695037 -0.000137282942,33.333769 L-0.000137282942,21.1301071 C-0.000137282942,19.9948296 0.929725843,19.0653011 2.0664286,19.0653011 L47.88278,19.0653011 C49.0190251,19.0653011 49.9493459,19.9948296 49.9493459,21.1301071 L49.9493459,33.333769 C49.9493459,34.4695037 49.0190251,35.398575 47.88278,35.398575 L2.0664286,35.398575 Z" id="Fill-19" fill="#DDE4F2" mask="url(#mask-24)"></path>
                                    <path d="M5.78958774,29.3337332 L5.78958774,29.3337332 C4.93385741,29.3337332 4.24012094,28.6405875 4.24012094,27.7851287 C4.24012094,26.9301271 4.93385741,26.2369814 5.78958774,26.2369814 C6.64577569,26.2369814 7.33951216,26.9301271 7.33951216,27.7851287 C7.33951216,28.6405875 6.64577569,29.3337332 5.78958774,29.3337332" id="Fill-20" fill="#FFFFFF" mask="url(#mask-24)"></path>
                                    <path d="M10.5663477,29.3337332 L10.5663477,29.3337332 C9.71015975,29.3337332 9.01642329,28.6405875 9.01642329,27.7851287 C9.01642329,26.9301271 9.71015975,26.2369814 10.5663477,26.2369814 C11.422078,26.2369814 12.1162721,26.9301271 12.1162721,27.7851287 C12.1162721,28.6405875 11.422078,29.3337332 10.5663477,29.3337332" id="Fill-21" fill="#9CDD77" mask="url(#mask-24)"></path>
                                    <path d="M15.3431077,29.3337332 L15.3431077,29.3337332 C14.4869197,29.3337332 13.7931832,28.6405875 13.7931832,27.7851287 C13.7931832,26.9301271 14.4869197,26.2369814 15.3431077,26.2369814 C16.198838,26.2369814 16.8925745,26.9301271 16.8925745,27.7851287 C16.8925745,28.6405875 16.198838,29.3337332 15.3431077,29.3337332" id="Fill-22" fill="#FAAD14" mask="url(#mask-24)"></path>
                                    <path d="M46.3443873,29.3337332 L31.8802566,29.3337332 C31.5947081,29.3337332 31.3636151,29.102837 31.3636151,28.8175317 L31.3636151,26.7527257 C31.3636151,26.4678775 31.5947081,26.2369814 31.8802566,26.2369814 L46.3443873,26.2369814 C46.6299359,26.2369814 46.8610288,26.4678775 46.8610288,26.7527257 L46.8610288,28.8175317 C46.8610288,29.102837 46.6299359,29.3337332 46.3443873,29.3337332" id="Fill-23" fill="#FFFFFF" mask="url(#mask-24)"></path>
                                    <path d="M4.24012094,46.4116814 C4.24012094,45.5566798 4.93385741,44.8635341 5.78958774,44.8635341 C6.64577569,44.8635341 7.33951216,45.5566798 7.33951216,46.4116814 C7.33951216,47.266683 6.64577569,47.9602859 5.78958774,47.9602859 C4.93385741,47.9602859 4.24012094,47.266683 4.24012094,46.4116814 Z" id="Fill-24" fill="#FFFFFF" mask="url(#mask-24)"></path>
                                    <path d="M10.5663477,47.9602859 L10.5663477,47.9602859 C9.71015975,47.9602859 9.01642329,47.266683 9.01642329,46.4116814 C9.01642329,45.5566798 9.71015975,44.8635341 10.5663477,44.8635341 C11.422078,44.8635341 12.1162721,45.5566798 12.1162721,46.4116814 C12.1162721,47.266683 11.422078,47.9602859 10.5663477,47.9602859" id="Fill-25" fill="#FFFFFF" mask="url(#mask-24)"></path>
                                    <path d="M15.3431077,47.9602859 L15.3431077,47.9602859 C14.4869197,47.9602859 13.7931832,47.266683 13.7931832,46.4116814 C13.7931832,45.5566798 14.4869197,44.8635341 15.3431077,44.8635341 C16.198838,44.8635341 16.8925745,45.5566798 16.8925745,46.4116814 C16.8925745,47.266683 16.198838,47.9602859 15.3431077,47.9602859" id="Fill-26" fill="#FFFFFF" mask="url(#mask-24)"></path>
                                    <path d="M46.3443873,47.9602859 L31.8802566,47.9602859 C31.5947081,47.9602859 31.3636151,47.7289325 31.3636151,47.4440844 L31.3636151,45.3792784 C31.3636151,45.0944303 31.5947081,44.8635341 31.8802566,44.8635341 L46.3443873,44.8635341 C46.6299359,44.8635341 46.8610288,45.0944303 46.8610288,45.3792784 L46.8610288,47.4440844 C46.8610288,47.7289325 46.6299359,47.9602859 46.3443873,47.9602859" id="Fill-27" fill="#B6BDD6" mask="url(#mask-24)"></path>
                                </g>
                            </g>
                            <g id="3.通用组件/彩色版/勾号" transform="translate(0.000000, 45.000000)">
                                <g id="分组">
                                    <g>
                                        <mask id="mask-26" fill="white">
                                            <use xlink:href="#path-25"></use>
                                        </mask>
                                        <g id="Clip-2"></g>
                                        <path d="M13,-2.90178572e-06 C5.82028571,-2.90178572e-06 0,5.82028281 0,12.9999971 C0,20.1796824 5.82028571,25.9999971 13,25.9999971 C20.1797143,25.9999971 26,20.1796824 26,12.9999971 C26,5.82028281 20.1797143,-2.90178572e-06 13,-2.90178572e-06" id="Fill-1" fill="#A9DC8D" mask="url(#mask-26)"></path>
                                    </g>
                                    <path d="M10.905285,17.41601 L10.084544,16.595269 L18.0377873,8.61300781 C18.3097426,8.34102344 18.750698,8.34102344 19.0226824,8.61300781 L19.3509904,8.94128683 C19.6229458,9.21327121 19.6229458,9.65422656 19.3509904,9.92621094 L11.8901801,17.41601 C11.6182248,17.6879944 11.1772694,17.6879944 10.905285,17.41601" id="Fill-3" fill="#FFFFFF"></path>
                                    <path d="M12.7094384,16.5952632 L11.8886973,17.4160042 C11.6167129,17.6879886 11.1757576,17.6879886 10.9038022,17.4160042 L7.63563705,14.1478391 C7.36365268,13.8758837 7.36365268,13.4349283 7.63563705,13.162944 L7.96391607,12.834665 C8.23590045,12.5626806 8.6768558,12.5626806 8.94884018,12.834665 L12.7094384,16.5952632 Z" id="Fill-5" fill="#FFFFFF"></path>
                                </g>
                            </g>
                        </g>
                    </g>
                </g>
                <line x1="270.5" y1="37.5" x2="326.5" y2="37.5" id="直线备份" stroke-opacity="0.25" stroke="#1A447F" stroke-linecap="square" stroke-dasharray="1,3"></line>
                <line x1="129.5" y1="37.5" x2="185.5" y2="37.5" id="直线" stroke-opacity="0.25" stroke="#1A447F" stroke-linecap="square" stroke-dasharray="1,3"></line>
            </g>
        </g>
    </g>
</svg>