<?xml version="1.0" standalone="no"?><!DOCTYPE svg PUBLIC "-//W3C//DTD SVG 1.1//EN" "http://www.w3.org/Graphics/SVG/1.1/DTD/svg11.dtd"><svg t="1606273241194" class="icon" viewBox="0 0 1024 1024" version="1.1" xmlns="http://www.w3.org/2000/svg" p-id="4596" xmlns:xlink="http://www.w3.org/1999/xlink" width="200" height="200"><defs><style type="text/css"></style></defs><path d="M500.189867 34.133333a466.1248 466.1248 0 1 0 0.136533 932.2496A466.1248 466.1248 0 0 0 500.189867 34.133333z" fill="#FE6A71" p-id="4597"></path><path d="M675.157333 759.671467H557.943467v98.0992a57.821867 57.821867 0 1 1-115.575467 0v-98.0992H325.290667a58.368 58.368 0 1 1 0-116.736H442.368v-7.236267a233.0624 233.0624 0 1 1 115.5072 0v7.168h117.077333c32.221867 0 58.436267 26.146133 58.504534 58.436267a58.299733 58.299733 0 0 1-58.299734 58.368z" fill="#FFFFFF" p-id="4598"></path><path d="M582.314667 326.519467a116.804267 116.804267 0 1 0-165.205334 165.205333 116.804267 116.804267 0 0 0 165.205334-165.205333z" fill="#FE6A71" p-id="4599"></path></svg>