<?xml version="1.0" standalone="no"?><!DOCTYPE svg PUBLIC "-//W3C//DTD SVG 1.1//EN" "http://www.w3.org/Graphics/SVG/1.1/DTD/svg11.dtd"><svg t="1606273237008" class="icon" viewBox="0 0 1024 1024" version="1.1" xmlns="http://www.w3.org/2000/svg" p-id="4470" xmlns:xlink="http://www.w3.org/1999/xlink" width="200" height="200"><defs><style type="text/css"></style></defs><path d="M500.189867 34.133333a466.1248 466.1248 0 1 0 0.136533 932.2496A466.1248 466.1248 0 0 0 500.189867 34.133333z" fill="#5AA6FF" p-id="4471"></path><path d="M751.479467 198.656h-251.221334a50.3808 50.3808 0 0 0-50.312533 50.312533c0 27.648 22.664533 50.244267 50.244267 50.244267h130.6624L502.715733 427.349333a203.707733 203.707733 0 0 0-103.0144-27.648A201.591467 201.591467 0 0 0 198.724267 600.746667a201.591467 201.591467 0 0 0 200.977066 200.977066A201.591467 201.591467 0 0 0 600.746667 600.746667c0-37.6832-10.103467-72.9088-27.648-103.082667l128.136533-128.136533v130.6624c0 27.648 22.596267 50.312533 50.244267 50.312533a50.3808 50.3808 0 0 0 50.244266-50.312533v-251.221334a50.3808 50.3808 0 0 0-50.244266-50.244266z m-351.778134 502.5792c-55.296 0-100.488533-45.2608-100.488533-100.488533 0-55.296 45.192533-100.5568 100.488533-100.5568 55.296 0 100.488533 45.2608 100.488534 100.5568s-45.192533 100.488533-100.488534 100.488533z" fill="#FFFFFF" p-id="4472"></path></svg>