<?xml version="1.0" encoding="UTF-8"?>
<svg width="10px" height="10px" viewBox="0 0 10 10" version="1.1" xmlns="http://www.w3.org/2000/svg" xmlns:xlink="http://www.w3.org/1999/xlink">
    <!-- Generator: Sketch 61 (89581) - https://sketch.com -->
    <title>arrowdown</title>
    <desc>Created with Sketch.</desc>
    <g id="类型页" stroke="none" stroke-width="1" fill="none" fill-rule="evenodd">
        <g id="规范" transform="translate(-248.000000, -766.000000)" fill-rule="nonzero">
            <g id="arrowdown" transform="translate(253.000000, 771.000000) rotate(-180.000000) translate(-253.000000, -771.000000) translate(246.000000, 764.000000)">
                <rect id="矩形" fill="#000000" opacity="0" x="0" y="0" width="14" height="14"></rect>
                <path d="M11.6409346,7.43440621 L7.31417563,2.47624504 C7.1486142,2.2856961 6.8513858,2.2856961 6.68452074,2.47624504 L2.35906538,7.43440621 C2.30040188,7.50181128 2.34863631,7.60551138 2.43728337,7.60551138 L3.49322637,7.60551138 C3.5531935,7.60551138 3.61055336,7.57958636 3.650966,7.53421756 L6.50461934,4.26377556 L6.50461934,11.5629666 C6.50461934,11.6200016 6.55155014,11.6666667 6.60891,11.6666667 L7.39109,11.6666667 C7.44844986,11.6666667 7.49538066,11.6200016 7.49538066,11.5629666 L7.49538066,4.26377556 L10.349034,7.53421756 C10.388143,7.57958636 10.4455029,7.60551138 10.5067736,7.60551138 L11.5627166,7.60551138 C11.6513637,7.60551138 11.6995981,7.50181128 11.6409346,7.43440621 Z" id="路径" fill="#F5222D"></path>
            </g>
        </g>
    </g>
</svg>