<?xml version="1.0" encoding="UTF-8"?>
<svg width="41px" height="37px" viewBox="0 0 41 37" version="1.1" xmlns="http://www.w3.org/2000/svg" xmlns:xlink="http://www.w3.org/1999/xlink">
    <!-- Generator: Sketch 61 (89581) - https://sketch.com -->
    <title>home_tie</title>
    <desc>Created with Sketch.</desc>
    <g id="类型页" stroke="none" stroke-width="1" fill="none" fill-rule="evenodd">
        <g id="规范" transform="translate(-194.000000, -817.000000)">
            <g id="home_tie" transform="translate(190.000000, 811.000000)">
                <g id="编组-18" transform="translate(4.000000, 6.000000)">
                    <rect id="矩形备份-10" fill="#DCEAFF" x="0" y="0" width="33" height="33" rx="4"></rect>
                    <rect id="矩形" fill="#2980FF" x="8" y="8" width="33" height="29" rx="4"></rect>
                    <g id="绑定" transform="translate(16.000000, 15.000000)" fill-rule="nonzero">
                        <rect id="矩形" fill="#000000" opacity="0" x="0" y="0" width="16" height="15"></rect>
                        <path d="M15.0772663,5.0478189 L12.8494582,7.13874417 C12.0211474,7.91608411 10.8472114,8.16785201 9.79252381,7.89859003 L11.6519859,6.15757642 C11.6795835,6.13513543 11.7096114,6.11801611 11.7355781,6.0936713 L13.9633702,4.00274604 C14.5783195,3.42506651 14.5783195,2.48912554 13.9633702,1.91143102 C13.3484049,1.33412626 12.3509111,1.33412626 11.7355781,1.91143102 L9.507786,4.00274602 C9.507786,4.00274602 9.507786,4.00274602 9.507786,4.0031208 L9.50613909,4.00160674 L7.57934595,5.80538618 C7.30188327,4.82116034 7.57167108,3.7289119 8.39387394,2.95689364 L10.6216661,0.865968383 C11.8523641,-0.288656128 13.84692,-0.288656128 15.0772503,0.865968383 C16.3075806,2.02057789 16.3075806,3.89320938 15.0772663,5.0478189 Z M5.91540126,10.5371685 L5.91297088,10.534905 C5.76773987,10.6725641 5.56614651,10.7585204 5.34304752,10.7585204 C4.90089482,10.7585204 4.54270204,10.4230898 4.54270204,10.009303 C4.54270204,9.79252322 4.64247541,9.59857424 4.79989027,9.46166468 L10.094754,4.50397327 C10.2411842,4.35718487 10.44807,4.26362825 10.6796753,4.26362825 C11.121844,4.26362825 11.4800368,4.59905894 11.4800368,5.01284573 C11.4800368,5.21745305 11.3916158,5.40303725 11.2496147,5.53843277 L11.252045,5.54072634 L5.91540126,10.5371685 Z M4.2644399,8.90641114 L2.03664778,10.9973664 C1.4216985,11.5746412 1.4216985,12.5110019 2.03664778,13.0882467 C2.65158108,13.6655664 3.64907488,13.6655664 4.2644399,13.0882467 L6.49221602,10.9973664 C6.5076457,10.9821359 6.51818267,10.9650166 6.53359637,10.9498161 L8.41822568,9.18480243 C8.69973366,10.1720564 8.4307613,11.2681424 7.60611207,12.0427841 L5.37831995,14.1337393 C4.14758992,15.2887536 2.15303404,15.2887536 0.92273573,14.1337393 C-0.307578577,12.978785 -0.307578577,11.1068731 0.92273573,9.95151401 L3.15052785,7.86058874 C3.97642425,7.08552739 5.14546747,6.83338471 6.19770871,7.09882408 L4.28023734,8.89426872 C4.27499285,8.89881088 4.26930065,8.90185398 4.2644399,8.90641114 Z" id="形状" fill="#FFFFFF"></path>
                    </g>
                </g>
                <rect id="矩形" x="0" y="0" width="50" height="50"></rect>
            </g>
        </g>
    </g>
</svg>