<?xml version="1.0" encoding="UTF-8"?>
<svg width="50px" height="39px" viewBox="0 0 50 39" version="1.1" xmlns="http://www.w3.org/2000/svg" xmlns:xlink="http://www.w3.org/1999/xlink">
    <!-- Generator: Sketch 61 (89581) - https://sketch.com -->
    <title>home_mana</title>
    <desc>Created with Sketch.</desc>
    <g id="类型页" stroke="none" stroke-width="1" fill="none" fill-rule="evenodd">
        <g id="规范" transform="translate(-460.000000, -818.000000)">
            <g id="home_mana" transform="translate(460.000000, 811.000000)">
                <g id="编组-20" transform="translate(0.000000, 7.000000)">
                    <rect id="矩形备份-13" fill="#DCEAFF" x="0" y="0" width="28" height="28" rx="4"></rect>
                    <g id="人才" transform="translate(7.000000, 1.000000)" fill="#2980FF" fill-rule="nonzero">
                        <path d="M14.3895748,34.8422683 C14.444901,34.3203116 14.4810759,33.862268 14.5427859,33.4127462 C14.6491825,32.6287459 14.7768584,31.851137 14.8917668,31.0692673 C14.947093,30.6772672 14.9832678,30.2831366 15.0300823,29.8911365 L15.2705386,28.0802665 C15.3173531,27.7308751 15.3641676,27.3772228 15.4024704,27.025701 C15.4556687,26.4994834 15.4939715,25.9711355 15.5514256,25.4449179 C15.5812167,25.1637005 15.6407988,24.8846135 15.6684619,24.603396 C15.728044,24.0239175 15.4897156,23.5019609 15.3343766,22.9629608 C15.2833062,22.7712216 15.2088286,22.5794824 15.1832934,22.3856128 C15.1769096,22.3238302 15.2982017,22.1853519 15.3599118,22.1853519 C16.4877157,22.1725692 17.6133917,22.1768301 18.7390677,22.1768301 C18.9007905,22.1768301 18.9603726,22.215178 18.9007905,22.396265 C18.7731146,22.7776129 18.6752297,23.1632217 18.5688331,23.5467 C18.5262745,23.7000914 18.4730762,23.8534827 18.447541,24.011135 C18.3581678,24.5480047 18.4347734,25.0763526 18.5454259,25.6089615 C18.6262873,25.9860485 18.6518224,26.3716573 18.6879973,26.7551357 C18.7390677,27.3133097 18.7688587,27.8736142 18.8369525,28.4296579 C18.9412212,29.2434842 19.071025,30.0530496 19.1838054,30.8647455 C19.2370037,31.2269195 19.2816903,31.5890935 19.3157372,31.9512675 C19.3710634,32.4987894 19.4114942,33.0484417 19.4646924,33.5938332 C19.4966114,33.9283115 19.541298,34.2606594 19.5944963,34.5908769 C19.603008,34.65479 19.6881253,34.7059204 19.792394,34.8230944 C19.9498609,34.2201812 20.0754089,33.7003549 20.2201083,33.1847896 C20.3648076,32.6564416 20.5307864,32.1344849 20.6818695,31.6082674 C20.7861382,31.2418325 20.8733834,30.8690064 20.9712683,30.500441 C21.0840486,30.0999192 21.2032128,29.7015278 21.3117374,29.2988755 C21.4138781,28.9324406 21.4989954,28.5617449 21.603264,28.19531 C21.7096606,27.8011795 21.8266969,27.4091793 21.9373494,27.0150488 C22.0352342,26.6528748 22.1309912,26.282179 22.2331319,25.9178746 C22.3459123,25.5045701 22.4672044,25.0955265 22.5799848,24.6800917 C22.6799976,24.3030046 22.7651149,23.9216567 22.8672556,23.5467 C22.9736522,23.1525695 23.0970722,22.7626998 23.2077247,22.3728302 C23.3077375,22.014917 23.3949827,21.6548734 23.4928676,21.2969603 C23.5354262,21.1329168 23.5396821,20.913482 23.6460787,20.8240037 C23.7737546,20.7174819 24.0269785,20.649308 24.1738058,20.7004384 C24.854744,20.943308 25.5144029,21.2394386 26.1868294,21.5014821 C26.8805352,21.7720474 27.5827527,22.0234388 28.2785865,22.2876127 C28.8318488,22.4985258 29.3851111,22.7115694 29.9341175,22.9310042 C30.6427188,23.2143521 31.3194012,23.5488305 31.9386294,23.9983523 C32.4961475,24.4052655 32.9345015,24.9059178 33.1834696,25.5322658 C33.29625,25.8092224 33.2919941,26.1287877 33.3239131,26.4334399 C33.3792393,26.9894835 33.4090304,27.5497881 33.4664845,28.1079621 C33.5367063,28.7641362 33.6239515,29.4181798 33.700557,30.074354 L33.7090688,30.1638322 C33.7580112,30.8285281 33.8048257,31.4868326 33.858024,32.1472676 C33.8941988,32.6053112 33.9303737,33.0633547 33.9920837,33.515007 C34.0878407,34.2457464 33.2983779,35.0063118 32.5174269,34.9999605 C28.2360279,34.9615726 23.9567567,34.9722248 19.6711018,34.9722248 C13.6596941,34.9722248 7.64615852,34.9764857 1.63049498,34.9913987 C1.09638407,34.9913987 0.634622832,34.8763552 0.336712364,34.4502682 C-0.0207801967,33.9347028 -0.0675947177,33.3424418 0.0749767465,32.741659 C0.0898722865,32.6820068 0.121791234,32.6244851 0.121791234,32.5669633 C0.174989525,31.9150501 0.211164374,31.2631369 0.275002337,30.6133541 C0.332456496,30.0594409 0.42395757,29.5076582 0.496307236,28.9558754 L0.506946908,28.8642667 C0.55588933,28.2144839 0.547377626,27.5519185 0.668669747,26.9149183 C0.785706,26.2949617 0.685693188,25.6366571 1.10915165,25.0593091 C1.53473804,24.4904829 2.03692996,24.0239175 2.6263671,23.6510914 C3.52435437,23.0801347 4.54576169,22.7690911 5.53737797,22.3920041 C6.31832899,22.0937431 7.0865124,21.7656561 7.86533552,21.4546125 C8.51861062,21.1946994 9.17826951,20.9369167 9.84005634,20.6961775 C10.1464785,20.581134 10.4252376,20.7920471 10.4954594,21.1052211 C10.5890884,21.5100039 10.7274039,21.9083953 10.8359285,22.313178 C10.9359413,22.6796128 11.0210586,23.0503086 11.1210714,23.4188739 C11.2295959,23.8215262 11.3551439,24.2199176 11.4657963,24.6247003 C11.5615533,24.980483 11.6509264,25.3405266 11.7509392,25.6984398 C11.9062782,26.2651356 12.070129,26.8275705 12.225468,27.3963967 C12.3254808,27.7521794 12.412726,28.1100926 12.506355,28.4658753 C12.6212634,28.8813101 12.7446834,29.2903537 12.8574638,29.7036582 C12.9574766,30.0722235 13.040466,30.4429193 13.1426067,30.8114846 C13.2532591,31.2141369 13.3745513,31.6125283 13.4830758,32.0151806 C13.5852166,32.3837459 13.6767176,32.7523112 13.7724745,33.1230069 C13.9044063,33.6343114 14.0320822,34.1477463 14.1746537,34.6569204 C14.1895492,34.7208335 14.287434,34.7570509 14.3895748,34.8422683 L14.3895748,34.8422683 Z" id="路径"></path>
                        <path d="M17,19 C20.7870954,19 23,15.2268172 23,11.5882353 C23,7.94965341 20.7870954,5 17,5 C13.2129046,5 11,7.94965341 11,11.5882353 C11,15.2268172 13.2129046,19 17,19 Z" id="椭圆形"></path>
                    </g>
                    <g id="设置" transform="translate(32.000000, 21.000000)" fill-rule="nonzero">
                        <path d="M17.7910301,7.2150432 C17.6946344,6.55867229 17.254829,6.06488867 16.6322735,5.92438114 L16.5278449,5.90832314 C16.0619323,5.78588086 15.7386051,5.51891654 15.4554428,5.02312568 C15.1963794,4.57952332 15.1321156,4.05161645 15.2646596,3.65819535 C15.5176983,3.05401296 15.3429811,2.34344629 14.8569862,1.91790919 C14.0215568,1.10698 13.0314927,0.494768605 11.9651154,0.117405515 C11.4007989,-0.131493544 10.7722187,0.0210574924 10.2842155,0.520862861 L10.2259764,0.589109377 C9.72391553,1.24548028 8.58524141,1.45222708 7.63735043,0.480717851 C7.38029525,0.217768039 6.82602001,-0.183682056 5.95845877,0.117405515 C4.85392479,0.597138379 3.93013273,1.16318301 3.18105787,1.81152492 C2.64284858,2.20494601 2.4179253,2.91149818 2.62678263,3.53976758 C2.76535144,4.10380496 2.70711238,4.62167558 2.45809017,5.07932869 C2.24923284,5.45267728 1.8375429,5.7638011 1.34753146,5.91635214 C1.19088846,5.94244639 1.07441033,6.00667841 0.98604761,6.07693218 C0.648662684,6.27765722 0.39562399,6.58476655 0.216890309,7.0123109 L0.156643001,7.19697794 L0.156643001,7.27927521 C0.0502060901,7.85334885 0,8.40534273 0,9.00751787 C0,9.48122898 0.0301236541,10.1657014 0.170700706,10.7658693 C0.269104643,11.4202329 0.708909992,11.9100021 1.32945727,12.0505096 L1.43388593,12.0665676 C1.89979845,12.1890099 2.22111743,12.4539669 2.50628802,12.9497578 C2.76535144,13.3933602 2.82961524,13.921267 2.69707116,14.3166954 C2.44403247,14.9208778 2.61874966,15.6314444 3.10474461,16.0569815 C3.94820693,16.877947 4.95433697,17.4901584 6.0930111,17.879565 L6.20748098,17.91971 L6.21149747,17.91971 C6.28178599,17.9397825 6.3741652,17.959855 6.4846186,17.959855 L6.60310497,17.959855 C7.02282788,17.959855 7.44455904,17.7751879 7.79800992,17.4078611 C8.36634286,16.7193742 9.4829263,16.5507652 10.4047101,17.4941729 C10.7220126,17.8193475 11.1035789,18 11.4791204,18 C11.6096563,18 11.8486373,18 12.0434369,17.8996375 C13.1298967,17.4279336 14.0416393,16.8719252 14.8268625,16.2035108 C15.3510141,15.8482275 15.5859786,15.1135738 15.375113,14.4752682 C15.2365442,13.9112308 15.2947833,13.3933602 15.5438055,12.9377143 C15.7526628,12.5623585 16.1643528,12.2532419 16.6543642,12.1006909 C16.8130155,12.0766038 16.9274853,12.0103646 17.0178563,11.9381036 C17.3552412,11.7373785 17.6062717,11.4322764 17.7850054,11.0047321 L17.8452527,10.820065 L17.8452527,10.7377678 C17.9516896,10.1636941 18.0018957,9.60969301 17.9999453,8.94730036 C17.9577143,8.37523397 17.9155412,7.78510233 17.7910301,7.2150432 L17.7910301,7.2150432 Z" id="路径" fill="#2980FF"></path>
                        <path d="M16.3772266,10.4888687 C16.3209958,10.5932457 16.2788227,10.6133183 16.256732,10.6253618 L16.2426743,10.6333908 C15.3771213,10.8983478 14.6561618,11.4583707 14.2504966,12.1829881 C13.8046665,12.9959246 13.6982296,13.9313033 13.9432353,14.8887618 L13.9552848,14.9590155 L13.907087,15.0011678 C13.2503913,15.5692197 12.4792258,16.044938 11.5152688,16.4744896 C11.4992029,16.4644534 11.4771122,16.4463881 11.4489968,16.4182866 C10.7400868,15.691662 9.92072341,15.3082771 9.07525285,15.3082771 C8.12535362,15.3082771 7.24574292,15.715749 6.70351715,16.3781416 C6.64728633,16.4363519 6.59908848,16.4383591 6.59908848,16.4383591 L6.47256914,16.3982141 L6.44847021,16.3982141 C5.56082654,16.0790613 4.77961978,15.5912994 4.12091588,14.9529938 L4.07472627,14.8706965 C4.37194633,14.0075788 4.25948469,12.9979318 3.77951446,12.1749591 C3.27745356,11.2997979 2.59264249,10.7738983 1.68893287,10.5671515 L1.63069381,10.5591225 L1.63671854,10.531021 L1.62065259,10.4406947 C1.53429811,10.0834041 1.48610027,9.57556976 1.48610027,9.01153237 C1.48610027,8.48563275 1.52827338,8.02797964 1.62466908,7.52817427 C1.67889165,7.4258045 1.72307301,7.40372474 1.74516369,7.39168124 L1.75721315,7.38365224 C2.62276615,7.11869517 3.34573384,6.55867229 3.74939081,5.83405487 C4.19522089,5.02111843 4.3016578,4.0857397 4.0345614,3.06806371 L4.09079222,3.01788245 C4.76957856,2.42975806 5.56885952,1.9419962 6.48261036,1.54255335 C6.53482469,1.5244881 6.55490712,1.5244881 6.58904727,1.56061861 C7.29795726,2.28724328 8.11732065,2.67062812 8.96279121,2.67062812 C9.94683057,2.67062812 10.7963176,2.28322878 11.3586258,1.57868386 C11.3967825,1.54255335 11.4269061,1.53050985 11.4329308,1.5405461 C12.3486899,1.86572068 13.1580121,2.36552605 13.8408149,3.0279187 L13.8870045,3.11021597 C13.5897845,3.97333368 13.7022461,4.98298067 14.1822163,5.80595336 C14.6842772,6.68111457 15.3670801,7.20701419 16.2727979,7.41376099 L16.3209958,7.42178999 C16.323004,7.42781175 16.3250123,7.437848 16.3270205,7.45189875 L16.3410782,7.52817427 C16.4455069,7.99184913 16.4816553,8.50971975 16.5178036,9.01153237 C16.5157954,9.53141024 16.4736223,9.9910706 16.3772266,10.4888687 Z" id="路径" fill="#DCEAFF"></path>
                        <path d="M8.96078296,5.38041626 C7.00073721,5.38041626 5.46643909,6.95610788 5.46643909,8.96536561 C5.46643909,10.9766306 7.00073721,12.550315 8.96078296,12.550315 C10.8866886,12.550315 12.4551268,10.9425073 12.4551268,8.96536561 C12.4551268,6.99023114 10.8866886,5.38041626 8.96078296,5.38041626 L8.96078296,5.38041626 Z" id="路径" fill="#2980FF"></path>
                        <path d="M8.96078296,11.0288191 C7.8341583,11.0288191 6.95053111,10.1235491 6.95053111,8.96536561 C6.95053111,7.80918934 7.8341583,6.90191212 8.96078296,6.90191212 C10.0874076,6.90191212 10.9710348,7.80918934 10.9710348,8.96536561 C10.9710348,10.1235491 10.0894159,11.0288191 8.96078296,11.0288191 L8.96078296,11.0288191 Z" id="路径" fill="#FFFFFF"></path>
                    </g>
                </g>
                <rect id="矩形备份-19" x="0" y="0" width="50" height="50"></rect>
            </g>
        </g>
    </g>
</svg>