<?xml version="1.0" encoding="UTF-8"?>
<svg width="48px" height="40px" viewBox="0 0 48 40" version="1.1" xmlns="http://www.w3.org/2000/svg" xmlns:xlink="http://www.w3.org/1999/xlink">
    <!-- Generator: Sketch 61 (89581) - https://sketch.com -->
    <title>home_sear</title>
    <desc>Created with Sketch.</desc>
    <g id="类型页" stroke="none" stroke-width="1" fill="none" fill-rule="evenodd">
        <g id="规范" transform="translate(-371.000000, -818.000000)">
            <g id="home_sear" transform="translate(370.000000, 811.000000)">
                <g id="编组-19" transform="translate(1.000000, 7.000000)">
                    <rect id="矩形备份-12" fill="#DCEAFF" x="0" y="0" width="28" height="28" rx="4"></rect>
                    <path d="M24,19 C27.7870954,19 30,15.2268172 30,11.5882353 C30,7.94965341 27.7870954,5 24,5 C20.2129046,5 18,7.94965341 18,11.5882353 C18,15.2268172 20.2129046,19 24,19 Z" id="椭圆形" fill="#2980FF" fill-rule="nonzero"></path>
                    <path d="M33.9268867,21 C35.7390895,21 37.3248895,22.2183357 37.7918265,23.9693494 L39.6584932,30.9693494 C40.2277058,33.1038967 38.9587513,35.2957271 36.824204,35.8649398 C36.4879907,35.9545967 36.1415157,36 35.7935534,36 L12.2064466,36 C9.99730759,36 8.20644659,34.209139 8.20644659,32 C8.20644659,31.6520377 8.25184993,31.3055627 8.34150683,30.9693494 L10.2081735,23.9693494 C10.6751105,22.2183357 12.2609105,21 14.0731133,21 L19.3720498,21.0006245 C20.4725549,22.1454247 22.1371348,22.875 24,22.875 C25.8628652,22.875 27.5274451,22.1454247 28.6279502,21.0006245 L33.9268867,21 Z" id="形状结合" fill="#2980FF" fill-rule="nonzero"></path>
                    <circle id="椭圆形" fill="#FFFFFF" cx="38" cy="30" r="8"></circle>
                    <g id="搜索" transform="translate(32.000000, 24.000000)" fill-rule="nonzero">
                        <rect id="矩形" fill="#000000" opacity="0" x="0" y="0" width="16" height="16"></rect>
                        <path d="M15.8865553,14.658903 L11.3003372,10.0519987 C13.1650633,7.59413664 12.9749989,4.07815182 10.7292447,1.83704605 C8.27478667,-0.612348683 4.29530156,-0.612348683 1.84084352,1.83704605 C-0.613614508,4.28587859 -0.613614508,8.25717166 1.84084352,10.7065648 C4.08579427,12.9468845 7.60628378,13.1376624 10.0690337,11.2798148 L14.6562639,15.8871998 C14.8069908,16.0376001 15.0520585,16.0376001 15.2027539,15.8871998 L15.8865695,15.204795 C16.0378125,15.0538498 16.0378125,14.8093189 15.8865553,14.658903 Z" id="路径" fill="#2980FF"></path>
                        <path d="M3.00526775,9.57850767 C1.20280894,7.77978281 1.20280894,4.86355408 3.00526775,3.06537419 C4.80774224,1.26663367 7.72939044,1.26663367 9.53188063,3.06537419 C11.3343551,4.86355251 11.3343551,7.77978281 9.53188063,9.57850767 C7.72939044,11.3772654 4.80774224,11.3772654 3.00526775,9.57850767 Z" id="路径" fill="#DCEAFF"></path>
                    </g>
                </g>
                <rect id="矩形备份-18" x="0" y="0" width="50" height="50"></rect>
            </g>
        </g>
    </g>
</svg>