<?xml version="1.0" encoding="UTF-8"?>
<svg width="24px" height="24px" viewBox="0 0 24 24" version="1.1" xmlns="http://www.w3.org/2000/svg" xmlns:xlink="http://www.w3.org/1999/xlink">
    <!-- Generator: Sketch 61 (89581) - https://sketch.com -->
    <title>icon-week</title>
    <desc>Created with Sketch.</desc>
    <g id="icon-week" stroke="none" stroke-width="1" fill="none" fill-rule="evenodd">
        <circle id="椭圆形备份" fill="#EFFFE5" cx="12" cy="12" r="12"></circle>
        <g id="我的一周" transform="translate(3.000000, 3.000000)" fill-rule="nonzero">
            <rect id="矩形" fill="#000000" opacity="0" x="0" y="0" width="18" height="18"></rect>
            <path d="M14.7142857,2.14285714 L12.4285714,2.14285714 L12.4285714,1.57142857 C12.4285714,1.25583729 12.1727341,1 11.8571429,1 C11.5415516,1 11.2857143,1.25583729 11.2857143,1.57142857 L11.2857143,2.14285714 L6.14285714,2.14285714 L6.14285714,1.57142857 C6.14285714,1.25583729 5.88701986,1 5.57142857,1 C5.25583729,1 5,1.25583729 5,1.57142857 L5,2.14285714 L3.28571429,2.14285714 C2.02334914,2.14285714 1,3.16620629 1,4.42857143 L1,14.7142857 C1,15.9766509 2.02334914,17 3.28571429,17 L14.7142857,17 C15.9766509,17 17,15.9766509 17,14.7142857 L17,4.42857143 C17,3.16620629 15.9766509,2.14285714 14.7142857,2.14285714 Z M15.8571429,14.7142857 C15.8571429,15.3454683 15.3454683,15.8571429 14.7142857,15.8571429 L3.28571429,15.8571429 C2.65453171,15.8571429 2.14285714,15.3454683 2.14285714,14.7142857 L2.14285714,4.42857143 C2.14285714,3.79738886 2.65453171,3.28571429 3.28571429,3.28571429 L5,3.28571429 L5,3.85714286 C5,4.17273414 5.25583729,4.42857143 5.57142857,4.42857143 C5.88701986,4.42857143 6.14285714,4.17273414 6.14285714,3.85714286 L6.14285714,3.28571429 L11.2857143,3.28571429 L11.2857143,3.85714286 C11.2857143,4.17273414 11.5415516,4.42857143 11.8571429,4.42857143 C12.1727341,4.42857143 12.4285714,4.17273414 12.4285714,3.85714286 L12.4285714,3.28571429 L14.7142857,3.28571429 C15.3454683,3.28571429 15.8571429,3.79738886 15.8571429,4.42857143 L15.8571429,14.7142857 Z" id="形状" fill="#6BC415"></path>
            <path d="M12.986,6.50624219 C12.9813234,6.43266868 12.9585049,6.36130274 12.9195,6.29826007 C12.8997297,6.26150729 12.8758618,6.22701397 12.8483333,6.19541177 C12.8238333,6.16912832 12.797,6.14855866 12.769,6.12684624 C12.7468333,6.11084761 12.7328333,6.08799244 12.7083333,6.07542209 C12.6966667,6.06970829 12.6838333,6.06970829 12.6733333,6.0639945 C12.6395,6.04799587 12.6033333,6.03999656 12.5671667,6.02971173 C12.5286667,6.0194269 12.4913333,6.00914207 12.4505,6.00685655 C12.4388333,6.00685655 12.4283333,6 12.4166667,6 L6.58333333,6 C6.26116723,6 6,6.25581529 6,6.57137945 C6,6.88694361 6.26116723,7.1427589 6.58333333,7.1427589 L11.4005,7.1427589 L7.82816667,13.1502425 C7.66716667,13.4199336 7.76283333,13.7673323 8.04283333,13.9238902 C8.32283333,14.0804482 8.67866667,13.9878847 8.84083333,13.7159081 L12.9241667,6.84906987 C12.9276667,6.84335607 12.9276667,6.83535676 12.9311667,6.82964296 C12.9521667,6.79078916 12.9626667,6.74850708 12.9743333,6.70508224 C12.9836667,6.67079948 12.993,6.63765947 12.9953333,6.6033767 C12.9941667,6.59194911 13,6.58280704 13,6.57137945 C13,6.54852427 12.9895,6.52909737 12.986,6.50624219 Z" id="路径" fill="#6BC415"></path>
        </g>
    </g>
</svg>