<?xml version="1.0" encoding="UTF-8"?>
<svg width="24px" height="24px" viewBox="0 0 24 24" version="1.1" xmlns="http://www.w3.org/2000/svg" xmlns:xlink="http://www.w3.org/1999/xlink">
    <!-- Generator: Sketch 61 (89581) - https://sketch.com -->
    <title>icon-year</title>
    <desc>Created with Sketch.</desc>
    <g id="icon-year" stroke="none" stroke-width="1" fill="none" fill-rule="evenodd">
        <circle id="椭圆形备份" fill="#EFEAFF" cx="12" cy="12" r="12"></circle>
        <g id="数据" transform="translate(5.000000, 5.000000)" fill-rule="nonzero">
            <g id="编组">
                <rect id="矩形" fill="#000000" opacity="0" x="0" y="0" width="14" height="14"></rect>
                <path d="M3.77006173,11.8848333 C3.77006173,12.0855 3.61882716,12.25 3.43302469,12.25 L1.95200617,12.25 C1.76569115,12.2493571 1.61496913,12.0860546 1.61496913,11.8848333 L1.61496913,7.36516667 C1.61496913,7.1645 1.7662037,7 1.95200617,7 L3.43194444,7 C3.61774692,7 3.76898147,7.16333333 3.76898148,7.36516667 L3.76898148,11.8848333 L3.77006173,11.8848333 Z M8.07700617,11.8848333 C8.07700617,12.0855 7.9257716,12.2488333 7.73996914,12.2488333 L6.26003086,12.2488333 C6.07413661,12.2481929 5.9235868,12.0855991 5.92299383,11.8848333 L5.92299383,0.365166673 C5.92299383,0.1645 6.0742284,0 6.26003086,0 L7.73996914,0 C7.92577161,0 8.07700617,0.163333335 8.07700617,0.365166673 L8.07700617,11.8848333 L8.07700617,11.8848333 Z M12.3850309,11.8848333 C12.3850309,12.0855 12.2337963,12.25 12.0479938,12.25 L10.5680556,12.25 C10.3817405,12.2493571 10.2310185,12.0860546 10.2310185,11.8848333 L10.2310185,3.86516667 C10.2310185,3.66449999 10.3822531,3.50000001 10.5669753,3.50000001 L12.0479938,3.50000001 C12.2337963,3.50000001 12.3850309,3.66333334 12.3850309,3.86516667 L12.3850309,11.8848333 L12.3850309,11.8848333 Z M0.337037032,14 C0.150722015,13.9993571 0,13.8360546 0,13.6348333 L0,13.1985 C0,12.9966667 0.151234569,12.8333333 0.337037032,12.8333333 L13.6640432,12.8333333 C13.8476852,12.8333333 14,12.9966667 14,13.1985 L14,13.6348333 C14,13.8355 13.8487654,14 13.6640432,14 L0.337037032,14 Z" id="形状" fill="#6835FB"></path>
            </g>
        </g>
    </g>
</svg>