<?xml version="1.0" encoding="UTF-8"?>
<svg width="24px" height="24px" viewBox="0 0 24 24" version="1.1" xmlns="http://www.w3.org/2000/svg" xmlns:xlink="http://www.w3.org/1999/xlink">
    <!-- Generator: Sketch 61 (89581) - https://sketch.com -->
    <title>icon-day</title>
    <desc>Created with Sketch.</desc>
    <g id="icon-day" stroke="none" stroke-width="1" fill="none" fill-rule="evenodd">
        <circle id="椭圆形备份" fill="#FFFBD8" cx="12" cy="12" r="12"></circle>
        <g id="太阳" fill-rule="nonzero">
            <rect id="矩形" fill="#000000" opacity="0" x="0" y="0" width="24" height="24"></rect>
            <path d="M8.06694654,6.9736489 L6.7101638,5.61686616 L5.57973935,6.74731458 L6.93652209,8.10409732 L8.06694654,6.9736489 Z M5.95616377,11.2690363 L3.69531488,11.2690363 L3.69531488,12.7758612 L5.95616377,12.7758612 L5.95616377,11.2690363 Z M12.7387104,3.80868591 L11.2318856,3.80868591 L11.2318856,5.99341048 L12.7387104,5.99341048 L12.7387104,3.80868591 Z M18.3908806,6.74731458 L17.2604561,5.61686616 L15.9036494,6.9736489 L16.9590768,8.02898032 L18.3908806,6.74731458 Z M15.9036494,17.0723759 L17.2604561,18.4280314 L18.3169148,17.3737552 L16.9590768,16.0170684 L15.9036494,17.0723759 Z M18.0144082,12.7758612 L20.2753051,12.7758612 L20.2753051,11.2690363 L18.0144082,11.2690363 L18.0144082,12.7758612 Z M11.9858856,7.50021136 C9.49877433,7.50021136 7.46416383,9.53587713 7.46416383,12.0219571 C7.46416383,14.5089964 9.49877433,16.5436069 11.9858856,16.5436069 C14.4730208,16.5436069 16.5075354,14.5089964 16.5075354,12.0219571 C16.5075354,9.53587713 14.4730208,7.50021136 11.9858856,7.50021136 M11.2318856,20.2373389 L12.7387104,20.2373389 L12.7387104,18.051559 L11.2318856,18.051559 L11.2318856,20.2373389 Z M5.57973935,17.2975829 L6.7101638,18.4280074 L8.06694654,17.0723519 L7.01267039,16.0170204 L5.57973935,17.2975829 Z" id="形状" fill="#FFB500"></path>
        </g>
    </g>
</svg>