<?xml version="1.0" encoding="UTF-8"?>
<svg width="28px" height="30px" viewBox="0 0 28 30" version="1.1" xmlns="http://www.w3.org/2000/svg" xmlns:xlink="http://www.w3.org/1999/xlink">
    <title>通道信息_默认</title>
    <g id="V0.6.1.2" stroke="none" stroke-width="1" fill="none" fill-rule="evenodd">
        <g id="应用中心_我的应用_邮件发送记录_2" transform="translate(-240.000000, -137.000000)">
            <g id="编组-17" transform="translate(204.000000, 112.000000)">
                <g id="编组-10" transform="translate(16.000000, 16.000000)">
                    <g id="编组-8" transform="translate(9.099775, 9.068906)">
                        <g id="通道信息_默认" transform="translate(10.900225, 0.000000)">
                            <circle id="椭圆形" fill="#E8EDF3" cx="14" cy="14.2" r="14"></circle>
                            <path d="M20.9708536,13.0515122 C20.5627903,12.7634674 20.0347083,12.7274619 19.5786375,12.9314935 L19.4946245,12.8354786 L18.9665425,13.3395569 L19.0145499,13.3995662 C18.5824829,14.0356649 18.7385071,14.8997991 19.3746058,15.3318662 C20.0107046,15.7759351 20.8748387,15.6199109 21.3189077,14.995814 L21.3189077,14.9838121 C21.7629766,14.3597153 21.6069524,13.4955811 20.9708536,13.0515122 Z M10.3852103,11.4192588 L10.7332643,11.047201 L10.1931805,10.5551246 L9.82112273,10.963188 L9.94114136,11.0832066 C9.12501466,10.5311209 8.11685815,10.3150874 7.14470723,10.4951153 C6.13655072,10.6751432 5.26041471,11.2392308 4.68432528,12.0793612 C4.10823584,12.9074898 3.88020044,13.93965 4.06022839,14.9358047 C4.24025634,15.9439612 4.80434391,16.8200972 5.64447433,17.3961866 C6.28057308,17.8402556 7.03669046,18.0802928 7.81681157,18.0802928 C9.02899975,18.0802928 10.2171842,17.5042034 10.9612997,16.4360376 C11.5373892,15.607909 11.7654246,14.5757488 11.5853966,13.5795941 C11.4293724,12.7394637 11.0093072,11.9833463 10.3852103,11.4192588 Z M10.3492047,16.0039705 C9.37705379,17.4081885 7.44475381,17.7442407 6.05253768,16.7720898 C5.38043334,16.3040171 4.92436254,15.5959072 4.78034018,14.7797805 C4.63631782,13.9756556 4.81634577,13.1475271 5.28441844,12.4754227 C5.7524911,11.8033184 6.46060103,11.3352457 7.27672773,11.2032252 C7.45675567,11.1672196 7.63678362,11.1552178 7.82881343,11.1552178 C8.45291032,11.1552178 9.06500534,11.3472476 9.58108546,11.7073035 C10.2531898,12.1753761 10.7212625,12.8834861 10.853283,13.6996128 C10.9973053,14.5037376 10.8172774,15.343868 10.3492047,16.0039705 L10.3492047,16.0039705 Z M11.3933668,9.24692153 L11.9334506,9.75099978 L11.1293258,10.6151339 L10.589242,10.1110557 L11.3933668,9.24692153 L11.3933668,9.24692153 Z M19.098563,12.4274153 L18.570481,12.9434954 L17.7663562,12.1153668 L18.2944381,11.5992867 L19.098563,12.4274153 Z M17.0942518,10.3750967 L16.5661698,10.8791749 L17.3702947,11.7073035 L17.8983767,11.1912234 L17.0942518,10.3750967 Z M15.9180692,9.16290848 C16.0500897,9.01888613 16.1821102,8.83885818 16.2781251,8.65883023 C16.9502295,7.42263832 16.4821568,5.87439797 15.2459649,5.21429549 C14.009773,4.54219115 12.4615326,5.01026382 11.8014302,6.24645573 C11.3813649,7.02657683 11.3933668,7.98672589 11.8494376,8.75484514 L11.8014302,8.81485445 L12.0534693,9.04288985 C12.257501,9.30693084 12.5215419,9.53496624 12.8455923,9.70299233 C13.6977245,10.1590631 14.6818773,10.087052 15.4379947,9.59497556 L15.3779854,9.65498488 L16.1701084,10.4831134 L16.6981903,9.96703332 L15.9180692,9.16290848 L15.9180692,9.16290848 Z M7.81681157,15.607909 C8.58493082,15.607909 9.22102957,14.9838121 9.22102957,14.2156929 C9.22102957,13.4475736 8.59693268,12.8114749 7.82881343,12.8114749 L7.81681157,12.8114749 C7.04869233,12.8114749 6.42459544,13.4475736 6.42459544,14.2156929 C6.4365973,14.9838121 7.04869233,15.5959072 7.81681157,15.607909 Z M22.3630698,11.0111954 C20.6348015,9.8110091 18.2464307,10.2310743 17.0462444,11.9713445 C15.8460581,13.6996128 16.2661233,16.0879836 17.9943916,17.2881699 C18.6304903,17.7322388 19.3866077,17.9722761 20.1667288,17.9722761 C21.378917,17.9722761 22.5671014,17.3961866 23.311217,16.3280208 C24.5234051,14.6117544 24.0913381,12.2233836 22.3630698,11.0111954 L22.3630698,11.0111954 Z M22.7111238,15.9199575 C21.7389729,17.3241755 19.8066729,17.6602276 18.4144568,16.6880767 C17.0102388,15.7159258 16.6741866,13.7836258 17.6463375,12.3914097 C18.222427,11.5632811 19.1705742,11.0712047 20.1787307,11.0712047 C20.7908257,11.0712047 21.4029207,11.2512327 21.9310027,11.6232904 C23.3352207,12.5954414 23.6832747,14.5157395 22.7111238,15.9199575 L22.7111238,15.9199575 Z M14.0457786,23.4931331 C15.4499966,23.4931331 16.5901736,22.3529561 16.5901736,20.9487381 C16.5901736,19.5445202 15.4499966,18.4043431 14.0457786,18.4043431 C12.6415606,18.4043431 11.5013836,19.5445202 11.5013836,20.9487381 C11.4893817,22.3529561 12.6295587,23.4931331 14.0457786,23.4931331 Z M17.1302574,16.8441009 L17.6703413,17.3481792 L17.2982835,17.7562425 L16.7581997,17.2521643 L17.1302574,16.8441009 Z M16.3501363,17.6842314 L16.8902202,18.1883096 L16.0860953,19.0524438 L15.5460115,18.5483655 L16.3501363,17.6842314 Z M8.92098299,15.343868 L8.392901,15.8599482 L9.19702584,16.6880767 L9.72510782,16.1719966 L8.92098299,15.343868 L8.92098299,15.343868 Z M10.9252941,17.4201904 L10.3972122,17.9362705 L9.59308732,17.1081419 L10.1211693,16.5920618 L10.9252941,17.4201904 Z M12.1254805,18.6443804 L11.3213556,17.8162519 L10.7932736,18.3203301 L11.5853966,19.1484587 L12.1254805,18.6443804 Z" id="形状" fill-opacity="0.65" fill="#1A447F" fill-rule="nonzero"></path>
                        </g>
                    </g>
                </g>
            </g>
        </g>
    </g>
</svg>