<?xml version="1.0" encoding="UTF-8"?>
<svg width="61px" height="60px" viewBox="0 0 61 60" version="1.1" xmlns="http://www.w3.org/2000/svg" xmlns:xlink="http://www.w3.org/1999/xlink">
    <title>编组</title>
    <g id="V0.6.1.2" stroke="none" stroke-width="1" fill="none" fill-rule="evenodd">
        <g id="邮件应用_添加邮件通道" transform="translate(-698.000000, -200.000000)">
            <g id="编组-4" transform="translate(396.500000, 200.000000)">
                <g id="编组" transform="translate(302.000000, 0.000000)">
                    <circle id="椭圆形" fill="#F9C459" cx="29.6296296" cy="30.2250397" r="29.6296296"></circle>
                    <g transform="translate(13.840156, 16.891706)" fill="#FFFFFF" fill-rule="nonzero">
                        <g transform="translate(0.000000, 0.213195)">
                            <path d="M22.4523177,12.5184804 L31.5063258,19.8500146 L31.5063258,5.18694627 L22.4523177,12.5184804 Z M18.850858,15.4347921 C17.9592791,16.1569486 16.865948,16.5179916 15.7727577,16.5179916 C14.6793914,16.5179916 13.5862011,16.1569134 12.6941297,15.4346162 L10.8022684,13.9023556 L0.0649406067,22.5985572 C0.168543037,23.3798145 0.55150265,24.0733703 1.11151864,24.575376 C1.37859832,24.8147697 1.68638021,25.0087473 2.02153143,25.1498154 C2.40308388,25.3104432 2.82051901,25.4018385 3.26008178,25.4018385 L28.2803326,25.4018385 C28.8367603,25.4018385 29.3579386,25.2562322 29.8145632,25.0064254 C30.1354669,24.8308818 30.4254482,24.605419 30.6692393,24.3360526 C31.099163,23.8610645 31.3886166,23.2585874 31.4759311,22.5927878 L20.7435636,13.9021446 L18.850858,15.4347921 L18.850858,15.4347921 Z M0.0340885417,5.18089547 L0.0340885417,19.8561006 L9.09372533,12.5185508 L0.0340885417,5.18089547 Z" id="形状"></path>
                            <path d="M14.0477508,13.7633279 C15.0471185,14.5726229 16.498045,14.5726229 17.4974479,13.7633279 L19.0347391,12.5184804 L20.7435284,11.1347812 L31.4161618,2.49254432 C31.0787591,1.0720477 29.8024968,0.010905519 28.2803326,0.010905519 L3.26008178,0.010905519 C1.73967654,0.010905519 0.464751005,1.06954998 0.125519006,2.48751371 L10.8022684,11.1347812 L12.5108466,12.518586 L14.0477508,13.7633279 Z" id="路径"></path>
                        </g>
                    </g>
                </g>
            </g>
        </g>
    </g>
</svg>