<?xml version="1.0" encoding="UTF-8"?>
<svg width="29px" height="28px" viewBox="0 0 29 28" version="1.1" xmlns="http://www.w3.org/2000/svg" xmlns:xlink="http://www.w3.org/1999/xlink">
    <title>发送记录_默认</title>
    <g id="V0.6.1.2" stroke="none" stroke-width="1" fill="none" fill-rule="evenodd">
        <g id="应用中心_我的应用_邮件通道信息" transform="translate(-240.000000, -221.000000)">
            <g id="编组-14" transform="translate(220.000000, 212.000000)">
                <g id="编组-12" transform="translate(9.882214, 9.000000)">
                    <g id="发送记录_默认" transform="translate(11.000000, 0.000000)">
                        <circle id="椭圆形" fill-opacity="0.5" fill="#D2DBE8" cx="14" cy="14" r="14"></circle>
                        <g id="编组" transform="translate(5.242424, 6.787879)" fill="#1A447F" fill-opacity="0.45" fill-rule="nonzero">
                            <path d="M16.9690371,0.620887263 L16.9683115,0.633727585 L16.1968973,12.1968555 C16.1699917,12.6001529 15.7519576,12.8585495 15.3733044,12.71021 L15.3609701,12.7052209 L8.97036076,10.0451871 L6.85989511,13.3004871 C6.53874124,13.7958533 5.76494885,13.57882 5.74951089,12.9982426 L5.74926904,12.9805524 L5.74926904,8.75433715 L0.375952589,6.60328497 C-0.13325819,6.39942994 -0.121085178,5.68798464 0.387440365,5.49782463 L0.402999247,5.49221941 L16.1671299,0.0341680041 C16.5709353,-0.105644424 16.9881834,0.202125784 16.9690572,0.620887263 L16.9690371,0.620887263 Z M15.6663838,2.0400013 L6.95471965,8.81221798 L6.95471965,10.9474881 L8.12889126,9.13644607 C8.17014521,9.07265158 8.22340382,9.01723811 8.2857901,8.97319905 C8.44339432,8.75594716 8.73540552,8.66495181 8.99660126,8.76640228 L9.01034629,8.77192799 L15.049591,11.2856497 L15.6663838,2.0400013 Z M13.4854194,2.22211126 L2.30527415,6.09303122 L6.39814699,7.73152396 L13.4854194,2.22211126 L13.4854194,2.22211126 Z" id="形状"></path>
                        </g>
                    </g>
                </g>
            </g>
        </g>
    </g>
</svg>