<?xml version="1.0" encoding="UTF-8"?>
<svg width="30px" height="29px" viewBox="0 0 30 29" version="1.1" xmlns="http://www.w3.org/2000/svg" xmlns:xlink="http://www.w3.org/1999/xlink">
    <title>短信签名_hover</title>
    <g id="V0.6.1.2" stroke="none" stroke-width="1" fill="none" fill-rule="evenodd">
        <g id="应用中心_我的应用_短信应用配置_通道信息" transform="translate(-324.000000, -275.000000)">
            <g id="短信签名_hover" transform="translate(324.821342, 275.193046)">
                <circle id="椭圆形" fill="#E5F1FF" cx="14.8822139" cy="14" r="14"></circle>
                <g id="编组-4" transform="translate(8.000000, 8.000000)" fill="#5AA6FF">
                    <path d="M8.008,-0.001 L6.917,1.097 L1.18218986,1.09774773 L1.18218986,11.9022523 L12.8178101,11.9022523 L12.817,6.659 L14,5.428 L14,12 C14,12.5522847 13.5522847,13 13,13 L1,13 C0.44771525,13 6.76353751e-17,12.5522847 0,12 L0,1 C-6.76353751e-17,0.44771525 0.44771525,-3.63787776e-12 1,-3.63797924e-12 L8.008,-0.001 Z" id="形状结合"></path>
                </g>
                <path d="M20,15 L20,15.8484207 C20,15.9472527 19.9707103,16.0438679 19.9158305,16.1260626 L18.4134222,18.3762538 C18.2600848,18.6059106 17.9496067,18.6677798 17.7199498,18.5144425 C17.6650493,18.4777865 17.6179508,18.4306218 17.5813719,18.3756699 L16.0837802,16.1258617 C16.0291483,16.0437891 16,15.9473967 16,15.8488038 L16,15 L20,15 Z M20,8 L20,14 L16,14 L16,8 L20,8 Z M16,6 C16,5.44771525 16.4477153,5 17,5 L19,5 C19.5522847,5 20,5.44771525 20,6 L20,7 L16,7 L16,6 Z" id="形状结合" fill="#5AA6FF" transform="translate(18.000000, 11.799332) rotate(-315.000000) translate(-18.000000, -11.799332) "></path>
            </g>
        </g>
    </g>
</svg>