<?xml version="1.0" encoding="UTF-8"?>
<svg width="29px" height="28px" viewBox="0 0 29 28" version="1.1" xmlns="http://www.w3.org/2000/svg" xmlns:xlink="http://www.w3.org/1999/xlink">
    <title>模版管理_默认</title>
    <g id="V0.6.1.2" stroke="none" stroke-width="1" fill="none" fill-rule="evenodd">
        <g id="应用中心_我的应用_邮件通道信息" transform="translate(-240.000000, -305.000000)">
            <g id="编组-14备份" transform="translate(220.000000, 296.000000)">
                <g id="编组-12" transform="translate(9.882214, 9.000000)">
                    <g id="模版管理_默认" transform="translate(11.000000, 0.000000)">
                        <circle id="椭圆形" fill-opacity="0.5" fill="#D2DBE8" cx="14" cy="14" r="14"></circle>
                        <g id="编组-16" transform="translate(6.000000, 6.000000)">
                            <path d="M14.1906267,0.5 C14.4011756,0.5 14.6031456,0.583510136 14.7520365,0.732401012 C14.9009274,0.88129189 14.9844375,1.08326194 14.9844375,1.29381082 L14.9844375,1.29381082 L14.9844375,14.1906267 C14.9844375,14.4098315 14.8955872,14.6082842 14.7519357,14.7519357 C14.6082842,14.8955872 14.4098315,14.9844375 14.1906267,14.9844375 L14.1906267,14.9844375 L1.29381082,14.9844375 C1.07460602,14.9844375 0.876153311,14.8955872 0.732501803,14.7519357 C0.588850305,14.6082842 0.5,14.4098315 0.5,14.1906267 L0.5,14.1906267 L0.5,1.29381082 C0.5,1.08326194 0.58351013,0.881291886 0.732401008,0.732401008 C0.881291886,0.58351013 1.08326194,0.5 1.29381082,0.5 L1.29381082,0.5 Z" id="路径" stroke-opacity="0.45" stroke="#1A447F" fill="#FFFFFF" fill-rule="nonzero"></path>
                            <path d="M1.86695529,2.51655147 L1.86695529,8.39824646 C1.86695529,8.75736997 2.16032001,9.04786696 2.52170011,9.04786696 L5.78218041,9.04786696 C5.9556207,9.04972885 6.12257555,8.98197975 6.24564716,8.85975649 C6.36871876,8.73753323 6.43762105,8.57105099 6.43692523,8.39760171 L6.43692523,2.51719623 C6.43640797,2.34412016 6.36711809,2.1783459 6.24431177,2.0563861 C6.12150544,1.9344263 5.95525588,1.86628472 5.78218041,1.86693097 L2.52170011,1.86693097 C2.34825983,1.86506909 2.18130498,1.93281818 2.05823337,2.05504144 C1.93516176,2.1772647 1.86625948,2.34374694 1.86695529,2.51719623 L1.86695529,2.51655147 Z" id="路径" fill-opacity="0.45" fill="#1A447F" fill-rule="nonzero"></path>
                            <rect id="矩形" fill-opacity="0.45" fill="#1A447F" x="7.74205032" y="1.93614172" width="5.87541504" height="1" rx="0.5"></rect>
                            <rect id="矩形备份" fill-opacity="0.45" fill="#1A447F" x="7.74205032" y="4.60190518" width="5.87541504" height="1" rx="0.5"></rect>
                            <path d="M2.47372911,10.9134013 L2.47372911,12.5932894 C2.47372911,12.9046563 2.73418919,13.153252 3.05477767,13.153252 L12.429606,13.153252 C12.7516086,13.1518804 13.0116147,12.9013097 13.0106632,12.5932894 L13.0106632,10.9134013 C13.0115001,10.7653618 12.9506931,10.6230922 12.8416669,10.5180225 C12.7326408,10.4129528 12.5843684,10.3537304 12.429606,10.3534386 L3.05448861,10.3534386 C2.73248601,10.3548103 2.47247992,10.6053809 2.47343739,10.9134013 L2.47372911,10.9134013 Z" id="路径" stroke-opacity="0.45" stroke="#1A447F" fill-rule="nonzero"></path>
                        </g>
                    </g>
                </g>
            </g>
        </g>
    </g>
</svg>