<?xml version="1.0" standalone="no"?><!DOCTYPE svg PUBLIC "-//W3C//DTD SVG 1.1//EN" "http://www.w3.org/Graphics/SVG/1.1/DTD/svg11.dtd"><svg t="1607931709148" class="icon" viewBox="0 0 1024 1024" version="1.1" xmlns="http://www.w3.org/2000/svg" p-id="2447" xmlns:xlink="http://www.w3.org/1999/xlink" width="200" height="200"><defs><style type="text/css"></style></defs><path d="M98.461538 98.461538m157.538462 0l433.230769 0q157.538462 0 157.538462 157.538462l0 433.230769q0 157.538462-157.538462 157.538462l-433.230769 0q-157.538462 0-157.538462-157.538462l0-433.230769q0-157.538462 157.538462-157.538462Z" fill="#5AA6FF" p-id="2448"></path><path d="M645.592615 446.779077h-162.067692V287.113846c0-10.24-8.192-18.510769-18.313846-18.510769a18.392615 18.392615 0 0 0-18.313846 18.510769v159.665231H288.413538a18.392615 18.392615 0 0 0-18.313846 18.510769c0 10.24 8.192 18.510769 18.313846 18.510769h158.483693v160.137847c0 10.24 8.192 18.510769 18.313846 18.510769s18.313846-8.270769 18.313846-18.510769v-160.137847h162.067692c10.161231 0 18.353231-8.270769 18.353231-18.510769s-8.192-18.510769-18.353231-18.510769z" fill="#FFFFFF" p-id="2449"></path></svg>