<?xml version="1.0" encoding="UTF-8"?>
<svg width="24px" height="24px" viewBox="0 0 24 24" version="1.1" xmlns="http://www.w3.org/2000/svg" xmlns:xlink="http://www.w3.org/1999/xlink">
    <title>icon</title>
    <g id="SCRM_V0.3.0.1" stroke="none" stroke-width="1" fill="none" fill-rule="evenodd">
        <g id="添加营销策略_4" transform="translate(-519.000000, -139.000000)">
            <g id="编组-9" transform="translate(481.000000, 72.000000)">
                <g id="编组" transform="translate(16.000000, 45.000000)">
                    <g id="icon" transform="translate(22.000000, 22.000000)">
                        <rect id="矩形" x="0" y="0" width="24" height="24"></rect>
                        <path d="M14,4.4408921e-14 C17.3137085,4.4408921e-14 20,2.6862915 20,6 C20,7.91137102 19.1062531,9.61399627 17.713873,10.7127622 C21.315502,12.1534824 23.8837524,15.6300563 23.9961582,19.7200952 L24,20 L20.9506465,20.0002173 C20.5759486,16.2254355 18.1022162,13.068164 14.713873,11.7127622 C16.1062531,10.6139963 17,8.91137102 17,7 C17,3.6862915 14.3137085,1 11,1 C10.8883896,1 10.777491,1.00304743 10.6673829,1.00906362 C11.6206464,0.371992503 12.7668815,4.4408921e-14 14,4.4408921e-14 Z" id="形状结合" fill="#FFC0C0"></path>
                        <path d="M10,1 C13.3137085,1 16,3.6862915 16,7 C16,8.91137102 15.1062531,10.6139963 13.713873,11.7127622 C17.315502,13.1534824 19.8837524,16.6300563 19.9961582,20.7200952 L20,21 L0,21 C0,16.7891932 2.60259391,13.1862549 6.28693513,11.7120314 C4.89374686,10.6139963 4,8.91137102 4,7 C4,3.6862915 6.6862915,1 10,1 Z" id="形状结合" fill="#FB7576"></path>
                    </g>
                </g>
            </g>
        </g>
    </g>
</svg>