<?xml version="1.0" encoding="UTF-8"?>
<svg width="56px" height="56px" viewBox="0 0 56 56" version="1.1" xmlns="http://www.w3.org/2000/svg" xmlns:xlink="http://www.w3.org/1999/xlink">
    <title>icon3</title>
    <defs>
        <polygon id="path-1" points="0 0.151650965 44.7320472 0.151650965 44.7320472 45.2187624 0 45.2187624"></polygon>
        <path d="M22.3525002,0.0256167932 C10.0071802,0.0256167932 0,10.0898798 0,22.5048957 L0,22.5048957 C0,34.9206355 10.0071802,44.9848985 22.3525002,44.9848985 L22.3525002,44.9848985 C34.6971003,44.9848985 44.7046404,34.9206355 44.7046404,22.5048957 L44.7046404,22.5048957 C44.7046404,10.0898798 34.6971003,0.0256167932 22.3525002,0.0256167932 Z" id="path-3"></path>
        <path d="M22.3525002,0.0256167932 C10.0071802,0.0256167932 0,10.0898798 0,22.5048957 L0,22.5048957 C0,34.9206355 10.0071802,44.9848985 22.3525002,44.9848985 L22.3525002,44.9848985 C34.6971003,44.9848985 44.7046404,34.9206355 44.7046404,22.5048957 L44.7046404,22.5048957 C44.7046404,10.0898798 34.6971003,0.0256167932 22.3525002,0.0256167932 Z" id="path-5"></path>
        <path d="M22.3525002,0.0256167932 C10.0071802,0.0256167932 0,10.0898798 0,22.5048957 L0,22.5048957 C0,34.9206355 10.0071802,44.9848985 22.3525002,44.9848985 L22.3525002,44.9848985 C34.6971003,44.9848985 44.7046404,34.9206355 44.7046404,22.5048957 L44.7046404,22.5048957" id="path-7"></path>
        <path d="M22.3525002,0.0256167932 C10.0071802,0.0256167932 0,10.0898798 0,22.5048957 C0,34.9206355 10.0071802,44.9848985 22.3525002,44.9848985 C34.6971003,44.9848985 44.7046404,34.9206355 44.7046404,22.5048957" id="path-9"></path>
        <polygon id="path-11" points="7.72349881e-06 0.0125157216 3.03791726 0.0125157216 3.03791726 3.30684195 7.72349881e-06 3.30684195"></polygon>
    </defs>
    <g id="SCRM_V0.3.0.1" stroke="none" stroke-width="1" fill="none" fill-rule="evenodd">
        <g id="会员-MOT_MOT策略_MOT概述" transform="translate(-929.000000, -208.000000)">
            <g id="编组-10" transform="translate(916.000000, 198.000000)">
                <g id="icon3" transform="translate(13.000000, 10.000000)">
                    <g id="编组-8">
                        <g id="分组" transform="translate(6.000000, 8.000000)">
                            <g>
                                <mask id="mask-2" fill="white">
                                    <use xlink:href="#path-1"></use>
                                </mask>
                                <g id="Clip-2"></g>
                                <path d="M44.7323353,22.6851704 C44.7323353,35.1303452 34.7182192,45.2187624 22.3663117,45.2187624 C10.013684,45.2187624 -7.20206846e-05,35.1303452 -7.20206846e-05,22.6851704 C-7.20206846e-05,10.2399956 10.013684,0.151578405 22.3663117,0.151578405 C34.7182192,0.151578405 44.7323353,10.2399956 44.7323353,22.6851704" id="Fill-1" fill="#ADC6FF" mask="url(#mask-2)"></path>
                            </g>
                            <g id="文件">
                                <mask id="mask-4" fill="white">
                                    <use xlink:href="#path-3"></use>
                                </mask>
                                <g id="Clip-4"></g>
                                <path d="M34.2086353,20.8499946 L34.2086353,47.8997598 C34.2086353,48.2964381 33.6965262,48.4973107 33.4147403,48.2197083 L31.773688,46.3043604 L30.0451848,48.0423613 C29.7007798,48.3887309 29.1433258,48.3923503 28.7946022,48.0503238 L27.0110374,46.3043604 L25.3181624,48.0293317 C24.9726777,48.3811303 24.4087459,48.3847497 24.0589426,48.0369323 L22.3149647,46.3043604 L20.555152,48.0477903 C20.2082278,48.3909025 19.6514936,48.3909025 19.3052891,48.0470664 L17.5483555,46.3043604 L15.7964601,48.0423613 C15.4480964,48.3880071 14.8877634,48.3858355 14.5419188,48.0380181 L12.8173744,46.3043604 L11.2180681,48.2421482 C10.9373618,48.523008 10.4957892,48.3232211 10.4957892,47.9247332 L10.4957892,20.8499946 L34.2086353,20.8499946 Z" id="Fill-3" fill="#F1F2F6" mask="url(#mask-4)"></path>
                                <mask id="mask-6" fill="white">
                                    <use xlink:href="#path-5"></use>
                                </mask>
                                <g id="Clip-6"></g>
                                <path d="M10.4586856,20.7655195 L34.245667,20.7655195 L34.245667,19.3601348 C34.245667,18.8657347 33.84692,18.4650752 33.3553241,18.4650752 L11.3490284,18.4650752 C10.8570726,18.4650752 10.4586856,18.8657347 10.4586856,19.3601348 L10.4586856,20.7655195 Z" id="Fill-5" fill="#597EF7" mask="url(#mask-6)"></path>
                                <g id="分组" mask="url(#mask-6)">
                                    <mask id="mask-8" fill="white">
                                        <use xlink:href="#path-7"></use>
                                    </mask>
                                    <g id="Clip-8"></g>
                                    <path d="M27.6338096,28.0480038 L31.195181,28.0480038 C31.5230316,28.0480038 31.788623,27.7808975 31.788623,27.4511768 L31.788623,23.8694906 C31.788623,23.5401319 31.5230316,23.2730255 31.195181,23.2730255 L27.6338096,23.2730255 C27.305959,23.2730255 27.0403676,23.5401319 27.0403676,23.8694906 L27.0403676,27.4511768 C27.0403676,27.7808975 27.305959,28.0480038 27.6338096,28.0480038" id="Fill-7" fill="#597EF7" mask="url(#mask-8)"></path>
                                </g>
                                <mask id="mask-10" fill="white">
                                    <use xlink:href="#path-9"></use>
                                </mask>
                                <g id="Clip-10"></g>
                                <path d="M29.1175224,28.0480038 C29.2812678,28.0480038 29.4140634,27.9144506 29.4140634,27.7497713 L29.4140634,25.9589282 C29.4140634,25.7938869 29.2812678,25.6603337 29.1175224,25.6603337 L27.3371966,25.6603337 C27.1730913,25.6603337 27.0402957,25.7938869 27.0402957,25.9589282 L27.0402957,27.7497713 C27.0402957,27.9144506 27.1730913,28.0480038 27.3371966,28.0480038 L29.1175224,28.0480038 Z" id="Fill-9" fill="#ADC6FF" mask="url(#mask-10)"></path>
                                <path d="M13.0112417,31.5997943 L31.5360593,31.5997943 C31.6551795,31.5997943 31.7512674,31.5027963 31.7512674,31.3829966 L31.7512674,30.6229379 C31.7512674,30.5031382 31.6551795,30.4061402 31.5360593,30.4061402 L13.0112417,30.4061402 C12.8924813,30.4061402 12.7956736,30.5031382 12.7956736,30.6229379 L12.7956736,31.3829966 C12.7956736,31.5027963 12.8924813,31.5997943 13.0112417,31.5997943" id="Fill-11" fill="#ADC6FF"></path>
                                <path d="M13.0112417,35.151621 L31.5360593,35.151621 C31.6551795,35.151621 31.7512674,35.054623 31.7512674,34.9348233 L31.7512674,34.1747646 C31.7512674,34.0549649 31.6551795,33.9579669 31.5360593,33.9579669 L13.0112417,33.9579669 C12.8924813,33.9579669 12.7956736,34.0549649 12.7956736,34.1747646 L12.7956736,34.9348233 C12.7956736,35.054623 12.8924813,35.151621 13.0112417,35.151621" id="Fill-13" fill="#FF7A46"></path>
                                <path d="M13.0112417,38.7034477 L31.5360593,38.7034477 C31.6551795,38.7034477 31.7512674,38.6064497 31.7512674,38.48665 L31.7512674,37.7265913 C31.7512674,37.6067916 31.6551795,37.5097936 31.5360593,37.5097936 L13.0112417,37.5097936 C12.8924813,37.5097936 12.7956736,37.6067916 12.7956736,37.7265913 L12.7956736,38.48665 C12.7956736,38.6064497 12.8924813,38.7034477 13.0112417,38.7034477" id="Fill-15" fill="#FFC53D"></path>
                            </g>
                            <g id="箭头" transform="translate(6.000000, 6.000000)" fill="#393D65">
                                <polygon id="Fill-17" points="3.80893464 15.0030076 13.7059869 15.0030076 13.7059869 7.75614776 3.80893464 7.75614776"></polygon>
                                <polygon id="Fill-19" points="3.80893464 18.5844121 13.7059869 18.5844121 13.7059869 16.2016917 3.80893464 16.2016917"></polygon>
                                <polygon id="Fill-20" points="17.4468228 9.06925965 0.0682371607 9.06925965 8.75787606 0.312274068"></polygon>
                            </g>
                        </g>
                        <path d="M8.76542396,54.9011127 L4.06987249,54.9011127 C3.48144262,54.9011127 3,54.4150343 3,53.8209385 L3,49.0801742 C3,48.4860784 3.48144262,48 4.06987249,48 L8.76542396,48 C9.35385383,48 9.83529645,48.4860784 9.83529645,49.0801742 L9.83529645,53.8209385 C9.83529645,54.4150343 9.35385383,54.9011127 8.76542396,54.9011127" id="Fill-1备份" fill="#597EF7" opacity="0.163388207"></path>
                        <g id="分组备份" transform="translate(4.556864, 21.869387)">
                            <mask id="mask-12" fill="white">
                                <use xlink:href="#path-11"></use>
                            </mask>
                            <g id="Clip-4"></g>
                            <path d="M2.56045056,3.30684195 L0.477448675,3.30684195 C0.214849716,3.30684195 7.72349881e-06,3.07574413 7.72349881e-06,2.7933374 L7.72349881e-06,0.526025812 C7.72349881e-06,0.243591386 0.214849716,0.0124935699 0.477448675,0.0124935699 L2.56045056,0.0124935699 C2.82304952,0.0124935699 3.03791726,0.243591386 3.03791726,0.526025812 L3.03791726,2.7933374 C3.03791726,3.07574413 2.82304952,3.30684195 2.56045056,3.30684195" id="Fill-3" fill="#FFC540" mask="url(#mask-12)"></path>
                        </g>
                        <path d="M53.3876987,55.2275796 C53.1250997,55.2275796 52.9102577,55.0124189 52.9102577,54.7494877 L52.9102577,52.6385361 C52.9102577,52.3755791 53.1250997,52.1604184 53.3876987,52.1604184 L55.4707005,52.1604184 C55.7332995,52.1604184 55.9481672,52.3755791 55.9481672,52.6385361 L55.9481672,54.7494877 C55.9481672,55.0124189 55.7332995,55.2275796 55.4707005,55.2275796 L53.3876987,55.2275796 Z" id="Fill-5备份" fill="#FF7A46"></path>
                        <path d="M1.90199553,12.2686448 C0.85589799,12.2686448 0,11.4045054 0,10.3483352 L0,1.92030962 C0,0.864139327 0.85589799,0 1.90199553,0 L10.2496426,0 C11.2957401,0 12.1516381,0.864139327 12.1516381,1.92030962 L12.1516381,10.3483352 C12.1516381,11.4045054 11.2957401,12.2686448 10.2496426,12.2686448 L1.90199553,12.2686448 Z" id="Fill-7备份" fill="#ADC6FF" opacity="0.497070312"></path>
                    </g>
                    <g id="3.通用组件/彩色版/加载" transform="translate(36.000000, 0.000000)">
                        <g id="分组">
                            <g fill="#60CBB3" id="Fill-1">
                                <path d="M2.23214286e-06,9.99999777 C2.23214286e-06,15.5228326 4.47714509,19.9999978 10.0000022,19.9999978 C15.5228371,19.9999978 20.0000022,15.5228326 20.0000022,9.99999777 C20.0000022,4.47714062 15.5228371,-2.23214286e-06 10.0000022,-2.23214286e-06 C4.47714509,-2.23214286e-06 2.23214286e-06,4.47714062 2.23214286e-06,9.99999777 Z"></path>
                            </g>
                            <path d="M14.4057612,12.3231161 C14.4057612,12.3231161 13.5133504,13.7002366 12.1012076,14.4391429 C10.6891094,15.1780714 8.94939955,14.9653929 7.80843973,14.2488527 C6.66741295,13.5322679 6.28335045,12.927692 6.28335045,12.927692 L5.30051562,13.4874687 C5.30051562,13.4874687 5.09716741,13.5882723 5.09716741,13.3531161 L5.09716741,9.83755804 C5.09716741,9.83755804 5.09716741,9.52409821 5.33437723,9.63604018 C5.53397545,9.73023661 7.69241295,10.957558 8.3725692,11.3447902 C8.74607366,11.5113973 8.41792634,11.6466875 8.41792634,11.6466875 L7.46953348,12.1887634 C7.46953348,12.1887634 8.01051563,12.8662411 8.80227902,13.225058 C9.64977902,13.6665982 10.4432165,13.7189866 11.4151808,13.3520446 C12.0303147,13.1198571 12.7513415,12.5359955 13.2845781,11.674433 C13.3111629,11.6314866 13.3684397,11.6197232 13.4102254,11.6480714 L14.4057612,12.3231161 Z M5.59426562,7.67688839 C5.59426562,7.67688839 6.48667634,6.29976786 7.89877455,5.56081696 C9.31087277,4.82191071 11.0506049,5.03463393 12.1915647,5.75115179 C13.3325246,6.46771429 13.716654,7.07229018 13.716654,7.07229018 L14.6994442,6.51249107 C14.6994442,6.51249107 14.9028371,6.41175446 14.9028371,6.64686607 L14.9028371,10.1624241 C14.9028371,10.1624241 14.9028371,10.4759286 14.6655603,10.363942 C14.4659621,10.2697902 12.3075692,9.04242411 11.6274353,8.65521429 C11.2539308,8.48862946 11.5820781,8.35327232 11.5820781,8.35327232 L12.530471,7.81121875 C12.530471,7.81121875 11.9895112,7.13374107 11.1977254,6.77492411 C10.3502031,6.33336161 9.5567433,6.28099554 8.58480134,6.6479375 C7.95102902,6.88715625 7.20484598,7.49974554 6.66739062,8.40461161 L5.59426562,7.67688839 Z" id="Fill-3" fill="#FFFFFF"></path>
                        </g>
                    </g>
                </g>
            </g>
        </g>
    </g>
</svg>