<?xml version="1.0" encoding="UTF-8"?>
<svg width="58px" height="59px" viewBox="0 0 58 59" version="1.1" xmlns="http://www.w3.org/2000/svg" xmlns:xlink="http://www.w3.org/1999/xlink">
    <title>icon2</title>
    <g id="SCRM_V0.3.0.1" stroke="none" stroke-width="1" fill="none" fill-rule="evenodd">
        <g id="会员-MOT_MOT策略_MOT概述" transform="translate(-569.000000, -208.000000)" fill-rule="nonzero">
            <g id="编组-3" transform="translate(560.000000, 198.000000)">
                <g id="icon2" transform="translate(10.000000, 10.000000)">
                    <g id="资源-2">
                        <rect id="矩形" fill="#253369" x="0.0718289786" y="20.3451665" width="55.8829454" height="23.2615385"></rect>
                        <path d="M25.8916275,0.563822043 L0.0969109907,20.3428408 L54.4912518,21.7033452 C54.6081571,21.7031276 54.7246836,21.6905005 54.8387327,21.6656914 C55.5212661,21.5002339 55.9972749,21.0225169 55.9895737,20.3428408 L29.3724852,0.499035926 C28.3144424,-0.166345309 26.9496703,-0.101559191 25.8916275,0.563822043 Z" id="路径" fill="#253369"></path>
                        <line x1="0.566033267" y1="55.5864886" x2="27.9761777" y2="41.2687567" id="路径" stroke="#FFFFFF" stroke-width="5.4" fill="#FFFFFF"></line>
                        <line x1="55.5203571" y1="55.6512747" x2="28.1102127" y2="41.1391845" id="路径" stroke="#FFFFFF" stroke-width="5.4" fill="#FFFFFF"></line>
                        <rect id="矩形" fill="#FFFFFF" x="6.5976054" y="16.9739627" width="42.958197" height="28.181961" rx="8.64"></rect>
                        <path d="M29.5139738,41.0207763 C28.590955,41.318792 27.577657,41.1928565 26.7626517,40.6788345 L0.0298935226,20.3428408 L0.0298935226,54.6015873 C0.0298935226,55.3602301 0.802976962,55.9752053 1.62951687,55.9752053 L54.490409,55.9752053 C55.318294,55.9752053 55.9895737,55.3602301 55.9895737,54.6015873 L55.9895737,20.3428408 L30.4615691,40.5163146 C30.1785815,40.7366352 29.8578754,40.9073663 29.5139738,41.0207763 Z" id="路径" fill="#CCD7EE"></path>
                        <g id="编组" transform="translate(12.197179, 20.407627)">
                            <path d="M4.69122277,0 L4.69122277,4.47024209 L9.31542806,4.47024209 C9.31560557,3.28471968 8.8284923,2.14769445 7.96126635,1.30934283 C7.0940404,0.470991218 5.91775424,0 4.69122277,0 L4.69122277,0 Z" id="路径" fill="#FF4D4F"></path>
                            <path d="M4.6242053,0 C2.86737498,0.000453140479 1.26246866,0.965060826 0.481790546,2.48974352 C-0.298887573,4.01442621 -0.120552856,5.83594636 0.942089289,7.19125902 L4.6242053,4.47961995 L4.6242053,0 Z" id="路径" fill="#597EF7"></path>
                            <path d="M4.65153512,9.0052703 C7.22733207,9.0052703 9.31542806,7.00387445 9.31542806,4.53502821 L4.65153512,4.53502821 L0.938244553,7.23930433 C1.81951954,8.3524423 3.19365982,9.00595546 4.65153512,9.0052703 L4.65153512,9.0052703 Z" id="路径" fill="#FFC53D"></path>
                        </g>
                        <rect id="矩形" fill="#91D5FF" x="26.7028458" y="21.0554881" width="15.0789303" height="2.07315575" rx="1.03657788"></rect>
                        <rect id="矩形" fill="#91D5FF" x="26.7028458" y="25.2017996" width="15.0789303" height="2.07315575" rx="1.03657788"></rect>
                    </g>
                </g>
            </g>
        </g>
    </g>
</svg>