<?xml version="1.0" encoding="UTF-8"?>
<svg width="56px" height="56px" viewBox="0 0 56 56" version="1.1" xmlns="http://www.w3.org/2000/svg" xmlns:xlink="http://www.w3.org/1999/xlink">
    <title>icon1</title>
    <g id="SCRM_V0.3.0.1" stroke="none" stroke-width="1" fill="none" fill-rule="evenodd">
        <g id="会员-MOT_MOT策略_MOT概述" transform="translate(-214.000000, -208.000000)">
            <g id="icon1" transform="translate(214.000000, 208.000000)">
                <g id="分组-copy" fill="#E4EBF7">
                    <path d="M8.41750553,9.78941009 L1.56961705,9.78941009 C0.70632048,9.78941009 2.53910757e-05,9.10527963 2.53910757e-05,8.2692568 L2.53910757e-05,1.5572206 C2.53910757e-05,0.721115798 0.70632048,0.0369853417 1.56961705,0.0369853417 L8.41750553,0.0369853417 C9.2808021,0.0369853417 9.98718183,0.721115798 9.98718183,1.5572206 L9.98718183,8.2692568 C9.98718183,9.10527963 9.2808021,9.78941009 8.41750553,9.78941009" id="Fill-3"></path>
                </g>
                <path d="M47.5716102,54.0350877 C46.7072034,54.0350877 46,53.3458969 46,52.5036902 L46,45.7420064 C46,44.8997171 46.7072034,44.2105263 47.5716102,44.2105263 L54.4283051,44.2105263 C55.2927119,44.2105263 56,44.8997171 56,45.7420064 L56,52.5036902 C56,53.3458969 55.2927119,54.0350877 54.4283051,54.0350877 L47.5716102,54.0350877 Z" id="Fill-5-Copy" fill="#9BB7FD"></path>
                <g id="编组-12" transform="translate(0.000000, 18.000000)">
                    <rect id="矩形-copy-13" fill="#7495FF" fill-rule="nonzero" x="0" y="-1.49213975e-13" width="38" height="37.3333333" rx="9"></rect>
                    <path d="M7.3333727,12.7719298 C7.14911711,12.7719298 7,12.5521718 7,12.2806292 L7,10.3154268 C7,10.0443194 7.14911711,9.8245614 7.3333727,9.8245614 L16.6666273,9.8245614 C16.8508829,9.8245614 17,10.0443194 17,10.3154268 L17,12.2806292 C17,12.5521718 16.8508829,12.7719298 16.6666273,12.7719298 L7.3333727,12.7719298 Z" id="Fill-23-Copy-3" fill="#FFFFFF"></path>
                    <path d="M30.1999055,20.6315789 L7.80009449,20.6315789 C7.35788106,20.6315789 7,20.4118209 7,20.1402783 L7,18.175076 C7,17.9039685 7.35788106,17.6842105 7.80009449,17.6842105 L30.1999055,17.6842105 C30.6421189,17.6842105 31,17.9039685 31,18.175076 L31,20.1402783 C31,20.4118209 30.6421189,20.6315789 30.1999055,20.6315789" id="Fill-23-Copy-4" fill="#FFFFFF"></path>
                    <path d="M7.66674541,27.5087719 C7.29823422,27.5087719 7,27.2890139 7,27.0174713 L7,25.0522689 C7,24.7811615 7.29823422,24.5614035 7.66674541,24.5614035 L26.3332546,24.5614035 C26.7017658,24.5614035 27,24.7811615 27,25.0522689 L27,27.0174713 C27,27.2890139 26.7017658,27.5087719 26.3332546,27.5087719 L7.66674541,27.5087719 Z" id="Fill-23-Copy-5" fill="#FFFFFF"></path>
                    <g id="编组-11" transform="translate(21.000000, 5.000000)">
                        <path d="M8.96570291,9.48773922 C8.65645147,7.47556622 7.27291146,5 4.50847264,5 C1.74403383,5 0.260212815,7.42652309 -5.68434189e-14,9.48773922 C2.06077324,9.48216085 6.20035276,9.52797175 8.96570291,9.48773922 Z" id="Fill-13" fill="#DFE9FF"></path>
                        <path d="M7,2.4999397 C7,3.88070142 5.88072841,5 4.5001206,5 C3.11927159,5 2,3.88070142 2,2.4999397 C2,1.11917798 3.11927159,0 4.5001206,0 C5.88072841,0 7,1.11917798 7,2.4999397" id="Fill-15" fill="#F7F7F7"></path>
                    </g>
                </g>
                <g id="3.通用组件/彩色版/对话弹窗" transform="translate(37.500000, 11.000000) scale(-1, -1) translate(-37.500000, -11.000000) translate(21.000000, 0.000000)">
                    <g id="编组-4">
                        <g id="编组-2" fill="#BDD0FF">
                            <g id="编组">
                                <rect id="矩形" x="0" y="2.25146199" width="32.9752809" height="18.9334117" rx="9.46670587"></rect>
                                <polygon id="路径-2" transform="translate(24.311558, 2.942310) rotate(-180.000000) translate(-24.311558, -2.942310) " points="22.1506849 0 22.1506849 5.88462065 26.4724302 1.72583638"></polygon>
                            </g>
                        </g>
                        <g id="编组-3" transform="translate(8.602247, 9.844549)" fill="#FFFFFF">
                            <ellipse id="椭圆形" cx="1.53258427" cy="1.52847855" rx="1.53258427" ry="1.52847855"></ellipse>
                            <ellipse id="椭圆形备份" cx="7.81123596" cy="1.52847855" rx="1.53258427" ry="1.52847855"></ellipse>
                            <ellipse id="椭圆形备份-2" cx="14.2382022" cy="1.52847855" rx="1.53258427" ry="1.52847855"></ellipse>
                        </g>
                    </g>
                </g>
            </g>
        </g>
    </g>
</svg>