<?xml version="1.0" encoding="UTF-8"?>
<svg width="72px" height="72px" viewBox="0 0 72 72" version="1.1" xmlns="http://www.w3.org/2000/svg" xmlns:xlink="http://www.w3.org/1999/xlink">
    <title>fail</title>
    <g id="V0.5.1" stroke="none" stroke-width="1" fill="none" fill-rule="evenodd">
        <g id="应用中心_应用管理_添加通道失败" transform="translate(-693.000000, -353.000000)" fill="#FE6A71">
            <g id="编组" transform="translate(681.000000, 353.000000)">
                <path d="M48,0 C67.884375,0 84,16.115625 84,36 C84,55.884375 67.884375,72 48,72 C28.115625,72 12,55.884375 12,36 C12,16.115625 28.115625,0 48,0 Z M36.6862915,21.8578644 C35.9052429,21.0768158 34.638913,21.0768158 33.8578644,21.8578644 C33.0768158,22.638913 33.0768158,23.9052429 33.8578644,24.6862915 L33.8578644,24.6862915 L45.1701587,36 L33.8578644,47.3137085 C33.0768158,48.0947571 33.0768158,49.361087 33.8578644,50.1421356 C34.638913,50.9231842 35.9052429,50.9231842 36.6862915,50.1421356 L36.6862915,50.1421356 L47.9985858,38.8284271 L59.3137085,50.1421356 C60.0947571,50.9231842 61.361087,50.9231842 62.1421356,50.1421356 C62.9231842,49.361087 62.9231842,48.0947571 62.1421356,47.3137085 L62.1421356,47.3137085 L50.82772,36.0007071 L62.1421356,24.6862915 C62.9231842,23.9052429 62.9231842,22.638913 62.1421356,21.8578644 C61.361087,21.0768158 60.0947571,21.0768158 59.3137085,21.8578644 L59.3137085,21.8578644 L47.9992929,33.17228 Z" id="fail" transform="translate(48.000000, 36.000000) scale(1, -1) translate(-48.000000, -36.000000) "></path>
            </g>
        </g>
    </g>
</svg>