<?xml version="1.0" standalone="no"?><!DOCTYPE svg PUBLIC "-//W3C//DTD SVG 1.1//EN" "http://www.w3.org/Graphics/SVG/1.1/DTD/svg11.dtd"><svg t="1608273059392" class="icon" viewBox="0 0 1024 1024" version="1.1" xmlns="http://www.w3.org/2000/svg" p-id="2929" xmlns:xlink="http://www.w3.org/1999/xlink" width="200" height="200"><defs><style type="text/css"></style></defs><path d="M16 16m64 0l864 0q64 0 64 64l0 864q0 64-64 64l-864 0q-64 0-64-64l0-864q0-64 64-64Z" fill="#E5F1FF" p-id="2930"></path><path d="M512 616.8c248.832 0 450.56 160.192 450.56 357.76 0 5.312-0.16 10.56-0.448 15.776l-0.416 0.384H62.24a675.84 675.84 0 0 1-0.384-0.352 295.36 295.36 0 0 1-0.416-15.776c0-197.6 201.728-357.792 450.56-357.792z" fill="#FFFFFF" p-id="2931"></path><path d="M512 345.696m-207.072 0a207.072 207.072 0 1 0 414.144 0 207.072 207.072 0 1 0-414.144 0Z" fill="#FFFFFF" p-id="2932"></path></svg>