<?xml version="1.0" encoding="UTF-8"?>
<svg width="72px" height="72px" viewBox="0 0 72 72" version="1.1" xmlns="http://www.w3.org/2000/svg" xmlns:xlink="http://www.w3.org/1999/xlink">
    <!-- Generator: Sketch 61.2 (89653) - https://sketch.com -->
    <title>icon_success_apply</title>
    <desc>Created with Sketch.</desc>
    <g id="类型页" stroke="none" stroke-width="1" fill="none" fill-rule="evenodd">
        <g id="会员管理_会员标签_完成" transform="translate(-694.000000, -374.000000)" fill="#52C41A">
            <g id="Group-13" transform="translate(682.000000, 374.000000)">
                <path d="M62.7164062,50.5125 L39.6890625,27.4148437 L33.684375,37.9265625 C32.9882812,39.1429687 31.4484375,39.5648437 30.2320312,38.86875 C29.015625,38.1726562 28.59375,36.6328125 29.2898437,35.4164062 L36.9398437,22.021875 C37.4039062,21.20625 38.2617187,20.7421875 39.140625,20.7421875 C39.5695312,20.7421875 39.9984375,20.8476562 40.3921875,21.0726562 C40.6171875,21.20625 40.8210937,21.3609375 40.9898437,21.54375 C40.996875,21.5507812 41.0109375,21.5648437 41.0179687,21.571875 L66.2953125,46.9265625 C67.2796875,47.9179687 67.2796875,49.5210937 66.2882812,50.5054687 C65.3039062,51.5039062 63.7078125,51.5039062 62.7164062,50.5125 L62.7164062,50.5125 Z M48,72 C28.115625,72 12,55.884375 12,36 C12,16.115625 28.115625,0 48,0 C67.884375,0 84,16.115625 84,36 C84,55.884375 67.884375,72 48,72 L48,72 Z" id="Shape-Copy-3" transform="translate(48.000000, 36.000000) scale(1, -1) translate(-48.000000, -36.000000) "></path>
            </g>
        </g>
    </g>
</svg>