<?xml version="1.0" encoding="UTF-8"?>
<svg width="48px" height="48px" viewBox="0 0 48 48" version="1.1" xmlns="http://www.w3.org/2000/svg" xmlns:xlink="http://www.w3.org/1999/xlink">
    <!-- Generator: Sketch 61.2 (89653) - https://sketch.com -->
    <title>default_rights</title>
    <desc>Created with Sketch.</desc>
    <g id="类型页" stroke="none" stroke-width="1" fill="none" fill-rule="evenodd">
        <g id="会员管理_会员标签_添加标签弹窗" transform="translate(-420.000000, -259.000000)">
            <g id="编组-20" transform="translate(380.000000, 163.000000)">
                <g id="编组-17" transform="translate(23.000000, 80.000000)">
                    <g id="编组-10" transform="translate(17.000000, 16.000000)">
                        <g id="default_rights">
                            <rect id="矩形" fill="#E6F7FF" x="0" y="0" width="48" height="48"></rect>
                            <g id="会员权益" transform="translate(12.324324, 11.675676)" fill-rule="nonzero">
                                <rect id="矩形" fill="#000000" opacity="0" x="0" y="0" width="24" height="24"></rect>
                                <path d="M3.92010082,16.0830549 L1.6436178,19.748926 C1.52979366,19.978043 1.6436178,20.2644391 1.92817817,20.2644392 L5.00143023,20.4362768 C5.11525437,20.4362768 5.17216646,20.4935561 5.22907853,20.5508353 L7.10717702,23.0711217 C7.27791325,23.2429594 7.56247362,23.2429594 7.67629776,23.0711217 L9.83895661,19.4625298 C9.95278075,19.2906921 9.89586868,19.1188544 9.72513247,19.0042959 L4.3753974,15.9684964 C4.20466116,15.9112172 4.03392495,15.9684964 3.92010082,16.0830549 L3.92010082,16.0830549 Z M20.8798992,16.0257757 L23.1563822,19.6916468 C23.2702063,19.9207637 23.1563822,20.2071599 22.8718218,20.2071599 L19.7985698,20.3789976 C19.6847456,20.3789976 19.6278335,20.4362768 19.5709215,20.4935561 L17.692823,23.0138425 C17.5220868,23.1856802 17.2375264,23.1856802 17.1237022,23.0138425 L14.9610434,19.4052506 C14.8472192,19.2334129 14.9041313,19.0615752 15.0748675,18.9470167 L20.4246026,15.9112172 C20.5953388,15.7966587 20.766075,15.853938 20.8798992,16.0257757 Z M11.5792117,1.22984856 C12.0392756,0.973662251 12.6526941,0.973662251 13.112758,1.22984856 L13.112758,1.22984856 L19.6047708,4.91893153 C20.0648347,5.17511785 20.371544,5.68749047 20.371544,6.25110038 L20.371544,6.25110038 L20.371544,13.5780291 C20.371544,14.0904017 20.0648347,14.6027743 19.6047708,14.8589606 L19.6047708,14.8589606 L13.1638762,18.4455691 C12.7038123,18.7017554 12.0903938,18.7017554 11.6303299,18.4455691 L11.6303299,18.4455691 L5.13831712,14.7564861 C4.67825322,14.5002998 4.37154397,13.9879272 4.37154397,13.4755545 L4.37154397,13.4755545 L4.37154397,6.14862586 C4.37154397,5.63625321 4.67825322,5.12388059 5.13831712,4.86769427 L5.13831712,4.86769427 Z M15.3353747,9.94388018 C14.5973747,9.9453697 13.9994796,10.5411357 13.9979847,11.2765076 C13.9971054,11.5133246 14.0611832,11.7458795 14.1832956,11.9490485 L12.8801419,12.8398133 L11.8345757,11.3165785 L10.2173174,12.4163616 C9.99519283,11.9550603 9.52709208,11.661723 9.01361199,11.6620544 C8.98263628,11.6620544 8.95166056,11.6620544 8.92285859,11.6663864 C9.62995179,10.6207831 10.814331,9.99606341 12.0796642,10.001279 C12.2139631,10.020234 12.3494263,10.0298238 12.4850657,10.0299784 C13.9035962,10.0313142 15.1091959,8.99734301 15.3190721,7.5994196 C15.5289483,6.20149618 14.6798028,4.86123064 13.3229836,4.44885372 C11.9661644,4.0364768 10.5108846,4.67636032 9.90205336,5.95302968 C9.29322216,7.22969903 9.71446151,8.75811399 10.8922619,9.54587891 C9.55179649,9.91390203 8.46414167,10.8905096 7.95772056,12.1808098 C7.7745708,12.413633 7.67524174,12.7010238 7.6756771,12.9968478 C7.67817879,13.7151301 8.25175321,14.3020908 8.97228032,14.3237099 C9.69280744,14.3453291 10.3007859,13.7938206 10.3466545,13.0769896 L11.6737193,12.1726873 L12.7171118,13.6937562 L14.6191293,12.4001166 C15.0993275,12.7052454 15.7207757,12.6738739 16.1675675,12.3219495 C16.6143593,11.9700251 16.7884666,11.3747618 16.6013838,10.838755 C16.414301,10.3027481 15.907075,9.94360027 15.3375485,9.94388018 L15.3353747,9.94388018 Z M10.2401413,7.17790667 C10.239702,6.27339417 10.7862342,5.45772255 11.6247973,5.11137823 C12.4633604,4.76503391 13.4287382,4.95625462 14.070611,5.59584163 C14.7124838,6.23542863 14.9043879,7.19736868 14.5568058,8.03294554 C14.2092237,8.86852239 13.390637,9.41310833 12.4828919,9.41267058 C11.2446639,9.41117789 10.2413393,8.41118405 10.2401413,7.17736518 L10.2401413,7.17790667 Z M9.01143826,13.7127086 C8.72020543,13.7127086 8.45764925,13.5378989 8.34619927,13.2697931 C8.23474929,13.0016872 8.29635366,12.693084 8.50228637,12.4878846 C8.70821908,12.2826852 9.0179252,12.2213002 9.28698926,12.3323533 C9.55605331,12.4434064 9.73148774,12.7050276 9.73148774,12.9952233 C9.73088921,13.3912322 9.40886243,13.7121122 9.01143826,13.7127086 L9.01143826,13.7127086 Z M15.3348313,11.9945344 C15.0435985,11.9945344 14.7810423,11.8197247 14.6695923,11.5516188 C14.5581423,11.283513 14.6197467,10.9749097 14.8256794,10.7697104 C15.0316121,10.564511 15.3413183,10.503126 15.6103823,10.6141791 C15.8794464,10.7252322 16.0548808,10.9868534 16.0548808,11.2770491 C16.0539843,11.6726356 15.732375,11.9930996 15.3353747,11.9939929 L15.3348313,11.9945344 Z" id="形状" fill="#5AA6FF"></path>
                            </g>
                        </g>
                    </g>
                </g>
            </g>
        </g>
    </g>
</svg>