<?xml version="1.0" encoding="UTF-8"?>
<svg width="48px" height="48px" viewBox="0 0 48 48" version="1.1" xmlns="http://www.w3.org/2000/svg" xmlns:xlink="http://www.w3.org/1999/xlink">
    <!-- Generator: Sketch 61.2 (89653) - https://sketch.com -->
    <title>default_rights</title>
    <desc>Created with Sketch.</desc>
    <g id="类型页" stroke="none" stroke-width="1" fill="none" fill-rule="evenodd">
        <g id="会员管理_会员标签_添加标签弹窗" transform="translate(-421.000000, -382.000000)">
            <g id="编组-20" transform="translate(380.000000, 163.000000)">
                <g id="编组-18" transform="translate(24.000000, 202.000000)">
                    <g id="编组-10备份" transform="translate(17.000000, 17.000000)">
                        <g id="default_rights">
                            <rect id="矩形" fill="#D9F7BE" x="0" y="0" width="48" height="48"></rect>
                            <g id="会员权益" transform="translate(12.324324, 11.675676)" fill-rule="nonzero">
                                <rect id="矩形" fill="#000000" opacity="0" x="0" y="0" width="24" height="24"></rect>
                                <path d="M3.92010082,16.0830549 L1.6436178,19.748926 C1.52979366,19.978043 1.6436178,20.2644391 1.92817817,20.2644392 L5.00143023,20.4362768 C5.11525437,20.4362768 5.17216646,20.4935561 5.22907853,20.5508353 L7.10717702,23.0711217 C7.27791325,23.2429594 7.56247362,23.2429594 7.67629776,23.0711217 L9.83895661,19.4625298 C9.95278075,19.2906921 9.89586868,19.1188544 9.72513247,19.0042959 L4.3753974,15.9684964 C4.20466116,15.9112172 4.03392495,15.9684964 3.92010082,16.0830549 L3.92010082,16.0830549 Z M20.8798992,16.0257757 L23.1563822,19.6916468 C23.2702063,19.9207637 23.1563822,20.2071599 22.8718218,20.2071599 L19.7985698,20.3789976 C19.6847456,20.3789976 19.6278335,20.4362768 19.5709215,20.4935561 L17.692823,23.0138425 C17.5220868,23.1856802 17.2375264,23.1856802 17.1237022,23.0138425 L14.9610434,19.4052506 C14.8472192,19.2334129 14.9041313,19.0615752 15.0748675,18.9470167 L20.4246026,15.9112172 C20.5953388,15.7966587 20.766075,15.853938 20.8798992,16.0257757 Z M19.6047708,4.91893153 L13.112758,1.22984856 C12.6526941,0.973662251 12.0392756,0.973662251 11.5792117,1.22984856 L5.13831712,4.86769427 C4.67825322,5.12388059 4.37154397,5.63625321 4.37154397,6.14862586 L4.37154397,13.4755545 C4.37154397,13.9879272 4.67825322,14.5002998 5.13831712,14.7564861 L11.6303299,18.4455691 C12.0903938,18.7017554 12.7038123,18.7017554 13.1638762,18.4455691 L19.6047708,14.8589606 C20.0648347,14.6027743 20.371544,14.0904017 20.371544,13.5780291 L20.371544,6.25110038 C20.371544,5.68749047 20.0648347,5.17511785 19.6047708,4.91893153 L19.6047708,4.91893153 Z M16.3776568,7.50813438 C16.3542006,7.75902713 16.2870001,8.00411123 16.1728871,8.2275829 L16.1678641,8.23687434 L15.8549031,8.74079484 L15.7767233,8.86672427 L15.9078985,8.92518043 C16.0477142,8.98745336 16.184189,9.07280579 16.3146269,9.17448683 C16.4520002,9.2817976 16.5843505,9.40912254 16.7080718,9.54810054 C16.8450189,9.70211899 16.9700075,9.86886397 17.0793739,10.0381733 C17.1964823,10.2196248 17.2971736,10.4054536 17.3768626,10.5829213 C17.6751001,11.2472653 17.6825079,11.8576139 17.6736485,12.5927947 L17.6746853,12.5927947 L17.6722429,12.7092418 L17.6726577,12.7092418 L17.6726577,12.7304487 L17.6714826,12.733848 C17.6690402,12.7886305 17.6585908,12.836352 17.6424964,12.876118 C17.6208719,12.9294931 17.5883258,12.9714894 17.5494894,13.0015942 L17.5496392,13.0017492 C17.5286148,13.0180734 17.505547,13.0313667 17.4810677,13.0412647 L17.4805608,13.0412647 C17.456356,13.0511949 17.4310805,13.0580592 17.4052842,13.0617082 C17.3795641,13.0652275 17.3535414,13.0657156 17.3277151,13.0631634 L17.3267243,13.0631634 C17.3005471,13.0604163 17.2747582,13.0545858 17.2498579,13.0457852 L17.1045121,12.9937817 L17.1258601,12.9597887 C17.0973488,12.9264629 17.0763472,12.886994 17.0643739,12.8442361 C17.0511941,12.798256 17.0463209,12.736639 17.0458024,12.6631663 C17.045284,12.5977684 17.0478186,12.5238066 17.0506411,12.4423783 L17.050307,12.4423783 L17.050307,12.4421278 L17.0507794,12.4377147 C17.0659292,12.0054659 17.0874614,11.3846331 16.7158253,10.6495954 C16.647082,10.5137033 16.5671834,10.3841801 16.4770117,10.2624561 C16.3863918,10.1401363 16.2858624,10.0260391 16.1765162,9.92140414 C16.0661691,9.81566279 15.9475275,9.71959518 15.8218155,9.63419248 C15.6939122,9.54722984 15.5580826,9.47036971 15.4163659,9.40428002 L15.3850756,9.38971667 L15.3473797,9.3734477 C15.3212716,9.36273472 15.295017,9.35240852 15.2686239,9.34247226 C15.2427897,9.33271378 15.216855,9.32324288 15.1908243,9.31406121 L15.1903519,9.31406121 L15.1768957,9.30939759 L15.1175178,9.2902422 C15.0991768,9.28431428 15.0783127,9.2783148 15.0565961,9.27242267 L15.0560777,9.27190979 C15.0414463,9.2679499 15.0256399,9.26404964 15.0100177,9.26028058 C14.9859163,9.2544958 14.963497,9.24896148 14.9390615,9.24037376 L14.9389232,9.24081507 C14.9097988,9.23056944 14.8828748,9.21685294 14.8578287,9.19614698 C14.8289347,9.17211328 14.804695,9.1418177 14.7865383,9.10803932 L14.7863886,9.10811088 C14.7687618,9.0753344 14.756377,9.03819249 14.7502249,8.99915413 L14.7502249,8.99819994 C14.744407,8.95937627 14.7451213,8.91808363 14.7530936,8.8762304 L14.7530936,8.87571752 C14.7609639,8.83583493 14.7750083,8.79753128 14.7946835,8.762288 L14.7947872,8.76235957 C14.8089001,8.73732396 14.839384,8.71011758 14.8806513,8.68022753 L14.8811236,8.68022753 C14.917149,8.65424966 14.9534394,8.62928562 14.9916767,8.60323619 C15.1551215,8.49132145 15.3612968,8.35024422 15.5170918,8.13338034 C15.6706864,7.91942673 15.7812394,7.62427142 15.7645459,7.19447968 C15.7590159,7.05080229 15.7324606,6.91253993 15.6896956,6.78306806 C15.6440043,6.64516352 15.5793845,6.51737341 15.5016194,6.40307319 C15.419177,6.28199821 15.3214235,6.17524803 15.2150179,6.08699723 C15.1068611,5.9972913 14.988808,5.92578657 14.8679554,5.87650257 L14.8680015,5.87635944 C14.8484498,5.86849215 14.828696,5.86117401 14.8087618,5.85441304 L14.7550176,5.8368082 C14.7324484,5.82963984 14.7117226,5.82287701 14.6890152,5.81320389 C14.6621949,5.80171781 14.6375175,5.78759577 14.6146373,5.76790364 L14.6141649,5.76746233 C14.5698446,5.72934238 14.5376211,5.6786748 14.5185312,5.62320049 L14.518393,5.62327206 C14.4991649,5.56763076 14.4930704,5.50601384 14.5007547,5.44718793 L14.5008008,5.44718793 C14.5039938,5.42272509 14.5098968,5.39872419 14.518393,5.37565934 L14.5182432,5.37554007 C14.5269848,5.35140506 14.5389691,5.32866638 14.5538423,5.30799523 C14.5693577,5.28658951 14.5880905,5.26790022 14.6093262,5.25264019 C14.6281857,5.23913838 14.650271,5.22746146 14.6752249,5.21843243 C14.7650406,5.18589449 14.88496,5.18653857 15.0365385,5.23821997 C15.1554326,5.27876119 15.2981976,5.35200732 15.466101,5.46701126 C15.6762509,5.6112731 15.8541542,5.79617157 15.9955022,6.00636805 C16.1425876,6.22493755 16.2506061,6.47123825 16.3155485,6.72783229 C16.3800416,6.98306661 16.4020002,7.24891631 16.3776568,7.50813438 L16.3776568,7.50813438 Z M8.45095828,13.6776866 L15.5748683,13.6716156 L15.6817463,13.6715559 L15.6957209,13.5656049 C15.7119997,13.4416435 15.7182901,13.3106449 15.7164122,13.1777379 C15.7143961,13.0315319 15.702426,12.8817835 15.6835781,12.73516 C15.6633592,12.5768239 15.6336702,12.4184281 15.5988315,12.2692164 C15.5616771,12.1096636 15.5183475,11.9625869 15.4741194,11.8390668 L15.4745457,11.8389237 C15.347253,11.484358 15.1654787,11.1565216 14.9405822,10.8645032 C14.7101097,10.5650183 14.434522,10.3029138 14.1264342,10.0879583 C13.8196138,9.87377805 13.4788301,9.70491 13.1165373,9.59074098 C12.7638412,9.47955381 12.3919285,9.42021502 12.0125158,9.42102956 C11.7563751,9.4215151 11.4984026,9.45109504 11.245672,9.50561516 C10.9893032,9.56111332 10.7388527,9.64267877 10.4979642,9.74912485 C10.2576414,9.85551721 10.030268,9.98583593 9.82381629,10.1357752 C9.62097054,10.2831382 9.4381248,10.4495492 9.28305558,10.6310006 C9.20541728,10.721613 9.13186885,10.8115933 9.06190336,10.9042692 C8.99330885,10.9949651 8.92912678,11.0869849 8.86929956,11.1831794 C8.80689795,11.2832235 8.74970798,11.3866504 8.69797456,11.4930173 C8.64457591,11.6030952 8.59404592,11.7218205 8.54618875,11.8522824 C8.50573942,11.9625034 8.46455275,12.1061808 8.42825089,12.2667116 C8.39366561,12.4199071 8.36341214,12.5870218 8.34237526,12.7540053 L8.34237526,12.7544943 C8.32333147,12.9061392 8.31099275,13.0599549 8.30890749,13.2060059 C8.30714482,13.3355493 8.31343515,13.4605365 8.33008262,13.5736201 L8.34542826,13.6778655 L8.45095828,13.6776866 L8.45095828,13.6776866 Z M10.1179639,6.65254658 C10.110222,6.71085961 10.1057635,6.7701984 10.1057635,6.82864263 C10.1057635,7.10378377 10.1551759,7.35440219 10.2428488,7.57725363 C10.3363973,7.81525286 10.4740702,8.02265833 10.6417546,8.19475871 C10.7320647,8.28711777 10.8310976,8.369863 10.9373654,8.4417512 C11.0441627,8.5139835 11.1589439,8.57567198 11.278967,8.62554042 C11.3989325,8.67526573 11.5225846,8.71315906 11.6472737,8.73813503 C11.7726028,8.76310033 11.8999456,8.77563709 12.0275734,8.77557535 C12.2657533,8.77557535 12.5052466,8.73126485 12.7320785,8.63891103 C12.9466524,8.55150708 13.1505235,8.42118837 13.3318485,8.24480606 C13.4789799,8.10164154 13.6005814,7.93899958 13.6943372,7.76441831 L13.6944869,7.76448987 C13.7894064,7.58728457 13.8560193,7.3975555 13.8913304,7.20298391 C13.9264571,7.00967663 13.9313419,6.81072769 13.9037498,6.61336509 C13.8770677,6.42162029 13.819752,6.23154533 13.7304547,6.04975991 C13.6299477,5.84505003 13.5023785,5.6691806 13.3560075,5.52264063 C13.2024014,5.36890844 13.0271363,5.24726094 12.8395901,5.15791283 C12.7098808,5.09612631 12.5739543,5.04941954 12.4343018,5.01864857 C12.292359,4.98736465 12.1475676,4.97204453 12.0024467,4.97295472 C11.8595434,4.97375385 11.7150617,4.99107243 11.5728612,5.02425444 C11.4327689,5.05703092 11.2965476,5.10507447 11.1679646,5.16814653 C10.9813746,5.25958194 10.8073307,5.38334059 10.655015,5.53848021 C10.5110748,5.6851156 10.3863742,5.86099696 10.2889318,6.06519396 C10.2648304,6.11593309 10.2395884,6.17755001 10.2160285,6.24604904 C10.1931714,6.31244885 10.1723419,6.38229567 10.1558096,6.45127179 C10.1401183,6.51713487 10.1268004,6.5851568 10.1179639,6.65254658 L10.1179639,6.65254658 Z M13.6868948,8.77997633 C13.6550399,8.80963976 13.6185076,8.84535038 13.5746597,8.89170023 L13.5742449,8.89170023 L13.4499015,9.02294928 L13.6180929,9.08869308 C13.6965146,9.11938227 13.7839801,9.15809859 13.8748788,9.20163358 C13.9672772,9.24600855 14.0583957,9.29318587 14.1481163,9.34310441 C14.2364343,9.39213793 14.3208929,9.44269816 14.3965957,9.49139771 C14.4702248,9.53873754 14.5382317,9.58680494 14.596711,9.63288046 L14.7165383,9.72756012 L14.7150867,9.72872901 C14.751183,9.75852096 14.7869837,9.78869487 14.8224831,9.81924601 C14.8918495,9.87907382 14.9558241,9.93742263 15.0168841,9.99676142 C15.0801136,10.0580751 15.1416439,10.1212404 15.2014003,10.1861804 C15.2627944,10.2529976 15.3243728,10.3233096 15.388382,10.3994899 L15.3880594,10.3996927 C15.5106877,10.5455504 15.6222231,10.7010195 15.7216656,10.864706 L15.7216656,10.8651473 C15.8234419,11.0326221 15.913244,11.2075831 15.9903525,11.3886287 C16.0692872,11.5743661 16.1354842,11.7656302 16.1884517,11.9610006 L16.1886014,11.9610006 C16.2406637,12.1525903 16.2820692,12.3554634 16.3109633,12.5690591 C16.3193619,12.6309265 16.3281752,12.7646803 16.3353988,12.9289563 C16.3430648,13.1084808 16.3482382,13.28811 16.3509172,13.4677883 C16.3529909,13.6144714 16.3532674,13.7532467 16.3509748,13.859973 C16.3487743,13.9622743 16.3437513,14.0401124 16.3353988,14.0759065 L16.3352951,14.0759065 C16.327461,14.1094583 16.3129333,14.1415549 16.2932789,14.1705862 L16.2932789,14.1710633 C16.2736819,14.1996476 16.2496606,14.224686 16.2221844,14.2451682 L16.2216084,14.2451682 C16.1909401,14.2678899 16.1557097,14.286103 16.1180138,14.2984359 L16.1176452,14.2984359 C16.0804387,14.3103064 16.0417612,14.316506 16.0028294,14.3168399 C15.1566999,14.3282425 14.2637615,14.324211 13.3830582,14.3203823 L13.3499015,14.3201319 L13.2249014,14.3195474 C12.8226431,14.3178418 12.4478848,14.316005 12.1345666,14.3156114 L12.1345666,14.3158976 L12.0125043,14.3158976 L8.05965618,14.3165417 L8.05965618,14.3170188 C8.0122368,14.3170188 7.96890728,14.3123552 7.9302091,14.3033381 C7.88684502,14.2932356 7.84811227,14.2767281 7.81507078,14.2544835 L7.81500165,14.2546266 C7.78506396,14.2345058 7.75928481,14.2084289 7.73916059,14.1779096 C7.72061219,14.1500353 7.70598085,14.1175093 7.69608453,14.0815721 L7.69128038,14.0644801 L7.69128038,14.0582659 C7.6848518,14.0195257 7.68061217,13.9559647 7.67845779,13.8762777 C7.67553152,13.7747995 7.67510525,13.6398648 7.67629189,13.4954002 C7.67781262,13.310788 7.68283567,13.1172064 7.68910295,12.9558526 C7.6957389,12.7882846 7.70418361,12.6508811 7.7124555,12.587809 L7.72653385,12.4816194 L7.72800851,12.4816194 C7.75438846,12.3127294 7.78987793,12.1455002 7.83431042,11.9807165 C7.88895331,11.7778554 7.95552017,11.5852876 8.03147644,11.4045041 L8.03204096,11.4045041 C8.11101566,11.2170293 8.20085443,11.0405754 8.29894205,10.8770389 C8.40118866,10.7067038 8.5122256,10.5499659 8.62919572,10.4088648 C8.74698381,10.2668334 8.86094702,10.1409278 8.97553234,10.0266753 C9.09055546,9.91194572 9.20464539,9.81065828 9.32273302,9.71795857 C9.44092434,9.62511573 9.56633917,9.53849899 9.7030328,9.45381449 C9.83803289,9.37014381 9.98231869,9.28958619 10.1405446,9.20760921 L10.1671921,9.1937615 L10.1687819,9.1937615 C10.1845339,9.18613346 10.2004039,9.17876932 10.2163857,9.17167197 C10.2382076,9.16194263 10.2601925,9.15261 10.2823304,9.14367837 L10.2823995,9.1438215 L10.2861783,9.14231865 C10.3295194,9.12433214 10.3725954,9.10658417 10.4175494,9.08400562 L10.5526301,9.01588827 L10.4571347,8.89847499 C10.4391047,8.87624233 10.4210402,8.85734934 10.4023074,8.83938668 L10.4017429,8.83938668 C10.3841507,8.822414 10.3578834,8.79932256 10.329024,8.77392914 L10.3293005,8.77364288 C10.2803834,8.73090703 10.2214087,8.67880817 10.157123,8.61277811 C10.081633,8.53539729 10.0123599,8.45177586 9.94999148,8.36274413 C9.78707663,8.13060125 9.66788301,7.8896321 9.58843596,7.64710045 C9.5046571,7.3908046 9.4647838,7.13114522 9.46438058,6.87628065 C9.46408664,6.67143125 9.48895588,6.46737466 9.53838984,6.2690212 C9.58843596,6.06799689 9.66296365,5.87379505 9.75880473,5.69180687 C9.85401216,5.51089214 9.97095924,5.3409387 10.1061897,5.1870276 C10.2416985,5.03295704 10.3944397,4.89613354 10.56119,4.77944467 C10.7727728,4.63122053 11.0047517,4.51690521 11.2492895,4.44036076 C11.4869049,4.36582647 11.7430571,4.32484395 12.0124006,4.32432767 C12.2935759,4.32388976 12.557954,4.3664467 12.8016984,4.44447572 C13.0596939,4.52702521 13.2950858,4.64918559 13.5032311,4.80160577 C13.6666874,4.92124946 13.814464,5.06057336 13.9443719,5.21479457 C14.0767222,5.37210498 14.1899481,5.54414572 14.2813998,5.72550176 L14.2813998,5.72599078 C14.3728514,5.90770464 14.4435888,6.09979533 14.4911464,6.29702673 C14.5382317,6.49200385 14.5630359,6.69311165 14.5634161,6.89525713 C14.5638308,7.15214936 14.5249022,7.41092611 14.4429782,7.66190235 C14.3646947,7.90133287 14.247114,8.1343226 14.0869987,8.35255814 C14.0067106,8.46181307 13.9487843,8.53201772 13.9007659,8.58356792 C13.8513304,8.63658519 13.8126437,8.66985069 13.7709847,8.70565673 C13.7458925,8.7270664 13.719245,8.749967 13.6868948,8.77997633 L13.6868948,8.77997633 Z" id="形状" fill="#95DE64"></path>
                            </g>
                        </g>
                    </g>
                </g>
            </g>
        </g>
    </g>
</svg>