<?xml version="1.0" encoding="UTF-8"?>
<svg width="48px" height="48px" viewBox="0 0 48 48" version="1.1" xmlns="http://www.w3.org/2000/svg" xmlns:xlink="http://www.w3.org/1999/xlink">
    <!-- Generator: Sketch 61.2 (89653) - https://sketch.com -->
    <title>default_rights</title>
    <desc>Created with Sketch.</desc>
    <g id="类型页" stroke="none" stroke-width="1" fill="none" fill-rule="evenodd">
        <g id="会员管理_会员标签_添加标签弹窗" transform="translate(-420.000000, -503.000000)">
            <g id="编组-20" transform="translate(380.000000, 163.000000)">
                <g id="编组-19" transform="translate(24.000000, 324.000000)">
                    <g id="编组-10备份-2" transform="translate(16.000000, 16.000000)">
                        <g id="default_rights">
                            <rect id="矩形" fill="#F0F5FF" x="0" y="0" width="48" height="48"></rect>
                            <g id="会员权益" transform="translate(12.324324, 11.675676)" fill-rule="nonzero">
                                <rect id="矩形" fill="#000000" opacity="0" x="0" y="0" width="24" height="24"></rect>
                                <path d="M3.92010082,16.0830549 L1.6436178,19.748926 C1.52979366,19.978043 1.6436178,20.2644391 1.92817817,20.2644392 L5.00143023,20.4362768 C5.11525437,20.4362768 5.17216646,20.4935561 5.22907853,20.5508353 L7.10717702,23.0711217 C7.27791325,23.2429594 7.56247362,23.2429594 7.67629776,23.0711217 L9.83895661,19.4625298 C9.95278075,19.2906921 9.89586868,19.1188544 9.72513247,19.0042959 L4.3753974,15.9684964 C4.20466116,15.9112172 4.03392495,15.9684964 3.92010082,16.0830549 L3.92010082,16.0830549 Z M20.8798992,16.0257757 L23.1563822,19.6916468 C23.2702063,19.9207637 23.1563822,20.2071599 22.8718218,20.2071599 L19.7985698,20.3789976 C19.6847456,20.3789976 19.6278335,20.4362768 19.5709215,20.4935561 L17.692823,23.0138425 C17.5220868,23.1856802 17.2375264,23.1856802 17.1237022,23.0138425 L14.9610434,19.4052506 C14.8472192,19.2334129 14.9041313,19.0615752 15.0748675,18.9470167 L20.4246026,15.9112172 C20.5953388,15.7966587 20.766075,15.853938 20.8798992,16.0257757 Z M19.6047708,4.91893153 L13.112758,1.22984856 C12.6526941,0.973662251 12.0392756,0.973662251 11.5792117,1.22984856 L5.13831712,4.86769427 C4.67825322,5.12388059 4.37154397,5.63625321 4.37154397,6.14862586 L4.37154397,13.4755545 C4.37154397,13.9879272 4.67825322,14.5002998 5.13831712,14.7564861 L11.6303299,18.4455691 C12.0903938,18.7017554 12.7038123,18.7017554 13.1638762,18.4455691 L19.6047708,14.8589606 C20.0648347,14.6027743 20.371544,14.0904017 20.371544,13.5780291 L20.371544,6.25110038 C20.371544,5.68749047 20.0648347,5.17511785 19.6047708,4.91893153 L19.6047708,4.91893153 Z M9.16239443,6.32979307 C9.42818146,6.32979307 9.64364443,6.54525604 9.64364443,6.81104307 L9.64364443,13.3735431 C9.64364443,13.6393301 9.42818146,13.8547931 9.16239443,13.8547931 C8.89660739,13.8547931 8.68114443,13.6393301 8.68114443,13.3735431 L8.68114443,6.81104307 C8.68114443,6.54525604 8.89660739,6.32979307 9.16239443,6.32979307 Z M15.4186444,6.41729307 C15.8561444,6.50479307 16.2061444,6.67979307 16.5561444,6.94229307 C16.9936444,7.29229307 17.2561444,7.72979307 17.4311444,8.25479307 C17.6061444,8.77979307 17.6936444,9.39229307 17.6936444,10.0047931 C17.6936444,10.6172931 17.6061444,11.0547931 17.5186444,11.4922931 C17.4311444,11.9297931 17.2561444,12.2797931 16.9936444,12.6297931 C16.7311444,12.9797931 16.5561444,13.1547931 16.2936444,13.3297931 C16.0311444,13.5047931 15.7686444,13.5922931 15.4186444,13.6797931 C15.1386444,13.7497931 14.8026444,13.7637931 14.4554444,13.7665931 L11.4811444,13.7672931 L11.4811444,6.32979307 L14.1061444,6.32979307 C14.7186444,6.32979307 15.1561444,6.32979307 15.4186444,6.41729307 Z M13.9311444,7.11729307 L12.4436444,7.11729307 L12.4436444,12.9797931 L14.0186444,12.9797931 C14.5436444,12.9797931 14.8936444,12.8922931 15.1561444,12.8047931 C15.4186444,12.7172931 15.6811444,12.5422931 15.8561444,12.4547931 C16.1186444,12.1922931 16.2936444,11.9297931 16.3811444,11.4922931 C16.4686444,11.0547931 16.5561444,10.6172931 16.5561444,10.0047931 C16.5561444,9.21729307 16.4686444,8.60479307 16.2061444,8.16729307 C15.9436444,7.72979307 15.5936444,7.46729307 15.2436444,7.29229307 C14.9811444,7.20479307 14.5436444,7.11729307 13.9311444,7.11729307 Z" id="形状" fill="#85A5FF"></path>
                            </g>
                        </g>
                    </g>
                </g>
            </g>
        </g>
    </g>
</svg>